<svg width="155" height="174" viewBox="0 0 155 174" fill="none" xmlns="http://www.w3.org/2000/svg">
<g clip-path="url(#clip0_327_595)">
<path opacity="0.2" fill-rule="evenodd" clip-rule="evenodd" d="M85.0371 142.58C92.5655 122.928 134.425 128.168 126.25 147.838C151.576 136.045 149.557 160.61 130.174 164.872C105.969 170.112 31.0749 169.785 20.9363 164.872C10.4704 156.352 24.5327 140.302 52.3342 148.481C44.8099 110.151 76.5351 123.583 85.0371 142.58Z" fill="#7CBC79"/>
<path opacity="0.2" fill-rule="evenodd" clip-rule="evenodd" d="M35.9131 44.8186H61.9311C62.1241 33.408 67.0591 27.894 76.3627 27.894C84.7178 27.894 89.6528 31.5084 89.6528 39.4937C89.6528 57.7464 66.2996 59.4612 66.2996 88.7421H91.5496C91.5496 66.4967 120.79 62.6847 120.79 33.9796C120.79 12.684 105.033 0.701874 79.5897 0.701874C52.4387 0.701874 36.1103 16.8658 35.9215 44.8312L35.9131 44.8186ZM78.4441 103.195C68.9475 103.195 62.3045 109.849 62.3045 119.544C62.3045 129.24 68.9475 136.091 78.4441 136.091C87.9407 136.091 94.7725 129.244 94.7725 119.544C94.7725 109.844 87.9197 103.195 78.4273 103.195H78.4441Z" fill="#7CBC79"/>
<path fill-rule="evenodd" clip-rule="evenodd" d="M119.469 158.735C121.001 154.911 119.494 142.168 115.671 142.71C110.543 143.437 113.783 156.634 119.469 158.735Z" fill="#C9DAF0"/>
<path opacity="0.3" fill-rule="evenodd" clip-rule="evenodd" d="M120.329 158.992C122.461 155.47 133.548 153.999 135.411 157.386C137.916 161.93 125.428 162.283 120.329 158.992Z" fill="#26BC80"/>
<path opacity="0.3" fill-rule="evenodd" clip-rule="evenodd" d="M126.397 147.258C129.251 145.64 132.52 136.49 129.59 135.536C126.091 134.389 123.896 143.114 126.397 147.258Z" fill="#26BC80"/>
<path opacity="0.3" fill-rule="evenodd" clip-rule="evenodd" d="M126.926 147.741C129.091 145.27 139.095 144.206 139.02 147.291C138.957 150.284 129.582 150.179 126.926 147.741Z" fill="#26BC80"/>
<path opacity="0.3" fill-rule="evenodd" clip-rule="evenodd" d="M121.89 152.595C124.492 150.12 125.973 139.768 123.149 139.024C119.313 138.02 118.163 148.859 121.89 152.595Z" fill="#26BC80"/>
<path opacity="0.3" fill-rule="evenodd" clip-rule="evenodd" d="M122.612 152.881C125.36 149.855 136.46 148.624 136.317 151.465C136.103 155.886 126.028 155.197 122.612 152.881Z" fill="#26BC80"/>
<path opacity="0.3" fill-rule="evenodd" clip-rule="evenodd" d="M150.216 125.68C150.82 124.046 149.297 119.09 147.782 119.7C145.743 120.519 147.786 124.861 150.216 125.68Z" fill="#26BC80"/>
<path opacity="0.3" fill-rule="evenodd" clip-rule="evenodd" d="M150.594 125.718C150.728 123.978 153.401 120.797 154.572 121.936C156.129 123.495 153.145 125.983 150.594 125.718Z" fill="#26BC80"/>
<path opacity="0.3" fill-rule="evenodd" clip-rule="evenodd" d="M147.669 130.858C148.777 129.156 147.816 123.197 145.969 123.646C143.498 124.243 145.126 129.299 147.669 130.858Z" fill="#26BC80"/>
<path opacity="0.3" fill-rule="evenodd" clip-rule="evenodd" d="M148.093 130.997C148.689 129.059 153.422 125.453 154.45 127.282C155.701 129.509 150.917 131.959 148.093 130.997Z" fill="#26BC80"/>
<path opacity="0.3" fill-rule="evenodd" clip-rule="evenodd" d="M144.026 135.019C145.604 133.472 145.029 126.302 142.985 126.613C140.279 127.03 141.689 132.758 144.026 135.019Z" fill="#26BC80"/>
<path opacity="0.3" fill-rule="evenodd" clip-rule="evenodd" d="M144.442 135.267C145.537 133.346 150.967 130.892 151.765 132.888C152.801 135.469 147.22 136.957 144.442 135.267Z" fill="#26BC80"/>
<path opacity="0.3" fill-rule="evenodd" clip-rule="evenodd" d="M138.559 139.037C140.791 137.587 142.465 130.026 140.061 129.371C137.023 128.505 136.334 135.809 138.559 139.037Z" fill="#26BC80"/>
<path opacity="0.3" fill-rule="evenodd" clip-rule="evenodd" d="M138.991 139.432C140.741 137.423 147.489 135.288 148.097 137.566C148.97 140.802 141.869 142.088 138.991 139.432Z" fill="#26BC80"/>
<path opacity="0.3" fill-rule="evenodd" clip-rule="evenodd" d="M132.486 142.643C135.109 141.214 137.774 133.817 135.398 132.317C132.389 130.43 130.274 138.831 132.486 142.643Z" fill="#26BC80"/>
<path opacity="0.3" fill-rule="evenodd" clip-rule="evenodd" d="M132.935 143.114C135.067 141.012 143.712 140.743 143.25 143.164C142.7 146.026 135.923 146.35 132.935 143.114Z" fill="#26BC80"/>
<path opacity="0.3" fill-rule="evenodd" clip-rule="evenodd" d="M119.057 167.007C119.057 168.742 121.466 168.528 121.084 166.717C117.933 138.923 148.617 146.875 151.681 120.805C151.806 119.742 150.862 119.654 150.736 120.713C147.79 145.787 115.755 137.86 119.057 167.007Z" fill="#26BC80"/>
<path opacity="0.3" fill-rule="evenodd" clip-rule="evenodd" d="M151.076 121.948C153.829 120.267 153.657 115.88 152.046 115.611C150.107 115.291 149.343 120.171 151.076 121.948Z" fill="#26BC80"/>
<path opacity="0.3" fill-rule="evenodd" clip-rule="evenodd" d="M106.502 161.888C106.472 162.287 106.997 162.199 107.672 161.686C108.348 161.173 108.931 160.425 108.931 160.034C109.238 155.924 113.879 143.223 121.399 129.774C126.498 120.683 132.889 111.332 140.065 104.292C140.703 103.666 141.038 103.032 140.812 102.834C140.585 102.637 139.884 103.015 139.247 103.641C131.429 111.303 124.618 121.225 119.263 130.778C111.575 144.53 106.833 157.626 106.502 161.888Z" fill="#26BC80"/>
<path opacity="0.3" fill-rule="evenodd" clip-rule="evenodd" d="M117.505 139.562C120.862 140.365 132.943 138.772 133.275 134.473C133.694 129.177 119.376 137.158 117.5 138.032C115.348 139.037 115.62 139.108 117.505 139.562Z" fill="#26BC80"/>
<path opacity="0.3" fill-rule="evenodd" clip-rule="evenodd" d="M121.37 131.413C124.19 132.09 134.379 130.749 134.643 127.13C134.987 122.675 122.948 129.392 121.37 130.127C119.557 130.972 119.788 131.026 121.37 131.413Z" fill="#26BC80"/>
<path opacity="0.3" fill-rule="evenodd" clip-rule="evenodd" d="M125.377 124.365C127.866 124.962 136.846 123.777 137.094 120.582C137.396 116.649 126.766 122.575 125.373 123.226C123.779 123.974 123.98 124.029 125.377 124.365Z" fill="#26BC80"/>
<path opacity="0.3" fill-rule="evenodd" clip-rule="evenodd" d="M129.847 118.418C131.785 118.885 138.768 117.964 138.961 115.476C139.196 112.412 130.929 117.027 129.847 117.531C128.6 118.107 128.76 118.149 129.847 118.418Z" fill="#26BC80"/>
<path opacity="0.3" fill-rule="evenodd" clip-rule="evenodd" d="M134.173 112.719C135.78 113.106 141.571 112.341 141.727 110.281C141.924 107.76 135.071 111.567 134.173 111.988C133.141 112.467 133.271 112.5 134.173 112.719Z" fill="#26BC80"/>
<path opacity="0.3" fill-rule="evenodd" clip-rule="evenodd" d="M137.706 107.671C138.869 107.953 143.069 107.398 143.183 105.906C143.325 104.065 138.357 106.839 137.706 107.142C136.959 107.491 137.048 107.516 137.706 107.671Z" fill="#26BC80"/>
<path opacity="0.3" fill-rule="evenodd" clip-rule="evenodd" d="M140.031 103.897C141.358 103.355 145.269 100.069 144.538 98.7195C143.64 97.0594 140.212 102.75 139.729 103.443C139.175 104.242 139.284 104.2 140.031 103.897Z" fill="#26BC80"/>
<path fill-rule="evenodd" clip-rule="evenodd" d="M114.387 137.667C112.158 134.99 108.042 123.276 111.642 121.02C116.074 118.237 115.629 134.889 115.721 136.99C115.822 139.386 115.645 139.171 114.387 137.667Z" fill="#B8CCE6"/>
<path fill-rule="evenodd" clip-rule="evenodd" d="M118.726 129.766C116.926 127.437 113.757 117.43 116.825 115.627C120.602 113.404 119.838 127.437 119.863 129.215C119.893 131.241 119.741 131.056 118.726 129.766Z" fill="#B8CCE6"/>
<path opacity="0.3" fill-rule="evenodd" clip-rule="evenodd" d="M123.153 122.364C121.743 120.15 119.67 111.017 122.461 109.647C125.906 107.966 124.278 120.385 124.177 121.969C124.068 123.781 123.946 123.604 123.153 122.364Z" fill="#26BC80"/>
<path opacity="0.3" fill-rule="evenodd" clip-rule="evenodd" d="M127.58 116.813C126.518 115.068 125.029 107.898 127.215 106.886C129.909 105.625 128.474 115.291 128.382 116.523C128.273 117.935 128.18 117.796 127.58 116.813Z" fill="#26BC80"/>
<path opacity="0.3" fill-rule="evenodd" clip-rule="evenodd" d="M132.251 111.08C131.34 109.655 129.997 103.754 131.798 102.88C134.018 101.8 132.977 109.802 132.914 110.824C132.851 111.996 132.763 111.878 132.251 111.08Z" fill="#26BC80"/>
<path opacity="0.3" fill-rule="evenodd" clip-rule="evenodd" d="M136.296 106.167C135.684 105.095 134.886 100.754 136.208 100.178C137.841 99.4676 136.854 105.259 136.779 106.003C136.695 106.852 136.628 106.764 136.296 106.167Z" fill="#26BC80"/>
<path opacity="0.3" fill-rule="evenodd" clip-rule="evenodd" d="M113.661 149.401C117.19 149.989 129.641 147.51 129.729 143.097C129.838 137.658 115.461 146.816 113.568 147.842C111.399 149.014 111.684 149.073 113.661 149.401Z" fill="#26BC80"/>
<path opacity="0.3" fill-rule="evenodd" clip-rule="evenodd" d="M109.771 147.636C107.513 145.282 102.977 134.607 106.262 132.279C110.316 129.4 110.795 144.946 110.996 146.905C111.223 149.145 111.03 148.96 109.771 147.636Z" fill="#26BC80"/>
<path opacity="0.3" fill-rule="evenodd" clip-rule="evenodd" d="M110.035 157.134C113.157 158.151 124.693 157.483 125.268 153.352C125.973 148.283 111.953 154.94 110.123 155.646C108.029 156.474 108.281 156.567 110.035 157.134Z" fill="#26BC80"/>
<path opacity="0.3" fill-rule="evenodd" clip-rule="evenodd" d="M107.354 156.083C104.525 154.133 97.8235 144.148 100.941 141.08C104.781 137.297 107.987 153.121 108.541 155.083C109.175 157.332 108.932 157.176 107.354 156.083Z" fill="#26BC80"/>
<path fill-rule="evenodd" clip-rule="evenodd" d="M50.9032 149.968C49.3127 146.186 50.6262 133.405 54.4575 133.888C59.594 134.536 56.5558 147.779 50.9032 149.968Z" fill="#B8CCE6"/>
<path opacity="0.3" fill-rule="evenodd" clip-rule="evenodd" d="M50.0428 150.242C47.8606 146.749 36.7526 145.446 34.9355 148.859C32.5058 153.44 44.9986 153.608 50.0428 150.242Z" fill="#26BC80"/>
<path opacity="0.3" fill-rule="evenodd" clip-rule="evenodd" d="M43.8025 138.591C40.9238 137.015 37.5078 127.916 40.4454 126.92C43.9158 125.739 46.2365 134.418 43.8025 138.591Z" fill="#26BC80"/>
<path opacity="0.3" fill-rule="evenodd" clip-rule="evenodd" d="M43.278 139.087C41.079 136.65 31.0705 135.725 31.1796 138.823C31.2971 141.815 40.6594 141.567 43.278 139.087Z" fill="#26BC80"/>
<path opacity="0.3" fill-rule="evenodd" clip-rule="evenodd" d="M48.389 143.866C45.7494 141.433 44.1128 131.102 46.9328 130.316C50.7432 129.257 52.0735 140.075 48.389 143.866Z" fill="#26BC80"/>
<path opacity="0.3" fill-rule="evenodd" clip-rule="evenodd" d="M47.6633 144.181C44.8685 141.197 33.7563 140.134 33.9367 142.971C34.2347 147.371 44.3062 146.531 47.6633 144.181Z" fill="#26BC80"/>
<path opacity="0.3" fill-rule="evenodd" clip-rule="evenodd" d="M19.6564 117.388C19.0311 115.758 20.4956 110.782 22.0022 111.366C24.0542 112.152 22.0651 116.531 19.6564 117.388Z" fill="#26BC80"/>
<path opacity="0.3" fill-rule="evenodd" clip-rule="evenodd" d="M19.2784 117.426C19.1232 115.69 16.3997 112.551 15.2499 113.723C13.714 115.291 16.7312 117.733 19.2784 117.426Z" fill="#26BC80"/>
<path opacity="0.3" fill-rule="evenodd" clip-rule="evenodd" d="M22.2833 122.524C21.1503 120.843 22.0189 114.867 23.8738 115.287C26.3539 115.846 24.8012 120.94 22.2833 122.524Z" fill="#26BC80"/>
<path opacity="0.3" fill-rule="evenodd" clip-rule="evenodd" d="M21.8633 122.667C21.2338 120.738 16.4498 117.203 15.4511 119.053C14.2341 121.297 19.0516 123.676 21.8633 122.667Z" fill="#26BC80"/>
<path opacity="0.3" fill-rule="evenodd" clip-rule="evenodd" d="M25.9888 126.63C24.3899 125.109 24.8515 117.926 26.9036 118.225C29.6187 118.582 28.2926 124.336 25.9888 126.63Z" fill="#26BC80"/>
<path opacity="0.3" fill-rule="evenodd" clip-rule="evenodd" d="M25.5775 126.882C24.4571 124.979 18.9891 122.604 18.217 124.617C17.2224 127.214 22.8247 128.618 25.5775 126.882Z" fill="#26BC80"/>
<path opacity="0.3" fill-rule="evenodd" clip-rule="evenodd" d="M31.5151 130.564C29.2616 129.148 27.4739 121.612 29.8659 120.898C32.8915 120.019 33.693 127.299 31.5151 130.564Z" fill="#26BC80"/>
<path opacity="0.3" fill-rule="evenodd" clip-rule="evenodd" d="M31.0915 130.959C29.3122 128.98 22.535 126.945 21.9558 129.236C21.1333 132.485 28.2505 133.666 31.0915 130.959Z" fill="#26BC80"/>
<path opacity="0.3" fill-rule="evenodd" clip-rule="evenodd" d="M37.6466 134.073C34.9986 132.687 32.2248 125.319 34.579 123.793C37.5542 121.864 39.7951 130.232 37.6466 134.073Z" fill="#26BC80"/>
<path opacity="0.3" fill-rule="evenodd" clip-rule="evenodd" d="M37.2014 134.557C35.0402 132.493 26.3872 132.346 26.8907 134.758C27.4824 137.612 34.2639 137.835 37.2014 134.557Z" fill="#26BC80"/>
<path opacity="0.3" fill-rule="evenodd" clip-rule="evenodd" d="M51.4399 158.231C51.4399 159.967 49.0521 159.79 49.4088 157.971C52.1407 130.14 21.578 138.554 18.1201 112.53C17.9774 111.471 18.9216 111.37 19.0643 112.425C22.3879 137.452 54.3019 129.038 51.4399 158.231Z" fill="#26BC80"/>
<path opacity="0.3" fill-rule="evenodd" clip-rule="evenodd" d="M18.7413 113.669C15.9633 112.009 16.0724 107.638 17.6796 107.344C19.61 106.995 20.4451 111.862 18.7413 113.669Z" fill="#26BC80"/>
<path opacity="0.3" fill-rule="evenodd" clip-rule="evenodd" d="M51.545 164.649C51.9101 164.754 51.931 164.25 51.5911 163.514C51.2512 162.779 50.6763 162.102 50.307 161.993C46.5302 160.883 35.6194 154.007 24.6625 144.299C17.2264 137.751 9.8029 129.9 4.69162 121.78C4.23421 121.057 3.69707 120.616 3.48305 120.793C3.26903 120.969 3.48305 121.692 3.90269 122.415C9.46718 131.241 17.3313 139.587 25.1535 146.497C36.4126 156.449 47.6632 163.51 51.545 164.649Z" fill="#26BC80"/>
<path opacity="0.3" fill-rule="evenodd" clip-rule="evenodd" d="M26.1647 144.681C27.3607 142.185 28.1496 132.422 24.8386 131.438C20.7639 130.224 24.5994 142.786 24.9687 144.429C25.3926 146.287 25.4975 146.085 26.1647 144.681Z" fill="#26BC80"/>
<path opacity="0.3" fill-rule="evenodd" clip-rule="evenodd" d="M20.4113 139.533C21.4646 137.331 22.1612 128.711 19.2405 127.845C15.64 126.773 19.0265 137.877 19.3538 139.306C19.7273 140.945 19.8196 140.768 20.4113 139.533Z" fill="#26BC80"/>
<path opacity="0.3" fill-rule="evenodd" clip-rule="evenodd" d="M15.7703 134.17C16.6096 132.455 17.13 125.764 14.8597 125.075C12.0607 124.235 14.696 132.88 14.9478 133.994C15.2332 135.271 15.3045 135.133 15.7703 134.17Z" fill="#26BC80"/>
<path opacity="0.3" fill-rule="evenodd" clip-rule="evenodd" d="M11.3347 128.992C12.0146 127.572 12.4636 122.011 10.5794 121.452C8.25874 120.763 10.4451 127.925 10.6549 128.845C10.8941 129.904 10.9529 129.791 11.3347 128.992Z" fill="#26BC80"/>
<path opacity="0.3" fill-rule="evenodd" clip-rule="evenodd" d="M7.34808 124.684C7.83907 123.655 8.16639 119.641 6.80254 119.221C5.12397 118.716 6.70183 123.907 6.8529 124.579C7.02915 125.344 7.07112 125.26 7.34808 124.684Z" fill="#26BC80"/>
<path opacity="0.3" fill-rule="evenodd" clip-rule="evenodd" d="M4.29735 121.78C4.06235 120.431 1.77948 116.127 0.38626 116.535C-1.33848 117.044 3.26922 121.381 3.81895 121.969C4.44003 122.621 4.44003 122.516 4.29735 121.78Z" fill="#26BC80"/>
<path opacity="0.3" fill-rule="evenodd" clip-rule="evenodd" d="M30.5879 152.461C27.6504 154.007 15.9255 155.499 14.5449 151.692C12.8663 146.997 28.2337 150.742 30.2102 151.078C32.4721 151.46 32.2371 151.591 30.5879 152.461Z" fill="#26BC80"/>
<path opacity="0.3" fill-rule="evenodd" clip-rule="evenodd" d="M24.0918 146.816C21.5739 148.035 11.6199 148.985 10.554 145.761C9.24476 141.786 22.1488 145.316 23.8064 145.648C25.7116 146.026 25.506 146.156 24.0918 146.816Z" fill="#26BC80"/>
<path opacity="0.3" fill-rule="evenodd" clip-rule="evenodd" d="M18.1033 141.206C15.7701 142.08 6.83162 142.185 6.11823 139.306C5.25376 135.759 16.4751 139.764 17.927 140.172C19.6056 140.638 19.4168 140.718 18.1033 141.206Z" fill="#26BC80"/>
<path opacity="0.3" fill-rule="evenodd" clip-rule="evenodd" d="M13.8275 135.965C11.9895 136.608 5.01497 136.561 4.5156 134.317C3.89452 131.552 12.5896 134.822 13.7142 135.158C15.0067 135.544 14.8598 135.603 13.8275 135.965Z" fill="#26BC80"/>
<path opacity="0.3" fill-rule="evenodd" clip-rule="evenodd" d="M9.42545 130.455C7.91892 131.022 2.1614 131.094 1.70398 129.236C1.14586 126.95 8.38473 129.526 9.32053 129.787C10.3948 130.089 10.2731 130.14 9.42545 130.455Z" fill="#26BC80"/>
<path opacity="0.3" fill-rule="evenodd" clip-rule="evenodd" d="M5.66111 125.697C4.54485 126.059 0.344208 125.928 0.0756349 124.579C-0.260081 122.898 4.93512 125 5.60655 125.214C6.3787 125.466 6.29058 125.496 5.66111 125.697Z" fill="#26BC80"/>
<path fill-rule="evenodd" clip-rule="evenodd" d="M41.3688 155.478C42.6277 152.305 42.804 140.188 38.7166 139.222C33.6809 138.032 39.3251 153.28 39.9 155.251C40.5295 157.504 40.6596 157.256 41.3688 155.478Z" fill="#C9DAF0"/>
<path opacity="0.3" fill-rule="evenodd" clip-rule="evenodd" d="M38.9391 158.765C36.2953 160.4 25.4643 162.497 23.9494 158.962C22.0777 154.604 36.6436 157.281 38.5026 157.475C40.6344 157.706 40.4204 157.844 38.9391 158.765Z" fill="#26BC80"/>
<path opacity="0.3" fill-rule="evenodd" clip-rule="evenodd" d="M47.8272 160.412C49.4008 157.702 51.0878 146.8 47.3739 145.442C42.7998 143.761 46.1863 158.189 46.4801 160.034C46.8242 162.152 46.9501 161.934 47.8272 160.412Z" fill="#26BC80"/>
<path opacity="0.3" fill-rule="evenodd" clip-rule="evenodd" d="M46.3161 162.703C43.9367 164.951 33.3071 169.209 31.0704 165.687C28.3217 161.345 43.6849 161.522 45.6195 161.396C47.8394 161.253 47.6632 161.446 46.3161 162.703Z" fill="#26BC80"/>
<path opacity="0.2" d="M78.331 173.996C112.741 173.996 140.636 170.413 140.636 165.994C140.636 161.574 112.741 157.992 78.331 157.992C43.9211 157.992 16.0264 161.574 16.0264 165.994C16.0264 170.413 43.9211 173.996 78.331 173.996Z" fill="#B3B3B3"/>
<path fill-rule="evenodd" clip-rule="evenodd" d="M99.9303 44.2807C99.6533 45.924 97.6306 48.2103 97.4921 49.6939C97.0305 54.5691 101.034 59.1039 107.564 58.6038C116.796 57.8977 120.514 57.9524 121.546 52.3584C122.385 47.8362 120.103 46.8234 119.989 43.7679C119.922 42.007 120.249 40.7461 119.188 38.4346C116.12 31.7731 106.523 31.6387 104.034 34.6773C103.38 35.4758 101.496 35.4338 100.325 37.8882C99.3428 39.977 100.354 41.7674 99.9303 44.2807Z" fill="#002E6C"/>
<path fill-rule="evenodd" clip-rule="evenodd" d="M108.755 89.2422C106.334 91.6714 100.937 92.3523 98.1719 91.8437C98.8097 84.5224 99.6994 81.4628 108.755 89.2422Z" fill="white"/>
<path fill-rule="evenodd" clip-rule="evenodd" d="M106.905 164.443C104.198 166.2 97.2151 167.107 93.837 166.452C91.9486 166.082 91.8227 163.354 94.3028 162.304C98.4348 160.536 102.728 159.173 107.123 158.235C107.517 160.446 108.092 163.661 106.905 164.443Z" fill="#2E3052"/>
<path fill-rule="evenodd" clip-rule="evenodd" d="M102.461 159.37C95.4651 161.303 106.951 163.745 107.274 159.555C106.854 139.02 108.323 139.945 107.505 124.852C107.156 118.418 98.5956 118.838 98.86 125.798C99.3132 139.587 103.753 151.969 102.461 159.37Z" fill="#BA8B80"/>
<path fill-rule="evenodd" clip-rule="evenodd" d="M119.842 167.33C118.008 169.011 110.329 170.377 106.93 169.881C105.025 169.6 104.915 166.939 107.349 165.763C111.351 163.792 115.535 162.217 119.842 161.06C120.329 163.237 120.912 166.368 119.842 167.33Z" fill="#2E3052"/>
<path fill-rule="evenodd" clip-rule="evenodd" d="M120.027 161.854C119.263 147.409 120.342 138.953 119.654 127.723C119.259 121.284 110.157 121.562 110.715 128.517C111.693 140.584 115.239 154.856 115.352 162.367C108.743 164.649 119.003 166.33 120.027 161.854Z" fill="#BA8B80"/>
<path fill-rule="evenodd" clip-rule="evenodd" d="M123.678 130.043C122.528 116.153 125.05 98.0723 118.017 87.2879C111.437 84.472 103.174 85.3504 99.435 85.3042C94.6216 98.8414 96.8164 118.136 95.8848 130.636C99.6993 131.363 119.129 134.687 123.678 130.043Z" fill="#2E3052"/>
<g opacity="0.5">
<path opacity="0.4" fill-rule="evenodd" clip-rule="evenodd" d="M94.244 130.652C94.4183 130.652 94.5887 130.704 94.7336 130.801C94.8786 130.898 94.9915 131.036 95.0582 131.197C95.1249 131.358 95.1424 131.536 95.1084 131.707C95.0744 131.878 94.9904 132.036 94.8672 132.159C94.7439 132.282 94.5869 132.367 94.416 132.401C94.245 132.435 94.0678 132.417 93.9068 132.35C93.7458 132.284 93.6081 132.17 93.5113 132.025C93.4145 131.88 93.3628 131.709 93.3628 131.535C93.3628 131.419 93.3856 131.304 93.4299 131.197C93.4742 131.09 93.5391 130.993 93.6209 130.911C93.7027 130.829 93.7999 130.764 93.9068 130.72C94.0137 130.675 94.1283 130.652 94.244 130.652Z" fill="white"/>
<path opacity="0.4" fill-rule="evenodd" clip-rule="evenodd" d="M99.431 130.652C99.6053 130.652 99.7757 130.704 99.9207 130.801C100.066 130.898 100.179 131.036 100.245 131.197C100.312 131.358 100.329 131.536 100.295 131.707C100.261 131.878 100.177 132.036 100.054 132.159C99.9309 132.282 99.7739 132.367 99.603 132.401C99.432 132.435 99.2548 132.417 99.0938 132.35C98.9328 132.284 98.7952 132.17 98.6983 132.025C98.6015 131.88 98.5498 131.709 98.5498 131.535C98.5498 131.419 98.5726 131.304 98.6169 131.197C98.6612 131.09 98.7261 130.993 98.8079 130.911C98.8897 130.829 98.9869 130.764 99.0938 130.72C99.2007 130.675 99.3153 130.652 99.431 130.652Z" fill="white"/>
<path opacity="0.4" fill-rule="evenodd" clip-rule="evenodd" d="M104.605 130.652C104.779 130.652 104.95 130.704 105.094 130.801C105.239 130.898 105.352 131.036 105.419 131.197C105.486 131.358 105.503 131.536 105.469 131.707C105.435 131.878 105.351 132.036 105.228 132.159C105.105 132.282 104.948 132.367 104.777 132.401C104.606 132.435 104.429 132.417 104.268 132.35C104.107 132.284 103.969 132.17 103.872 132.025C103.775 131.88 103.724 131.709 103.724 131.535C103.725 131.301 103.818 131.077 103.983 130.912C104.148 130.747 104.372 130.653 104.605 130.652Z" fill="white"/>
<path opacity="0.4" fill-rule="evenodd" clip-rule="evenodd" d="M109.771 130.652C109.945 130.652 110.116 130.704 110.26 130.801C110.405 130.898 110.518 131.036 110.585 131.197C110.652 131.358 110.669 131.536 110.635 131.707C110.601 131.878 110.517 132.036 110.394 132.159C110.271 132.282 110.114 132.367 109.943 132.401C109.772 132.435 109.595 132.417 109.434 132.35C109.273 132.284 109.135 132.17 109.038 132.025C108.941 131.88 108.89 131.709 108.89 131.535C108.89 131.301 108.982 131.076 109.148 130.911C109.313 130.745 109.537 130.652 109.771 130.652Z" fill="white"/>
<path opacity="0.4" fill-rule="evenodd" clip-rule="evenodd" d="M114.958 130.652C115.132 130.652 115.303 130.704 115.448 130.801C115.592 130.898 115.705 131.036 115.772 131.197C115.839 131.358 115.856 131.536 115.822 131.707C115.788 131.878 115.704 132.036 115.581 132.159C115.458 132.282 115.301 132.367 115.13 132.401C114.959 132.435 114.782 132.417 114.621 132.35C114.46 132.284 114.322 132.17 114.225 132.025C114.128 131.88 114.077 131.709 114.077 131.535C114.077 131.301 114.169 131.076 114.335 130.911C114.5 130.745 114.724 130.652 114.958 130.652Z" fill="white"/>
<path opacity="0.4" fill-rule="evenodd" clip-rule="evenodd" d="M120.132 130.652C120.306 130.652 120.476 130.704 120.621 130.801C120.766 130.898 120.879 131.036 120.946 131.197C121.013 131.358 121.03 131.536 120.996 131.707C120.962 131.878 120.878 132.036 120.755 132.159C120.632 132.282 120.475 132.367 120.304 132.401C120.133 132.435 119.956 132.417 119.794 132.35C119.633 132.284 119.496 132.17 119.399 132.025C119.302 131.88 119.25 131.709 119.25 131.535C119.252 131.301 119.345 131.077 119.51 130.912C119.675 130.747 119.898 130.653 120.132 130.652Z" fill="white"/>
<path opacity="0.4" fill-rule="evenodd" clip-rule="evenodd" d="M125.298 130.652C125.472 130.652 125.642 130.704 125.787 130.801C125.932 130.898 126.045 131.036 126.112 131.197C126.179 131.358 126.196 131.536 126.162 131.707C126.128 131.878 126.044 132.036 125.921 132.159C125.798 132.282 125.641 132.367 125.47 132.401C125.299 132.435 125.122 132.417 124.961 132.35C124.799 132.284 124.662 132.17 124.565 132.025C124.468 131.88 124.417 131.709 124.417 131.535C124.417 131.419 124.439 131.304 124.484 131.197C124.528 131.09 124.593 130.993 124.675 130.911C124.756 130.829 124.854 130.764 124.961 130.72C125.067 130.675 125.182 130.652 125.298 130.652Z" fill="white"/>
<path opacity="0.4" fill-rule="evenodd" clip-rule="evenodd" d="M96.8417 126.882C97.017 126.882 97.1886 126.933 97.3348 127.03C97.4809 127.127 97.5951 127.265 97.6627 127.427C97.7304 127.589 97.7485 127.767 97.7148 127.94C97.6812 128.112 97.5972 128.27 97.4735 128.395C97.3498 128.519 97.1921 128.604 97.0202 128.639C96.8483 128.673 96.6701 128.656 96.508 128.589C96.346 128.522 96.2075 128.408 96.11 128.262C96.0125 128.116 95.9605 127.945 95.9604 127.769C95.9604 127.535 96.0532 127.31 96.2183 127.144C96.3835 126.977 96.6076 126.884 96.8417 126.882Z" fill="white"/>
<path opacity="0.4" fill-rule="evenodd" clip-rule="evenodd" d="M102.02 126.882C102.195 126.882 102.367 126.933 102.513 127.03C102.659 127.127 102.773 127.265 102.841 127.427C102.909 127.589 102.927 127.767 102.893 127.94C102.859 128.112 102.775 128.27 102.652 128.395C102.528 128.519 102.37 128.604 102.198 128.639C102.027 128.673 101.848 128.656 101.686 128.589C101.524 128.522 101.386 128.408 101.288 128.262C101.191 128.116 101.139 127.945 101.139 127.769C101.139 127.535 101.231 127.31 101.397 127.144C101.562 126.977 101.786 126.884 102.02 126.882Z" fill="white"/>
<path opacity="0.4" fill-rule="evenodd" clip-rule="evenodd" d="M107.194 126.882C107.37 126.882 107.541 126.933 107.687 127.03C107.833 127.127 107.948 127.265 108.015 127.427C108.083 127.589 108.101 127.767 108.067 127.94C108.034 128.112 107.95 128.27 107.826 128.395C107.702 128.519 107.545 128.604 107.373 128.639C107.201 128.673 107.023 128.656 106.861 128.589C106.699 128.522 106.56 128.408 106.463 128.262C106.365 128.116 106.313 127.945 106.313 127.769C106.313 127.535 106.406 127.31 106.571 127.144C106.736 126.977 106.96 126.884 107.194 126.882Z" fill="white"/>
<path opacity="0.4" fill-rule="evenodd" clip-rule="evenodd" d="M112.369 126.882C112.544 126.882 112.715 126.933 112.862 127.03C113.008 127.127 113.122 127.265 113.19 127.427C113.257 127.589 113.275 127.767 113.242 127.94C113.208 128.112 113.124 128.27 113 128.395C112.877 128.519 112.719 128.604 112.547 128.639C112.375 128.673 112.197 128.656 112.035 128.589C111.873 128.522 111.734 128.408 111.637 128.262C111.539 128.116 111.487 127.945 111.487 127.769C111.488 127.535 111.581 127.311 111.746 127.145C111.911 126.979 112.135 126.885 112.369 126.882Z" fill="white"/>
<path opacity="0.4" fill-rule="evenodd" clip-rule="evenodd" d="M117.547 126.882C117.722 126.882 117.894 126.933 118.04 127.03C118.186 127.127 118.3 127.265 118.368 127.427C118.435 127.589 118.454 127.767 118.42 127.94C118.386 128.112 118.302 128.27 118.179 128.395C118.055 128.519 117.897 128.604 117.725 128.639C117.553 128.673 117.375 128.656 117.213 128.589C117.051 128.522 116.913 128.408 116.815 128.262C116.718 128.116 116.666 127.945 116.666 127.769C116.666 127.535 116.758 127.31 116.923 127.144C117.089 126.977 117.313 126.884 117.547 126.882Z" fill="white"/>
<path opacity="0.4" fill-rule="evenodd" clip-rule="evenodd" d="M122.721 126.882C122.896 126.882 123.068 126.933 123.214 127.03C123.36 127.127 123.474 127.265 123.542 127.427C123.61 127.589 123.628 127.767 123.594 127.94C123.561 128.112 123.477 128.27 123.353 128.395C123.229 128.519 123.071 128.604 122.9 128.639C122.728 128.673 122.549 128.656 122.387 128.589C122.225 128.522 122.087 128.408 121.989 128.262C121.892 128.116 121.84 127.945 121.84 127.769C121.84 127.535 121.933 127.31 122.098 127.144C122.263 126.977 122.487 126.884 122.721 126.882Z" fill="white"/>
<path opacity="0.4" fill-rule="evenodd" clip-rule="evenodd" d="M94.2441 122.995C94.4194 122.994 94.591 123.045 94.7371 123.142C94.8833 123.239 94.9974 123.377 95.0651 123.539C95.1328 123.701 95.1509 123.88 95.1172 124.052C95.0835 124.224 94.9995 124.383 94.8758 124.507C94.7522 124.632 94.5944 124.717 94.4225 124.751C94.2507 124.786 94.0724 124.768 93.9104 124.701C93.7483 124.634 93.6098 124.521 93.5123 124.375C93.4149 124.229 93.3628 124.057 93.3628 123.882C93.3623 123.765 93.3846 123.65 93.4287 123.543C93.4727 123.435 93.5375 123.337 93.6194 123.255C93.7013 123.172 93.7987 123.107 93.9059 123.062C94.013 123.018 94.128 122.995 94.2441 122.995Z" fill="white"/>
<path opacity="0.4" fill-rule="evenodd" clip-rule="evenodd" d="M99.4311 122.995C99.6064 122.994 99.778 123.045 99.9241 123.142C100.07 123.239 100.184 123.377 100.252 123.539C100.32 123.701 100.338 123.88 100.304 124.052C100.271 124.224 100.187 124.383 100.063 124.507C99.9392 124.632 99.7814 124.717 99.6096 124.751C99.4377 124.786 99.2594 124.768 99.0974 124.701C98.9353 124.634 98.7968 124.521 98.6993 124.375C98.6018 124.229 98.5498 124.057 98.5498 123.882C98.5493 123.765 98.5716 123.65 98.6157 123.543C98.6597 123.435 98.7245 123.337 98.8064 123.255C98.8883 123.172 98.9857 123.107 99.0929 123.062C99.2 123.018 99.315 122.995 99.4311 122.995Z" fill="white"/>
<path opacity="0.4" fill-rule="evenodd" clip-rule="evenodd" d="M104.605 122.995C104.78 122.994 104.952 123.045 105.098 123.142C105.244 123.239 105.358 123.377 105.426 123.539C105.494 123.701 105.512 123.88 105.478 124.052C105.444 124.224 105.36 124.383 105.237 124.507C105.113 124.632 104.955 124.717 104.783 124.751C104.612 124.786 104.433 124.768 104.271 124.701C104.109 124.634 103.971 124.521 103.873 124.375C103.776 124.229 103.724 124.057 103.724 123.882C103.724 123.647 103.816 123.422 103.981 123.256C104.147 123.09 104.371 122.996 104.605 122.995Z" fill="white"/>
<path opacity="0.4" fill-rule="evenodd" clip-rule="evenodd" d="M109.771 122.995C109.946 122.994 110.118 123.045 110.264 123.142C110.41 123.239 110.524 123.377 110.592 123.539C110.66 123.701 110.678 123.88 110.644 124.052C110.61 124.224 110.526 124.383 110.403 124.507C110.279 124.632 110.121 124.717 109.949 124.751C109.778 124.786 109.599 124.768 109.437 124.701C109.275 124.634 109.137 124.521 109.039 124.375C108.942 124.229 108.89 124.057 108.89 123.882C108.889 123.765 108.911 123.65 108.956 123.543C109 123.435 109.064 123.337 109.146 123.255C109.228 123.172 109.326 123.107 109.433 123.062C109.54 123.018 109.655 122.995 109.771 122.995Z" fill="white"/>
<path opacity="0.4" fill-rule="evenodd" clip-rule="evenodd" d="M114.958 122.995C115.133 122.994 115.305 123.045 115.451 123.142C115.597 123.239 115.711 123.377 115.779 123.539C115.847 123.701 115.865 123.88 115.831 124.052C115.797 124.224 115.713 124.383 115.59 124.507C115.466 124.632 115.308 124.717 115.136 124.751C114.965 124.786 114.786 124.768 114.624 124.701C114.462 124.634 114.324 124.521 114.226 124.375C114.129 124.229 114.077 124.057 114.077 123.882C114.076 123.765 114.098 123.65 114.143 123.543C114.187 123.435 114.251 123.337 114.333 123.255C114.415 123.172 114.513 123.107 114.62 123.062C114.727 123.018 114.842 122.995 114.958 122.995Z" fill="white"/>
<path opacity="0.4" fill-rule="evenodd" clip-rule="evenodd" d="M120.132 122.995C120.307 122.994 120.479 123.045 120.625 123.142C120.771 123.239 120.885 123.377 120.953 123.539C121.02 123.701 121.039 123.88 121.005 124.052C120.971 124.224 120.887 124.383 120.764 124.507C120.64 124.632 120.482 124.717 120.31 124.751C120.138 124.786 119.96 124.768 119.798 124.701C119.636 124.634 119.497 124.521 119.4 124.375C119.303 124.229 119.25 124.057 119.25 123.882C119.25 123.647 119.343 123.422 119.508 123.256C119.673 123.09 119.898 122.996 120.132 122.995Z" fill="white"/>
<path opacity="0.4" fill-rule="evenodd" clip-rule="evenodd" d="M125.298 122.995C125.473 122.994 125.645 123.045 125.791 123.142C125.937 123.239 126.051 123.377 126.119 123.539C126.186 123.701 126.205 123.88 126.171 124.052C126.137 124.224 126.053 124.383 125.93 124.507C125.806 124.632 125.648 124.717 125.476 124.751C125.304 124.786 125.126 124.768 124.964 124.701C124.802 124.634 124.664 124.521 124.566 124.375C124.469 124.229 124.417 124.057 124.417 123.882C124.416 123.765 124.438 123.65 124.482 123.543C124.526 123.435 124.591 123.337 124.673 123.255C124.755 123.172 124.852 123.107 124.96 123.062C125.067 123.018 125.182 122.995 125.298 122.995Z" fill="white"/>
<path opacity="0.4" fill-rule="evenodd" clip-rule="evenodd" d="M96.8417 119.229C97.016 119.229 97.1864 119.281 97.3313 119.378C97.4762 119.475 97.5892 119.613 97.6559 119.774C97.7226 119.935 97.74 120.113 97.706 120.284C97.672 120.455 97.5881 120.612 97.4648 120.736C97.3416 120.859 97.1846 120.943 97.0136 120.977C96.8427 121.011 96.6655 120.994 96.5045 120.927C96.3434 120.86 96.2058 120.747 96.109 120.602C96.0121 120.457 95.9604 120.286 95.9604 120.112C95.9604 119.878 96.0533 119.653 96.2186 119.488C96.3838 119.322 96.608 119.229 96.8417 119.229Z" fill="white"/>
<path opacity="0.4" fill-rule="evenodd" clip-rule="evenodd" d="M102.02 119.229C102.194 119.229 102.365 119.281 102.51 119.378C102.654 119.475 102.767 119.613 102.834 119.774C102.901 119.935 102.918 120.113 102.884 120.284C102.85 120.455 102.766 120.612 102.643 120.736C102.52 120.859 102.363 120.943 102.192 120.977C102.021 121.011 101.844 120.994 101.683 120.927C101.522 120.86 101.384 120.747 101.287 120.602C101.19 120.457 101.139 120.286 101.139 120.112C101.139 119.878 101.232 119.653 101.397 119.488C101.562 119.322 101.786 119.229 102.02 119.229Z" fill="white"/>
<path opacity="0.4" fill-rule="evenodd" clip-rule="evenodd" d="M107.194 119.229C107.369 119.229 107.539 119.281 107.684 119.378C107.829 119.475 107.942 119.613 108.008 119.774C108.075 119.935 108.093 120.113 108.059 120.284C108.025 120.455 107.941 120.612 107.817 120.736C107.694 120.859 107.537 120.943 107.366 120.977C107.195 121.011 107.018 120.994 106.857 120.927C106.696 120.86 106.558 120.747 106.462 120.602C106.365 120.457 106.313 120.286 106.313 120.112C106.313 119.878 106.406 119.653 106.571 119.488C106.736 119.322 106.961 119.229 107.194 119.229Z" fill="white"/>
<path opacity="0.4" fill-rule="evenodd" clip-rule="evenodd" d="M112.369 119.229C112.543 119.229 112.713 119.281 112.858 119.378C113.003 119.475 113.116 119.613 113.183 119.774C113.249 119.935 113.267 120.113 113.233 120.284C113.199 120.455 113.115 120.612 112.992 120.736C112.868 120.859 112.711 120.943 112.54 120.977C112.37 121.011 112.192 120.994 112.031 120.927C111.87 120.86 111.733 120.747 111.636 120.602C111.539 120.457 111.487 120.286 111.487 120.112C111.488 119.878 111.582 119.654 111.747 119.489C111.912 119.324 112.135 119.23 112.369 119.229Z" fill="white"/>
<path opacity="0.4" fill-rule="evenodd" clip-rule="evenodd" d="M117.547 119.229C117.721 119.229 117.891 119.281 118.036 119.378C118.181 119.475 118.294 119.613 118.361 119.774C118.428 119.935 118.445 120.113 118.411 120.284C118.377 120.455 118.293 120.612 118.17 120.736C118.047 120.859 117.89 120.943 117.719 120.977C117.548 121.011 117.371 120.994 117.21 120.927C117.049 120.86 116.911 120.747 116.814 120.602C116.717 120.457 116.666 120.286 116.666 120.112C116.666 119.878 116.758 119.653 116.924 119.488C117.089 119.322 117.313 119.229 117.547 119.229Z" fill="white"/>
<path opacity="0.4" fill-rule="evenodd" clip-rule="evenodd" d="M122.721 119.229C122.895 119.229 123.066 119.281 123.211 119.378C123.356 119.475 123.469 119.613 123.535 119.774C123.602 119.935 123.619 120.113 123.585 120.284C123.551 120.455 123.467 120.612 123.344 120.736C123.221 120.859 123.064 120.943 122.893 120.977C122.722 121.011 122.545 120.994 122.384 120.927C122.223 120.86 122.085 120.747 121.988 120.602C121.892 120.457 121.84 120.286 121.84 120.112C121.84 119.878 121.933 119.653 122.098 119.488C122.263 119.322 122.487 119.229 122.721 119.229Z" fill="white"/>
<path opacity="0.4" fill-rule="evenodd" clip-rule="evenodd" d="M94.244 115.342C94.4183 115.342 94.5887 115.393 94.7336 115.49C94.8786 115.587 94.9915 115.725 95.0582 115.886C95.1249 116.048 95.1424 116.225 95.1084 116.396C95.0744 116.568 94.9904 116.725 94.8672 116.848C94.7439 116.972 94.5869 117.056 94.416 117.09C94.245 117.124 94.0678 117.106 93.9068 117.04C93.7458 116.973 93.6081 116.86 93.5113 116.714C93.4145 116.569 93.3628 116.399 93.3628 116.224C93.3628 116.108 93.3856 115.993 93.4299 115.886C93.4742 115.779 93.5391 115.682 93.6209 115.6C93.7027 115.518 93.7999 115.453 93.9068 115.409C94.0137 115.364 94.1283 115.342 94.244 115.342Z" fill="white"/>
<path opacity="0.4" fill-rule="evenodd" clip-rule="evenodd" d="M99.431 115.342C99.6053 115.342 99.7757 115.393 99.9207 115.49C100.066 115.587 100.179 115.725 100.245 115.886C100.312 116.048 100.329 116.225 100.295 116.396C100.261 116.568 100.177 116.725 100.054 116.848C99.9309 116.972 99.7739 117.056 99.603 117.09C99.432 117.124 99.2548 117.106 99.0938 117.04C98.9328 116.973 98.7952 116.86 98.6983 116.714C98.6015 116.569 98.5498 116.399 98.5498 116.224C98.5498 116.108 98.5726 115.993 98.6169 115.886C98.6612 115.779 98.7261 115.682 98.8079 115.6C98.8897 115.518 98.9869 115.453 99.0938 115.409C99.2007 115.364 99.3153 115.342 99.431 115.342Z" fill="white"/>
<path opacity="0.4" fill-rule="evenodd" clip-rule="evenodd" d="M104.605 115.342C104.779 115.342 104.95 115.393 105.094 115.49C105.239 115.587 105.352 115.725 105.419 115.886C105.486 116.048 105.503 116.225 105.469 116.396C105.435 116.568 105.351 116.725 105.228 116.848C105.105 116.972 104.948 117.056 104.777 117.09C104.606 117.124 104.429 117.106 104.268 117.04C104.107 116.973 103.969 116.86 103.872 116.714C103.775 116.569 103.724 116.399 103.724 116.224C103.725 115.99 103.818 115.767 103.983 115.601C104.148 115.436 104.372 115.343 104.605 115.342Z" fill="white"/>
<path opacity="0.4" fill-rule="evenodd" clip-rule="evenodd" d="M109.771 115.342C109.945 115.342 110.116 115.393 110.26 115.49C110.405 115.587 110.518 115.725 110.585 115.886C110.652 116.048 110.669 116.225 110.635 116.396C110.601 116.568 110.517 116.725 110.394 116.848C110.271 116.972 110.114 117.056 109.943 117.09C109.772 117.124 109.595 117.106 109.434 117.04C109.273 116.973 109.135 116.86 109.038 116.714C108.941 116.569 108.89 116.399 108.89 116.224C108.89 116.108 108.912 115.993 108.957 115.886C109.001 115.779 109.066 115.682 109.148 115.6C109.23 115.518 109.327 115.453 109.434 115.409C109.541 115.364 109.655 115.342 109.771 115.342Z" fill="white"/>
<path opacity="0.4" fill-rule="evenodd" clip-rule="evenodd" d="M114.958 115.342C115.132 115.342 115.303 115.393 115.448 115.49C115.592 115.587 115.705 115.725 115.772 115.886C115.839 116.048 115.856 116.225 115.822 116.396C115.788 116.568 115.704 116.725 115.581 116.848C115.458 116.972 115.301 117.056 115.13 117.09C114.959 117.124 114.782 117.106 114.621 117.04C114.46 116.973 114.322 116.86 114.225 116.714C114.128 116.569 114.077 116.399 114.077 116.224C114.077 116.108 114.099 115.993 114.144 115.886C114.188 115.779 114.253 115.682 114.335 115.6C114.417 115.518 114.514 115.453 114.621 115.409C114.728 115.364 114.842 115.342 114.958 115.342Z" fill="white"/>
<path opacity="0.4" fill-rule="evenodd" clip-rule="evenodd" d="M120.132 115.342C120.306 115.342 120.476 115.393 120.621 115.49C120.766 115.587 120.879 115.725 120.946 115.886C121.013 116.048 121.03 116.225 120.996 116.396C120.962 116.568 120.878 116.725 120.755 116.848C120.632 116.972 120.475 117.056 120.304 117.09C120.133 117.124 119.956 117.106 119.794 117.04C119.633 116.973 119.496 116.86 119.399 116.714C119.302 116.569 119.25 116.399 119.25 116.224C119.252 115.99 119.345 115.767 119.51 115.601C119.675 115.436 119.898 115.343 120.132 115.342Z" fill="white"/>
<path opacity="0.4" fill-rule="evenodd" clip-rule="evenodd" d="M125.298 115.342C125.472 115.342 125.642 115.393 125.787 115.49C125.932 115.587 126.045 115.725 126.112 115.886C126.179 116.048 126.196 116.225 126.162 116.396C126.128 116.568 126.044 116.725 125.921 116.848C125.798 116.972 125.641 117.056 125.47 117.09C125.299 117.124 125.122 117.106 124.961 117.04C124.799 116.973 124.662 116.86 124.565 116.714C124.468 116.569 124.417 116.399 124.417 116.224C124.417 116.108 124.439 115.993 124.484 115.886C124.528 115.779 124.593 115.682 124.675 115.6C124.756 115.518 124.854 115.453 124.961 115.409C125.067 115.364 125.182 115.342 125.298 115.342Z" fill="white"/>
<path opacity="0.4" fill-rule="evenodd" clip-rule="evenodd" d="M96.8417 111.572C97.0172 111.571 97.189 111.622 97.3352 111.719C97.4815 111.816 97.5956 111.955 97.6632 112.117C97.7307 112.279 97.7486 112.458 97.7145 112.63C97.6805 112.803 97.5961 112.961 97.472 113.085C97.3479 113.21 97.1898 113.294 97.0176 113.328C96.8455 113.362 96.6671 113.345 96.5051 113.277C96.3432 113.209 96.2049 113.095 96.1079 112.948C96.011 112.802 95.9596 112.63 95.9605 112.454C95.9605 112.22 96.0533 111.996 96.2186 111.83C96.3838 111.665 96.608 111.572 96.8417 111.572Z" fill="white"/>
<path opacity="0.4" fill-rule="evenodd" clip-rule="evenodd" d="M102.02 111.572C102.195 111.571 102.367 111.622 102.513 111.719C102.66 111.816 102.774 111.955 102.841 112.117C102.909 112.279 102.927 112.458 102.893 112.63C102.859 112.803 102.774 112.961 102.65 113.085C102.526 113.21 102.368 113.294 102.196 113.328C102.024 113.362 101.845 113.345 101.683 113.277C101.521 113.209 101.383 113.095 101.286 112.948C101.189 112.802 101.138 112.63 101.139 112.454C101.139 112.22 101.232 111.996 101.397 111.83C101.562 111.665 101.786 111.572 102.02 111.572Z" fill="white"/>
<path opacity="0.4" fill-rule="evenodd" clip-rule="evenodd" d="M107.194 111.572C107.37 111.571 107.542 111.622 107.688 111.719C107.834 111.816 107.948 111.955 108.016 112.117C108.083 112.279 108.101 112.458 108.067 112.63C108.033 112.803 107.949 112.961 107.825 113.085C107.7 113.21 107.542 113.294 107.37 113.328C107.198 113.362 107.02 113.345 106.858 113.277C106.696 113.209 106.557 113.095 106.46 112.948C106.363 112.802 106.312 112.63 106.313 112.454C106.313 112.22 106.406 111.996 106.571 111.83C106.736 111.665 106.961 111.572 107.194 111.572Z" fill="white"/>
<path opacity="0.4" fill-rule="evenodd" clip-rule="evenodd" d="M112.369 111.572C112.544 111.571 112.716 111.622 112.862 111.719C113.008 111.816 113.122 111.955 113.19 112.117C113.258 112.279 113.275 112.458 113.241 112.63C113.207 112.803 113.123 112.961 112.999 113.085C112.875 113.21 112.717 113.294 112.544 113.328C112.372 113.362 112.194 113.345 112.032 113.277C111.87 113.209 111.732 113.095 111.635 112.948C111.538 112.802 111.486 112.63 111.487 112.454C111.488 112.22 111.582 111.997 111.747 111.831C111.912 111.666 112.135 111.573 112.369 111.572Z" fill="white"/>
<path opacity="0.4" fill-rule="evenodd" clip-rule="evenodd" d="M117.547 111.572C117.722 111.571 117.894 111.622 118.04 111.719C118.187 111.816 118.301 111.955 118.368 112.117C118.436 112.279 118.454 112.458 118.42 112.63C118.386 112.803 118.301 112.961 118.177 113.085C118.053 113.21 117.895 113.294 117.723 113.328C117.551 113.362 117.372 113.345 117.21 113.277C117.048 113.209 116.91 113.095 116.813 112.948C116.716 112.802 116.665 112.63 116.666 112.454C116.666 112.22 116.758 111.996 116.924 111.83C117.089 111.665 117.313 111.572 117.547 111.572Z" fill="white"/>
<path opacity="0.4" fill-rule="evenodd" clip-rule="evenodd" d="M122.721 111.572C122.897 111.571 123.068 111.622 123.215 111.719C123.361 111.816 123.475 111.955 123.543 112.117C123.61 112.279 123.628 112.458 123.594 112.63C123.56 112.803 123.475 112.961 123.351 113.085C123.227 113.21 123.069 113.294 122.897 113.328C122.725 113.362 122.546 113.345 122.385 113.277C122.223 113.209 122.084 113.095 121.987 112.948C121.89 112.802 121.839 112.63 121.84 112.454C121.84 112.22 121.933 111.996 122.098 111.83C122.263 111.665 122.487 111.572 122.721 111.572Z" fill="white"/>
<path opacity="0.4" fill-rule="evenodd" clip-rule="evenodd" d="M94.2441 107.684C94.4195 107.683 94.5913 107.735 94.7376 107.832C94.8838 107.929 94.998 108.067 95.0655 108.23C95.133 108.392 95.1509 108.57 95.1169 108.743C95.0829 108.915 94.9984 109.074 94.8744 109.198C94.7503 109.322 94.5921 109.407 94.42 109.441C94.2478 109.475 94.0694 109.457 93.9075 109.389C93.7455 109.322 93.6073 109.207 93.5103 109.061C93.4133 108.914 93.362 108.742 93.3628 108.567C93.3628 108.451 93.3856 108.336 93.4299 108.229C93.4742 108.122 93.5391 108.025 93.6209 107.943C93.7028 107.861 93.7999 107.796 93.9068 107.751C94.0137 107.707 94.1283 107.684 94.2441 107.684Z" fill="white"/>
<path opacity="0.4" fill-rule="evenodd" clip-rule="evenodd" d="M99.4311 107.684C99.6065 107.683 99.7783 107.735 99.9246 107.832C100.071 107.929 100.185 108.067 100.252 108.23C100.32 108.392 100.338 108.57 100.304 108.743C100.27 108.915 100.185 109.074 100.061 109.198C99.9373 109.322 99.7791 109.407 99.607 109.441C99.4348 109.475 99.2564 109.457 99.0945 109.389C98.9325 109.322 98.7943 109.207 98.6973 109.061C98.6003 108.914 98.549 108.742 98.5498 108.567C98.5498 108.451 98.5726 108.336 98.6169 108.229C98.6612 108.122 98.7261 108.025 98.8079 107.943C98.8897 107.861 98.9869 107.796 99.0938 107.751C99.2007 107.707 99.3153 107.684 99.4311 107.684Z" fill="white"/>
<path opacity="0.4" fill-rule="evenodd" clip-rule="evenodd" d="M104.605 107.684C104.78 107.683 104.952 107.735 105.098 107.832C105.245 107.929 105.359 108.067 105.426 108.23C105.494 108.392 105.512 108.57 105.478 108.743C105.444 108.915 105.359 109.074 105.235 109.198C105.111 109.322 104.953 109.407 104.781 109.441C104.609 109.475 104.43 109.457 104.268 109.389C104.106 109.322 103.968 109.207 103.871 109.061C103.774 108.914 103.723 108.742 103.724 108.567C103.725 108.333 103.818 108.109 103.983 107.944C104.148 107.778 104.372 107.685 104.605 107.684Z" fill="white"/>
<path opacity="0.4" fill-rule="evenodd" clip-rule="evenodd" d="M109.771 107.684C109.946 107.683 110.118 107.735 110.264 107.832C110.411 107.929 110.525 108.067 110.592 108.23C110.66 108.392 110.678 108.57 110.644 108.743C110.61 108.915 110.525 109.074 110.401 109.198C110.277 109.322 110.119 109.407 109.947 109.441C109.775 109.475 109.596 109.457 109.434 109.389C109.272 109.322 109.134 109.207 109.037 109.061C108.94 108.914 108.889 108.742 108.89 108.567C108.89 108.333 108.983 108.108 109.148 107.943C109.313 107.777 109.537 107.684 109.771 107.684Z" fill="white"/>
<path opacity="0.4" fill-rule="evenodd" clip-rule="evenodd" d="M114.958 107.684C115.133 107.683 115.305 107.735 115.451 107.832C115.598 107.929 115.712 108.067 115.779 108.23C115.847 108.392 115.865 108.57 115.831 108.743C115.797 108.915 115.712 109.074 115.588 109.198C115.464 109.322 115.306 109.407 115.134 109.441C114.962 109.475 114.783 109.457 114.621 109.389C114.459 109.322 114.321 109.207 114.224 109.061C114.127 108.914 114.076 108.742 114.077 108.567C114.077 108.333 114.17 108.108 114.335 107.943C114.5 107.777 114.724 107.684 114.958 107.684Z" fill="white"/>
<path opacity="0.4" fill-rule="evenodd" clip-rule="evenodd" d="M120.132 107.684C120.307 107.683 120.479 107.735 120.625 107.832C120.772 107.929 120.886 108.067 120.953 108.23C121.021 108.392 121.039 108.57 121.005 108.743C120.971 108.915 120.886 109.074 120.762 109.198C120.638 109.322 120.48 109.407 120.308 109.441C120.136 109.475 119.957 109.457 119.795 109.389C119.633 109.322 119.495 109.207 119.398 109.061C119.301 108.914 119.25 108.742 119.25 108.567C119.252 108.333 119.345 108.109 119.51 107.944C119.675 107.778 119.898 107.685 120.132 107.684Z" fill="white"/>
<path opacity="0.4" fill-rule="evenodd" clip-rule="evenodd" d="M125.298 107.684C125.473 107.683 125.645 107.735 125.791 107.832C125.938 107.929 126.052 108.067 126.119 108.23C126.187 108.392 126.205 108.57 126.171 108.743C126.137 108.915 126.052 109.074 125.928 109.198C125.804 109.322 125.646 109.407 125.474 109.441C125.302 109.475 125.123 109.457 124.961 109.389C124.799 109.322 124.661 109.207 124.564 109.061C124.467 108.914 124.416 108.742 124.417 108.567C124.417 108.451 124.439 108.336 124.484 108.229C124.528 108.122 124.593 108.025 124.675 107.943C124.756 107.861 124.854 107.796 124.961 107.751C125.067 107.707 125.182 107.684 125.298 107.684Z" fill="white"/>
<path opacity="0.4" fill-rule="evenodd" clip-rule="evenodd" d="M96.8417 103.918C97.016 103.918 97.1864 103.97 97.3313 104.067C97.4762 104.164 97.5892 104.302 97.6559 104.463C97.7226 104.624 97.74 104.802 97.706 104.973C97.672 105.144 97.5881 105.302 97.4648 105.425C97.3416 105.548 97.1846 105.633 97.0136 105.667C96.8427 105.701 96.6655 105.683 96.5045 105.616C96.3434 105.55 96.2058 105.436 96.109 105.291C96.0121 105.146 95.9604 104.975 95.9604 104.801C95.9604 104.567 96.0533 104.342 96.2186 104.177C96.3838 104.011 96.608 103.918 96.8417 103.918Z" fill="white"/>
<path opacity="0.4" fill-rule="evenodd" clip-rule="evenodd" d="M102.02 103.918C102.194 103.918 102.365 103.97 102.51 104.067C102.654 104.164 102.767 104.302 102.834 104.463C102.901 104.624 102.918 104.802 102.884 104.973C102.85 105.144 102.766 105.302 102.643 105.425C102.52 105.548 102.363 105.633 102.192 105.667C102.021 105.701 101.844 105.683 101.683 105.616C101.522 105.55 101.384 105.436 101.287 105.291C101.19 105.146 101.139 104.975 101.139 104.801C101.139 104.567 101.232 104.342 101.397 104.177C101.562 104.011 101.786 103.918 102.02 103.918Z" fill="white"/>
<path opacity="0.4" fill-rule="evenodd" clip-rule="evenodd" d="M107.194 103.918C107.369 103.918 107.539 103.97 107.684 104.067C107.829 104.164 107.942 104.302 108.008 104.463C108.075 104.624 108.093 104.802 108.059 104.973C108.025 105.144 107.941 105.302 107.817 105.425C107.694 105.548 107.537 105.633 107.366 105.667C107.195 105.701 107.018 105.683 106.857 105.616C106.696 105.55 106.558 105.436 106.462 105.291C106.365 105.146 106.313 104.975 106.313 104.801C106.313 104.567 106.406 104.342 106.571 104.177C106.736 104.011 106.961 103.918 107.194 103.918Z" fill="white"/>
<path opacity="0.4" fill-rule="evenodd" clip-rule="evenodd" d="M112.369 103.918C112.543 103.918 112.713 103.97 112.858 104.067C113.003 104.164 113.116 104.302 113.183 104.463C113.249 104.624 113.267 104.802 113.233 104.973C113.199 105.144 113.115 105.302 112.992 105.425C112.868 105.548 112.711 105.633 112.54 105.667C112.37 105.701 112.192 105.683 112.031 105.616C111.87 105.55 111.733 105.436 111.636 105.291C111.539 105.146 111.487 104.975 111.487 104.801C111.488 104.567 111.582 104.343 111.747 104.178C111.912 104.013 112.135 103.919 112.369 103.918Z" fill="white"/>
<path opacity="0.4" d="M117.543 105.684C118.03 105.684 118.424 105.288 118.424 104.801C118.424 104.314 118.03 103.918 117.543 103.918C117.056 103.918 116.662 104.314 116.662 104.801C116.662 105.288 117.056 105.684 117.543 105.684Z" fill="white"/>
<path opacity="0.4" fill-rule="evenodd" clip-rule="evenodd" d="M122.721 103.918C122.895 103.918 123.066 103.97 123.211 104.067C123.356 104.164 123.469 104.302 123.535 104.463C123.602 104.624 123.619 104.802 123.585 104.973C123.551 105.144 123.467 105.302 123.344 105.425C123.221 105.548 123.064 105.633 122.893 105.667C122.722 105.701 122.545 105.683 122.384 105.616C122.223 105.55 122.085 105.436 121.988 105.291C121.892 105.146 121.84 104.975 121.84 104.801C121.84 104.567 121.933 104.342 122.098 104.177C122.263 104.011 122.487 103.918 122.721 103.918Z" fill="white"/>
<path opacity="0.4" fill-rule="evenodd" clip-rule="evenodd" d="M94.244 100.031C94.4183 100.031 94.5887 100.083 94.7336 100.18C94.8786 100.276 94.9915 100.414 95.0582 100.576C95.1249 100.737 95.1424 100.914 95.1084 101.086C95.0744 101.257 94.9904 101.414 94.8672 101.537C94.7439 101.661 94.5869 101.745 94.416 101.779C94.245 101.813 94.0678 101.796 93.9068 101.729C93.7458 101.662 93.6081 101.549 93.5113 101.404C93.4145 101.259 93.3628 101.088 93.3628 100.913C93.3628 100.797 93.3856 100.683 93.4299 100.576C93.4742 100.469 93.5391 100.371 93.6209 100.289C93.7027 100.207 93.7999 100.142 93.9068 100.098C94.0137 100.054 94.1283 100.031 94.244 100.031Z" fill="white"/>
<path opacity="0.4" fill-rule="evenodd" clip-rule="evenodd" d="M99.431 100.031C99.6053 100.031 99.7757 100.083 99.9207 100.18C100.066 100.276 100.179 100.414 100.245 100.576C100.312 100.737 100.329 100.914 100.295 101.086C100.261 101.257 100.177 101.414 100.054 101.537C99.9309 101.661 99.7739 101.745 99.603 101.779C99.432 101.813 99.2548 101.796 99.0938 101.729C98.9328 101.662 98.7952 101.549 98.6983 101.404C98.6015 101.259 98.5498 101.088 98.5498 100.913C98.5498 100.797 98.5726 100.683 98.6169 100.576C98.6612 100.469 98.7261 100.371 98.8079 100.289C98.8897 100.207 98.9869 100.142 99.0938 100.098C99.2007 100.054 99.3153 100.031 99.431 100.031Z" fill="white"/>
<path opacity="0.4" fill-rule="evenodd" clip-rule="evenodd" d="M104.605 100.031C104.779 100.031 104.95 100.083 105.094 100.18C105.239 100.276 105.352 100.414 105.419 100.576C105.486 100.737 105.503 100.914 105.469 101.086C105.435 101.257 105.351 101.414 105.228 101.537C105.105 101.661 104.948 101.745 104.777 101.779C104.606 101.813 104.429 101.796 104.268 101.729C104.107 101.662 103.969 101.549 103.872 101.404C103.775 101.259 103.724 101.088 103.724 100.913C103.725 100.68 103.818 100.456 103.983 100.29C104.148 100.125 104.372 100.032 104.605 100.031Z" fill="white"/>
<path opacity="0.4" fill-rule="evenodd" clip-rule="evenodd" d="M109.771 100.031C109.945 100.031 110.116 100.083 110.26 100.18C110.405 100.276 110.518 100.414 110.585 100.576C110.652 100.737 110.669 100.914 110.635 101.086C110.601 101.257 110.517 101.414 110.394 101.537C110.271 101.661 110.114 101.745 109.943 101.779C109.772 101.813 109.595 101.796 109.434 101.729C109.273 101.662 109.135 101.549 109.038 101.404C108.941 101.259 108.89 101.088 108.89 100.913C108.89 100.797 108.912 100.683 108.957 100.576C109.001 100.469 109.066 100.371 109.148 100.289C109.23 100.207 109.327 100.142 109.434 100.098C109.541 100.054 109.655 100.031 109.771 100.031Z" fill="white"/>
<path opacity="0.4" fill-rule="evenodd" clip-rule="evenodd" d="M114.958 100.031C115.132 100.031 115.303 100.083 115.448 100.18C115.592 100.276 115.705 100.414 115.772 100.576C115.839 100.737 115.856 100.914 115.822 101.086C115.788 101.257 115.704 101.414 115.581 101.537C115.458 101.661 115.301 101.745 115.13 101.779C114.959 101.813 114.782 101.796 114.621 101.729C114.46 101.662 114.322 101.549 114.225 101.404C114.128 101.259 114.077 101.088 114.077 100.913C114.077 100.797 114.099 100.683 114.144 100.576C114.188 100.469 114.253 100.371 114.335 100.289C114.417 100.207 114.514 100.142 114.621 100.098C114.728 100.054 114.842 100.031 114.958 100.031Z" fill="white"/>
<path opacity="0.4" fill-rule="evenodd" clip-rule="evenodd" d="M120.132 100.031C120.306 100.031 120.476 100.083 120.621 100.18C120.766 100.276 120.879 100.414 120.946 100.576C121.013 100.737 121.03 100.914 120.996 101.086C120.962 101.257 120.878 101.414 120.755 101.537C120.632 101.661 120.475 101.745 120.304 101.779C120.133 101.813 119.956 101.796 119.794 101.729C119.633 101.662 119.496 101.549 119.399 101.404C119.302 101.259 119.25 101.088 119.25 100.913C119.252 100.68 119.345 100.456 119.51 100.29C119.675 100.125 119.898 100.032 120.132 100.031Z" fill="white"/>
<path opacity="0.4" fill-rule="evenodd" clip-rule="evenodd" d="M125.298 100.031C125.472 100.031 125.642 100.083 125.787 100.18C125.932 100.276 126.045 100.414 126.112 100.576C126.179 100.737 126.196 100.914 126.162 101.086C126.128 101.257 126.044 101.414 125.921 101.537C125.798 101.661 125.641 101.745 125.47 101.779C125.299 101.813 125.122 101.796 124.961 101.729C124.799 101.662 124.662 101.549 124.565 101.404C124.468 101.259 124.417 101.088 124.417 100.913C124.417 100.797 124.439 100.683 124.484 100.576C124.528 100.469 124.593 100.371 124.675 100.289C124.756 100.207 124.854 100.142 124.961 100.098C125.067 100.054 125.182 100.031 125.298 100.031Z" fill="white"/>
<path opacity="0.4" fill-rule="evenodd" clip-rule="evenodd" d="M96.8417 96.2608C97.016 96.2608 97.1864 96.3126 97.3313 96.4096C97.4762 96.5066 97.5892 96.6444 97.6559 96.8057C97.7226 96.967 97.74 97.1444 97.706 97.3156C97.672 97.4868 97.5881 97.6441 97.4648 97.7675C97.3416 97.891 97.1846 97.975 97.0136 98.0091C96.8427 98.0431 96.6655 98.0256 96.5045 97.9588C96.3434 97.892 96.2058 97.7789 96.109 97.6338C96.0121 97.4886 95.9604 97.318 95.9604 97.1434C95.9604 96.9094 96.0533 96.6849 96.2186 96.5194C96.3838 96.3538 96.608 96.2608 96.8417 96.2608Z" fill="white"/>
<path opacity="0.4" fill-rule="evenodd" clip-rule="evenodd" d="M102.02 96.2608C102.194 96.2608 102.365 96.3126 102.51 96.4096C102.654 96.5066 102.767 96.6444 102.834 96.8057C102.901 96.967 102.918 97.1444 102.884 97.3156C102.85 97.4868 102.766 97.6441 102.643 97.7675C102.52 97.891 102.363 97.975 102.192 98.0091C102.021 98.0431 101.844 98.0256 101.683 97.9588C101.522 97.892 101.384 97.7789 101.287 97.6338C101.19 97.4886 101.139 97.318 101.139 97.1434C101.139 96.9094 101.232 96.6849 101.397 96.5194C101.562 96.3538 101.786 96.2608 102.02 96.2608Z" fill="white"/>
<path opacity="0.4" fill-rule="evenodd" clip-rule="evenodd" d="M107.194 96.2608C107.369 96.2608 107.539 96.3126 107.684 96.4096C107.829 96.5066 107.942 96.6444 108.008 96.8057C108.075 96.967 108.093 97.1444 108.059 97.3156C108.025 97.4868 107.941 97.6441 107.817 97.7675C107.694 97.891 107.537 97.975 107.366 98.0091C107.195 98.0431 107.018 98.0256 106.857 97.9588C106.696 97.892 106.558 97.7789 106.462 97.6338C106.365 97.4886 106.313 97.318 106.313 97.1434C106.313 96.9094 106.406 96.6849 106.571 96.5194C106.736 96.3538 106.961 96.2608 107.194 96.2608Z" fill="white"/>
<path opacity="0.4" fill-rule="evenodd" clip-rule="evenodd" d="M112.369 96.2608C112.543 96.2608 112.713 96.3126 112.858 96.4096C113.003 96.5066 113.116 96.6444 113.183 96.8057C113.249 96.967 113.267 97.1444 113.233 97.3156C113.199 97.4868 113.115 97.6441 112.992 97.7675C112.868 97.891 112.711 97.975 112.54 98.0091C112.37 98.0431 112.192 98.0256 112.031 97.9588C111.87 97.892 111.733 97.7789 111.636 97.6338C111.539 97.4886 111.487 97.318 111.487 97.1434C111.488 96.9097 111.582 96.6859 111.747 96.5206C111.912 96.3553 112.135 96.262 112.369 96.2608Z" fill="white"/>
<path opacity="0.4" d="M117.543 98.026C118.03 98.026 118.424 97.6309 118.424 97.1434C118.424 96.656 118.03 96.2608 117.543 96.2608C117.056 96.2608 116.662 96.656 116.662 97.1434C116.662 97.6309 117.056 98.026 117.543 98.026Z" fill="white"/>
<path opacity="0.4" fill-rule="evenodd" clip-rule="evenodd" d="M122.721 96.2608C122.895 96.2608 123.066 96.3126 123.211 96.4096C123.356 96.5066 123.469 96.6444 123.535 96.8057C123.602 96.967 123.619 97.1444 123.585 97.3156C123.551 97.4868 123.467 97.6441 123.344 97.7675C123.221 97.891 123.064 97.975 122.893 98.0091C122.722 98.0431 122.545 98.0256 122.384 97.9588C122.223 97.892 122.085 97.7789 121.988 97.6338C121.892 97.4886 121.84 97.318 121.84 97.1434C121.84 96.9094 121.933 96.6849 122.098 96.5194C122.263 96.3538 122.487 96.2608 122.721 96.2608Z" fill="white"/>
<path opacity="0.4" fill-rule="evenodd" clip-rule="evenodd" d="M94.244 92.3607C94.4183 92.3607 94.5887 92.4124 94.7336 92.5094C94.8786 92.6064 94.9915 92.7442 95.0582 92.9055C95.1249 93.0668 95.1424 93.2442 95.1084 93.4154C95.0744 93.5866 94.9904 93.7439 94.8672 93.8673C94.7439 93.9908 94.5869 94.0748 94.416 94.1089C94.245 94.1429 94.0678 94.1255 93.9068 94.0587C93.7458 93.9919 93.6081 93.8787 93.5113 93.7336C93.4145 93.5884 93.3628 93.4178 93.3628 93.2432C93.3628 93.1273 93.3856 93.0126 93.4299 92.9055C93.4742 92.7984 93.5391 92.7011 93.6209 92.6192C93.7027 92.5372 93.7999 92.4722 93.9068 92.4278C94.0137 92.3835 94.1283 92.3607 94.244 92.3607Z" fill="white"/>
<path opacity="0.4" fill-rule="evenodd" clip-rule="evenodd" d="M99.431 92.3607C99.6053 92.3607 99.7757 92.4124 99.9207 92.5094C100.066 92.6064 100.179 92.7442 100.245 92.9055C100.312 93.0668 100.329 93.2442 100.295 93.4154C100.261 93.5866 100.177 93.7439 100.054 93.8673C99.9309 93.9908 99.7739 94.0748 99.603 94.1089C99.432 94.1429 99.2548 94.1255 99.0938 94.0587C98.9328 93.9919 98.7952 93.8787 98.6983 93.7336C98.6015 93.5884 98.5498 93.4178 98.5498 93.2432C98.5498 93.1273 98.5726 93.0126 98.6169 92.9055C98.6612 92.7984 98.7261 92.7011 98.8079 92.6192C98.8897 92.5372 98.9869 92.4722 99.0938 92.4278C99.2007 92.3835 99.3153 92.3607 99.431 92.3607Z" fill="white"/>
<path opacity="0.4" fill-rule="evenodd" clip-rule="evenodd" d="M104.605 92.3607C104.779 92.3607 104.95 92.4124 105.094 92.5094C105.239 92.6064 105.352 92.7442 105.419 92.9055C105.486 93.0668 105.503 93.2442 105.469 93.4154C105.435 93.5866 105.351 93.7439 105.228 93.8673C105.105 93.9908 104.948 94.0748 104.777 94.1089C104.606 94.1429 104.429 94.1255 104.268 94.0587C104.107 93.9919 103.969 93.8787 103.872 93.7336C103.775 93.5884 103.724 93.4178 103.724 93.2432C103.725 93.0095 103.818 92.7857 103.983 92.6204C104.148 92.4551 104.372 92.3618 104.605 92.3607Z" fill="white"/>
<path opacity="0.4" fill-rule="evenodd" clip-rule="evenodd" d="M109.771 92.3607C109.945 92.3607 110.116 92.4124 110.26 92.5094C110.405 92.6064 110.518 92.7442 110.585 92.9055C110.652 93.0668 110.669 93.2442 110.635 93.4154C110.601 93.5866 110.517 93.7439 110.394 93.8673C110.271 93.9908 110.114 94.0748 109.943 94.1089C109.772 94.1429 109.595 94.1255 109.434 94.0587C109.273 93.9919 109.135 93.8787 109.038 93.7336C108.941 93.5884 108.89 93.4178 108.89 93.2432C108.89 93.0092 108.982 92.7847 109.148 92.6192C109.313 92.4536 109.537 92.3607 109.771 92.3607Z" fill="white"/>
<path opacity="0.4" fill-rule="evenodd" clip-rule="evenodd" d="M114.958 92.3607C115.132 92.3607 115.303 92.4124 115.448 92.5094C115.592 92.6064 115.705 92.7442 115.772 92.9055C115.839 93.0668 115.856 93.2442 115.822 93.4154C115.788 93.5866 115.704 93.7439 115.581 93.8673C115.458 93.9908 115.301 94.0748 115.13 94.1089C114.959 94.1429 114.782 94.1255 114.621 94.0587C114.46 93.9919 114.322 93.8787 114.225 93.7336C114.128 93.5884 114.077 93.4178 114.077 93.2432C114.077 93.0092 114.169 92.7847 114.335 92.6192C114.5 92.4536 114.724 92.3607 114.958 92.3607Z" fill="white"/>
<path opacity="0.4" fill-rule="evenodd" clip-rule="evenodd" d="M120.132 92.3607C120.306 92.3607 120.476 92.4124 120.621 92.5094C120.766 92.6064 120.879 92.7442 120.946 92.9055C121.013 93.0668 121.03 93.2442 120.996 93.4154C120.962 93.5866 120.878 93.7439 120.755 93.8673C120.632 93.9908 120.475 94.0748 120.304 94.1089C120.133 94.1429 119.956 94.1255 119.794 94.0587C119.633 93.9919 119.496 93.8787 119.399 93.7336C119.302 93.5884 119.25 93.4178 119.25 93.2432C119.252 93.0095 119.345 92.7857 119.51 92.6204C119.675 92.4551 119.898 92.3618 120.132 92.3607Z" fill="white"/>
<path opacity="0.4" fill-rule="evenodd" clip-rule="evenodd" d="M125.298 92.3607C125.472 92.3607 125.642 92.4124 125.787 92.5094C125.932 92.6064 126.045 92.7442 126.112 92.9055C126.179 93.0668 126.196 93.2442 126.162 93.4154C126.128 93.5866 126.044 93.7439 125.921 93.8673C125.798 93.9908 125.641 94.0748 125.47 94.1089C125.299 94.1429 125.122 94.1255 124.961 94.0587C124.799 93.9919 124.662 93.8787 124.565 93.7336C124.468 93.5884 124.417 93.4178 124.417 93.2432C124.417 93.1273 124.439 93.0126 124.484 92.9055C124.528 92.7984 124.593 92.7011 124.675 92.6192C124.756 92.5372 124.854 92.4722 124.961 92.4278C125.067 92.3835 125.182 92.3607 125.298 92.3607Z" fill="white"/>
</g>
<path fill-rule="evenodd" clip-rule="evenodd" d="M62.1705 54.981C64.6884 61.1843 65.6368 65.7023 66.4341 71.3719C67.0132 75.5159 63.0476 76.2219 60.8906 73.2548C57.311 68.3249 55.4814 63.5883 53.7063 58.1709C51.5955 51.728 59.7492 49.0382 62.1705 54.981Z" fill="url(#paint0_linear_327_595)"/>
<path fill-rule="evenodd" clip-rule="evenodd" d="M59.6189 58.9442C61.3437 62.5166 61.4024 65.799 61.2975 68.6779C61.1926 71.5568 56.0562 69.8295 56.0562 69.8295C56.0562 69.8295 56.4758 61.882 59.6189 58.9442Z" fill="url(#paint1_linear_327_595)"/>
<path fill-rule="evenodd" clip-rule="evenodd" d="M98.8264 58.0701C95.2594 61.1969 89.12 66.8287 86.1573 70.5356C83.7863 73.5069 87.4162 76.0748 90.572 73.9734C95.9644 70.3885 100.786 67.9256 105.545 62.5124C109.615 57.8977 103.157 54.2749 98.8264 58.0701Z" fill="url(#paint2_linear_327_595)"/>
<path fill-rule="evenodd" clip-rule="evenodd" d="M96.4976 70.1489C98.8006 68.5828 100.999 66.8672 103.078 65.0131C102.63 63.0505 101.82 61.1889 100.69 59.5242C98.1426 64.0506 97.0893 66.1646 96.4976 70.1489Z" fill="url(#paint3_linear_327_595)"/>
<path fill-rule="evenodd" clip-rule="evenodd" d="M97.0934 92.6675C94.0006 91.7429 100.803 79.9876 99.8882 77.0499C99.3511 75.3309 97.0221 72.2965 97.3368 69.4848C97.5634 67.4591 98.5957 63.458 100.883 56.826C106.137 55.5231 111.466 54.8129 119.897 57.8767C121.693 67.6062 118.013 72.8597 118.218 80.5172C118.302 83.7701 122.788 89.6457 120.665 91.4234C115.679 95.5716 103.476 94.5882 97.0934 92.6675Z" fill="url(#paint4_linear_327_595)"/>
<path fill-rule="evenodd" clip-rule="evenodd" d="M104.941 55.9939C106.93 55.5274 108.717 55.2836 112.028 55.8215C111.189 58.0995 107.832 61.3524 105.767 62.4956C105.168 60.3821 104.889 58.1904 104.941 55.9939Z" fill="#BA8B80"/>
<path fill-rule="evenodd" clip-rule="evenodd" d="M105.599 49.551L111.256 49.572L111.231 56.3721C111.231 59.1964 105.566 59.0073 105.574 56.3511L105.599 49.551Z" fill="#BA8B80"/>
<path fill-rule="evenodd" clip-rule="evenodd" d="M119.372 70.0312C120.371 73.6246 122.809 76.5119 124.899 79.1681C127.249 82.1521 130.543 82.295 129.746 78.5755C128.327 71.9645 124.588 61.2516 120.753 58.339C117.534 55.8972 117.744 64.1725 119.372 70.0312Z" fill="#8B61A1"/>
<path fill-rule="evenodd" clip-rule="evenodd" d="M105.574 52.5518L111.231 52.5728V56.0275C110.737 56.2905 110.196 56.4497 109.638 56.4954C109.081 56.5411 108.521 56.4723 107.991 56.2932C107.461 56.1142 106.974 55.8286 106.558 55.4541C106.142 55.0796 105.808 54.624 105.574 54.1152V52.5518Z" fill="#947169"/>
<path fill-rule="evenodd" clip-rule="evenodd" d="M109.804 35.3623C98.9607 33.7863 98.8726 53.6403 106.926 54.2749C115.532 54.9095 121.592 37.0729 109.804 35.3623Z" fill="#BA8B80"/>
<path fill-rule="evenodd" clip-rule="evenodd" d="M103.816 43.4611C103.931 43.4693 104.041 43.5118 104.132 43.583C104.223 43.6543 104.29 43.7511 104.326 43.8611C104.361 43.9711 104.363 44.0892 104.331 44.2003C104.299 44.3113 104.235 44.4103 104.147 44.4845C104.058 44.5586 103.949 44.6046 103.835 44.6166C103.72 44.6285 103.604 44.6058 103.502 44.5513C103.4 44.4969 103.317 44.4133 103.263 44.3111C103.209 44.209 103.187 44.093 103.199 43.9781C103.205 43.9035 103.226 43.8308 103.261 43.7644C103.295 43.6979 103.343 43.639 103.4 43.5909C103.457 43.5429 103.524 43.5067 103.595 43.4844C103.666 43.4621 103.742 43.4542 103.816 43.4611Z" fill="#00204A"/>
<path fill-rule="evenodd" clip-rule="evenodd" d="M109.246 44.0663C109.361 44.0744 109.471 44.1167 109.562 44.1877C109.653 44.2587 109.72 44.3553 109.756 44.465C109.792 44.5748 109.794 44.6927 109.763 44.8037C109.731 44.9147 109.667 45.0138 109.579 45.0882C109.491 45.1626 109.383 45.209 109.268 45.2215C109.153 45.2339 109.038 45.2119 108.936 45.1581C108.834 45.1043 108.75 45.0213 108.696 44.9196C108.641 44.818 108.618 44.7023 108.629 44.5875C108.642 44.4364 108.714 44.2967 108.83 44.199C108.946 44.1012 109.095 44.0535 109.246 44.0663Z" fill="#00204A"/>
<path fill-rule="evenodd" clip-rule="evenodd" d="M106.229 47.9329C104.97 47.437 105.39 46.609 105.919 45.5121C104.932 46.3064 104.315 47.6303 106.229 47.9329Z" fill="#947169"/>
<path fill-rule="evenodd" clip-rule="evenodd" d="M103.946 48.8029C105.058 48.8407 106.753 48.992 108.982 49.2232C107.848 52.0937 104.537 51.4843 103.946 48.8029Z" fill="#947169"/>
<path fill-rule="evenodd" clip-rule="evenodd" d="M114.072 42.0742C113.988 44.6967 115.134 46.5796 115.952 46.7435C116.771 46.9074 117.669 42.3222 114.072 42.0742Z" fill="#002E6C"/>
<path fill-rule="evenodd" clip-rule="evenodd" d="M116.904 45.012C116.439 44.8396 115.767 45.5079 115.402 46.4998C115.037 47.4916 115.117 48.4372 115.578 48.6011C116.04 48.7651 116.716 48.1052 117.081 47.1092C117.446 46.1131 117.353 45.1843 116.904 45.012Z" fill="#BA8B80"/>
<path fill-rule="evenodd" clip-rule="evenodd" d="M108.805 42.6878C108.386 42.6878 108.209 42.1919 108.713 42.091C109.439 41.9439 110.841 42.3348 111.231 42.7761C111.483 43.0619 111.294 43.3098 110.95 43.1543C110.261 42.8951 109.539 42.7379 108.805 42.6878Z" fill="#002E6C"/>
<path fill-rule="evenodd" clip-rule="evenodd" d="M105.092 42.3012C105.444 42.4188 105.742 41.9733 105.318 41.7464C104.934 41.5848 104.52 41.505 104.103 41.5123C103.686 41.5195 103.275 41.6135 102.897 41.7884C102.586 41.9649 102.712 42.2969 103.056 42.2087C103.735 42.1185 104.424 42.1498 105.092 42.3012Z" fill="#002E6C"/>
<path fill-rule="evenodd" clip-rule="evenodd" d="M49.3882 164.279C52.2712 166.149 59.7031 167.112 63.2953 166.418C65.3095 166.027 65.4438 163.119 62.8043 162.001C58.4053 160.12 53.8351 158.669 49.1574 157.668C48.7336 160.026 48.1125 163.447 49.3882 164.279Z" fill="#2E3052"/>
<path fill-rule="evenodd" clip-rule="evenodd" d="M58.2343 160.324C56.455 161.194 50.7898 161.471 48.4398 159.786C47.4746 139.911 48.3768 134.099 48.9727 123.466C49.3378 116.985 58.6581 117.855 58.398 124.815C57.886 138.697 58.7295 155.285 58.2343 160.324Z" fill="#2E3052"/>
<path fill-rule="evenodd" clip-rule="evenodd" d="M48.0831 84.1274C48.8511 89.0489 49.1574 94.5545 48.1125 99.829C47.3907 108.596 45.175 118.805 44.4322 127.567C44.0713 131.938 34.6964 132.014 34.6922 126.689C34.6922 112.82 32.4304 99.1944 35.1623 83.5642C38.9433 83.5684 44.3063 84.1274 48.0831 84.1274Z" fill="#2E3052"/>
<path d="M44.3647 89.3262C43.3534 90.8729 40.2102 93.487 38.9639 94.3192" stroke="#001030" stroke-width="1.92" stroke-linecap="round" stroke-linejoin="round"/>
<path fill-rule="evenodd" clip-rule="evenodd" d="M46.7147 84.1274C45.9468 89.0489 45.8209 96.1642 46.8616 101.439C47.4407 110.265 48.5402 117.098 49.136 125.912C49.4214 130.287 58.2885 130.783 58.3095 125.458C58.3556 111.588 59.5474 99.6525 58.5613 83.9971L46.7147 84.1274Z" fill="#2E3052"/>
<path d="M55.0996 88.078C56.1068 89.6246 59.2541 92.2388 60.4962 93.0709" stroke="#001030" stroke-width="1.92" stroke-linecap="round" stroke-linejoin="round"/>
<path d="M50.7898 89.0194C50.7059 90.9317 50.966 95.2312 50.0974 95.3615C49.2287 95.4918 48.188 95.538 48.188 95.538" stroke="#001030" stroke-width="1.92" stroke-linecap="round" stroke-linejoin="round"/>
<path opacity="0.5" fill-rule="evenodd" clip-rule="evenodd" d="M47.8687 112.467C48.645 107.869 49.2325 103.54 48.8297 95.6557C48.3597 100.333 47.6841 104.755 47.1973 107.592C47.4113 108.894 47.6631 110.466 47.8687 112.467Z" fill="#2E3052"/>
<path fill-rule="evenodd" clip-rule="evenodd" d="M33.8696 166.624C36.6183 168.683 43.9747 170.133 47.6046 169.675C49.6399 169.419 49.963 166.527 47.4032 165.237C43.1371 163.074 38.6723 161.329 34.071 160.026C33.4961 162.316 32.6485 165.712 33.8696 166.624Z" fill="#2E3052"/>
<path fill-rule="evenodd" clip-rule="evenodd" d="M42.5308 162.812C40.5585 164.149 36.5761 164.287 32.8244 162.598C32.2034 146.778 34.1379 134.359 35.1619 123.726C35.7829 117.25 45.3425 117.241 44.8137 124.256C43.7562 138.251 43.2274 157.773 42.5308 162.812Z" fill="#2E3052"/>
<path fill-rule="evenodd" clip-rule="evenodd" d="M59.8706 69.0351C61.2513 69.094 63.2907 68.9637 63.9832 69.5983C64.6756 70.2329 62.9341 67.2826 59.8748 67.5642C59.2412 67.9088 59.1237 68.577 59.8706 69.0351Z" fill="url(#paint5_linear_327_595)"/>
<path fill-rule="evenodd" clip-rule="evenodd" d="M60.735 52.64C61.2805 61.0456 60.2692 67.7365 59.476 73.5447C58.8298 78.2435 61.0035 81.9756 59.7488 88.7505C51.3559 91.9992 42.1237 92.1884 33.9281 88.1453C32.4467 85.9892 36.341 80.5382 36.2655 75.3561C36.169 69.052 31.7039 61.5584 32.2998 53.0561C41.0662 47.4412 57.403 49.4459 60.735 52.64Z" fill="url(#paint6_linear_327_595)"/>
<path fill-rule="evenodd" clip-rule="evenodd" d="M39.9419 71.4434C37.6884 70.6448 35.7832 69.7076 36.1189 69.2201C36.6393 68.472 39.8957 70.3422 41.675 70.3464C41.0875 70.0312 40.1181 69.4428 40.2734 69.052C40.8147 67.7155 47.0968 72.3091 46.4128 74.1289C45.2714 77.1718 35.3803 74.2802 35.758 73.0362C35.8881 72.6159 36.7736 73.3472 38.8886 73.5574C36.8281 73.032 34.5411 72.3386 34.8726 71.5064C35.053 71.0441 37.8101 72.347 39.4887 72.5613C37.7262 71.8804 34.5369 70.7751 34.8726 70.2372C35.309 69.5395 38.0619 71.1576 39.9419 71.4434Z" fill="#FBC9BE"/>
<path fill-rule="evenodd" clip-rule="evenodd" d="M47.0674 36.1483C48.0799 36.1084 49.0671 36.4714 49.8133 37.1581C50.5595 37.8447 51.004 38.7992 51.0498 39.8131L51.3981 50.568C51.4568 52.3416 52.2374 55.5736 49.6188 55.8384C45.7665 56.225 43.7438 52.8964 43.6892 50.8202L43.3367 40.0653C43.3164 39.0514 43.6972 38.0706 44.3961 37.3368C45.0949 36.603 46.0552 36.1758 47.0674 36.1483Z" fill="#FBC9BE"/>
<path fill-rule="evenodd" clip-rule="evenodd" d="M51.3353 48.6516L43.5005 45.1002L43.6893 50.8286C45.9134 51.9508 49.8161 51.3456 51.3353 48.6516Z" fill="#D9ABA1"/>
<path fill-rule="evenodd" clip-rule="evenodd" d="M44.1717 27.2173C51.1085 25.2714 54.2013 31.5336 54.9776 37.9218C55.6029 43.0534 55.3972 47.8194 52.0401 49.1769C47.9402 50.837 41.7084 48.1262 40.1851 44.4572C37.5497 38.1026 36.6769 29.3187 44.1717 27.2173Z" fill="#FBC9BE"/>
<path fill-rule="evenodd" clip-rule="evenodd" d="M50.1307 35.5515C50.0244 35.5983 49.9039 35.6009 49.7957 35.5587C49.6874 35.5165 49.6004 35.4331 49.5536 35.3266C49.5069 35.2202 49.5043 35.0995 49.5464 34.9911C49.5885 34.8827 49.6719 34.7955 49.7782 34.7487C50.7727 34.3284 52.1072 34.1813 53.0346 34.8454C53.5046 35.1774 53.2318 35.6859 52.6905 35.4968C51.8463 35.2985 50.9657 35.3173 50.1307 35.5515Z" fill="#233147"/>
<path fill-rule="evenodd" clip-rule="evenodd" d="M48.876 43.0955C50.5546 42.65 50.1097 41.5447 49.6104 40.0905C50.7392 41.2294 51.3561 42.9862 48.876 43.0955Z" fill="#D9ABA1"/>
<path fill-rule="evenodd" clip-rule="evenodd" d="M52.8795 42.8559C51.6458 43.6503 49.044 44.4782 46.459 44.4068C48.0159 45.4196 52.2795 44.3731 52.8795 42.8559Z" fill="#D9ABA1"/>
<path fill-rule="evenodd" clip-rule="evenodd" d="M46.337 35.6229C46.4528 35.6229 46.5638 35.669 46.6456 35.7509C46.7275 35.8329 46.7735 35.9441 46.7735 36.06C46.7735 36.1759 46.7275 36.2871 46.6456 36.3691C46.5638 36.451 46.4528 36.4971 46.337 36.4971C45.4678 36.6592 44.6383 36.9889 43.8947 37.4679C43.4121 37.7831 43.0848 37.4679 43.3869 36.9804C43.9702 35.997 45.2502 35.5935 46.337 35.6229Z" fill="#233147"/>
<path fill-rule="evenodd" clip-rule="evenodd" d="M51.8011 44.7556C50.7709 45.137 49.7112 45.4336 48.6328 45.6424C49.2497 46.2098 51.5871 45.6424 51.8011 44.7556Z" fill="#D9ABA1"/>
<path fill-rule="evenodd" clip-rule="evenodd" d="M46.0141 38.9852C46.1337 38.9481 46.2616 38.9475 46.3815 38.9836C46.5013 39.0197 46.6078 39.0908 46.6871 39.1877C46.7665 39.2847 46.8152 39.4031 46.827 39.5279C46.8388 39.6527 46.8131 39.7782 46.7534 39.8884C46.6936 39.9985 46.6024 40.0883 46.4914 40.1463C46.3804 40.2043 46.2547 40.2278 46.1303 40.2139C46.0059 40.1999 45.8884 40.1491 45.793 40.068C45.6975 39.9869 45.6284 39.8791 45.5945 39.7585C45.5713 39.6801 45.5637 39.5979 45.5723 39.5166C45.5808 39.4353 45.6053 39.3565 45.6442 39.2847C45.6832 39.2129 45.7359 39.1495 45.7994 39.0981C45.8629 39.0467 45.9358 39.0083 46.0141 38.9852Z" fill="#00204A"/>
<path fill-rule="evenodd" clip-rule="evenodd" d="M51.6078 37.5436C51.7274 37.5065 51.8553 37.506 51.9752 37.5421C52.0951 37.5781 52.2015 37.6492 52.2808 37.7462C52.3602 37.8431 52.4089 37.9616 52.4207 38.0864C52.4325 38.2112 52.4069 38.3367 52.3471 38.4468C52.2873 38.557 52.1961 38.6468 52.0851 38.7048C51.9741 38.7627 51.8484 38.7862 51.724 38.7723C51.5996 38.7584 51.4822 38.7076 51.3867 38.6265C51.2913 38.5453 51.2221 38.4376 51.1882 38.3169C51.1425 38.1586 51.1609 37.9887 51.2395 37.844C51.318 37.6992 51.4504 37.5913 51.6078 37.5436Z" fill="#00204A"/>
<path fill-rule="evenodd" clip-rule="evenodd" d="M47.6883 72.4268C49.1277 76.3522 45.2586 78.3107 42.4386 75.9488C37.151 71.561 34.0121 67.0935 31.3767 61.9114C26.7858 52.8754 35.1535 47.6219 41.3475 59.5158C44.0458 64.6937 45.1453 65.4208 47.6883 72.4268Z" fill="url(#paint7_linear_327_595)"/>
<path fill-rule="evenodd" clip-rule="evenodd" d="M44.1758 64.4709C43.0847 65.5678 41.7335 68.9091 41.9055 72.078C43.9198 70.5229 45.3634 66.5387 45.3634 66.5387L44.1758 64.4709Z" fill="url(#paint8_linear_327_595)"/>
<path opacity="0.08" fill-rule="evenodd" clip-rule="evenodd" d="M109.746 45.9828C110.723 46.1971 111.424 46.8234 111.315 47.3991C111.206 47.9749 110.325 48.2397 109.351 48.038C108.378 47.8362 107.673 47.1974 107.782 46.6216C107.891 46.0458 108.772 45.7685 109.746 45.9828Z" fill="#FF5765"/>
<path opacity="0.08" fill-rule="evenodd" clip-rule="evenodd" d="M103.115 45.4364C102.196 45.4785 101.436 45.9828 101.457 46.5628C101.478 47.1428 102.204 47.5715 103.136 47.5294C104.068 47.4874 104.815 46.9831 104.815 46.4031C104.815 45.8231 104.034 45.3944 103.115 45.4364Z" fill="#FF5765"/>
<path opacity="0.08" fill-rule="evenodd" clip-rule="evenodd" d="M52.6149 39.1911C53.5885 39.065 54.453 39.4222 54.5369 39.9854C54.6209 40.5486 53.8991 41.1076 52.9255 41.2463C51.9519 41.385 51.0832 41.0151 50.9993 40.4519C50.9154 39.8888 51.6372 39.313 52.6149 39.1911Z" fill="#FF5765"/>
<path opacity="0.08" fill-rule="evenodd" clip-rule="evenodd" d="M45.3973 41.2715C44.4657 41.5951 43.853 42.2969 44.025 42.8391C44.1971 43.3813 45.0909 43.562 46.0225 43.2594C46.9542 42.9568 47.5668 42.2381 47.3948 41.6917C47.2227 41.1454 46.3289 40.9521 45.3973 41.2715Z" fill="#FF5765"/>
<path fill-rule="evenodd" clip-rule="evenodd" d="M78.9391 59.1165C78.8175 59.9361 79.8456 60.764 80.1981 61.6382C82.141 66.5723 83.5552 69.8505 85.6199 73.406C87.4873 76.6338 91.7845 73.7086 90.5675 70.1783C89.0694 65.8242 86.5347 62.752 84.4785 58.8728C84.1092 58.1751 84.1931 56.8596 83.4923 56.6243C81.9102 56.0863 79.1364 57.7338 78.9391 59.1165Z" fill="#8B61A1"/>
<path fill-rule="evenodd" clip-rule="evenodd" d="M134.429 64.2019C135.457 65.4628 133.955 68.2997 133.59 70.1447C132.935 73.5321 132.415 76.5666 130.791 79.7901C129.074 83.1944 124.496 81.0509 125.444 77.3609C126.284 74.171 127.287 71.477 128.264 68.7031C128.902 66.8875 128.508 63.4286 130.682 62.8192C131.373 62.6602 132.095 62.7063 132.761 62.9519C133.426 63.1975 134.006 63.6318 134.429 64.2019Z" fill="#8B61A1"/>
<path fill-rule="evenodd" clip-rule="evenodd" d="M104.651 48.9122C105.545 48.9668 106.703 49.0719 108.105 49.2106C108.004 49.7905 104.529 49.4039 104.651 48.9122Z" fill="white"/>
<path fill-rule="evenodd" clip-rule="evenodd" d="M43.7311 69.6656C48.0535 69.5395 60.9953 68.4972 63.7188 69.3756C67.697 70.6364 66.9711 75.5453 62.825 76.0748C60.433 76.3816 48.1122 76.3564 43.2485 75.5747C42.8759 73.5974 43.0426 71.556 43.7311 69.6656Z" fill="url(#paint9_linear_327_595)"/>
<path fill-rule="evenodd" clip-rule="evenodd" d="M51.8178 69.2117C51.2009 71.4896 49.5223 74.4483 47.508 75.9361C46.4043 70.8003 46.8827 69.1402 51.8178 69.2117Z" fill="url(#paint10_linear_327_595)"/>
<path fill-rule="evenodd" clip-rule="evenodd" d="M58.5403 160.261C56.7652 161.131 50.6174 161.61 48.2716 159.921C48.2002 158.471 48.1373 157.096 48.0869 155.789C50.6887 157.092 56.6351 156.697 58.6997 155.97C58.6871 157.786 58.641 159.257 58.5403 160.261Z" fill="#66A1ED"/>
<path fill-rule="evenodd" clip-rule="evenodd" d="M42.8456 163.106C41.0663 163.976 34.9227 164.451 32.5727 162.766C32.5014 161.312 32.5391 159.971 32.4888 158.664C35.0906 159.967 40.9362 159.542 42.9799 158.811C42.9883 160.631 42.9421 162.098 42.8456 163.106Z" fill="#66A1ED"/>
<path fill-rule="evenodd" clip-rule="evenodd" d="M89.2583 67.0724C90.4408 68.5385 91.2861 70.2476 91.7342 72.078C91.9478 71.0862 91.8192 70.0511 91.3695 69.1419C90.9198 68.2328 90.1755 67.5032 89.2583 67.0724Z" fill="url(#paint11_linear_327_595)"/>
<path fill-rule="evenodd" clip-rule="evenodd" d="M127.446 71.0525C126.133 72.7672 125.793 75.8353 125.457 77.3567C124.614 75.1712 125.579 72.12 127.446 71.0525Z" fill="url(#paint12_linear_327_595)"/>
<path fill-rule="evenodd" clip-rule="evenodd" d="M118.466 66.4126C118.704 67.8242 119.061 69.2132 119.532 70.565C119.435 71.0609 119.385 71.3005 119.284 71.788C118.373 70.3884 118.164 68.1862 118.466 66.4126Z" fill="url(#paint13_linear_327_595)"/>
<path fill-rule="evenodd" clip-rule="evenodd" d="M104.097 35.2783C103.115 39.2919 112.683 45.4322 117.916 44.9447C123.149 44.4572 115.952 31.9202 104.097 35.2783Z" fill="#002E6C"/>
<path fill-rule="evenodd" clip-rule="evenodd" d="M101.411 42.8475C102.343 39.645 104.16 37.8504 106.682 37.0182C106.49 36.2621 106.157 35.5491 105.7 34.9168C105.7 34.9168 101.378 36.8837 101.411 42.8475Z" fill="#002E6C"/>
<path fill-rule="evenodd" clip-rule="evenodd" d="M39.1904 30.3988C45.4096 36.1146 49.157 30.962 52.489 32.1976C54.5452 32.9583 54.5872 36.1735 55.0068 38.0815C55.4643 37.1191 56.2658 32.9962 55.0698 31.8026C53.7731 30.4913 56.2406 26.0531 50.63 26.6289C48.3303 26.8517 41.6495 22.6993 39.1904 30.3988Z" fill="#184F96"/>
<path fill-rule="evenodd" clip-rule="evenodd" d="M41.8218 28.6841C43.7186 32.2144 42.2415 33.8661 40.6133 35.2699C38.985 36.6736 42.3422 41.5447 39.2158 42.0784C38.0324 40.3384 34.6543 34.0469 36.9665 32.7566C38.1709 32.08 36.484 27.9024 41.8218 28.6841Z" fill="#184F96"/>
<path fill-rule="evenodd" clip-rule="evenodd" d="M53.3325 31.7984C50.4873 28.2554 43.8905 34.3957 40.7432 29.201C44.3815 23.3465 50.3362 29.201 52.0232 27.5661C50.4957 29.781 43.9618 26.9063 41.8258 29.0918C43.2652 30.941 52.2792 27.1459 53.3325 31.7984Z" fill="#2F69B5"/>
<path fill-rule="evenodd" clip-rule="evenodd" d="M40.8607 29.0834C37.5959 29.3691 39.136 31.895 37.8687 32.8407C39.1276 32.6095 40.1012 29.3145 41.6119 29.7306C41.6706 29.4406 41.6371 29.0161 40.8607 29.0834Z" fill="#2F69B5"/>
<path fill-rule="evenodd" clip-rule="evenodd" d="M38.1581 39.893C38.6575 39.6408 39.5009 40.3132 40.0381 41.3723C40.5752 42.4314 40.613 43.5116 40.1178 43.7637C39.6226 44.0159 38.775 43.3434 38.2336 42.2885C37.6923 41.2336 37.6629 40.1451 38.1581 39.893Z" fill="#FBC9BE"/>
<path fill-rule="evenodd" clip-rule="evenodd" d="M118.369 43.3855C112.977 44.6799 105.482 37.9849 104.835 35.6649C105.234 36.1272 112.502 41.1622 118.369 43.3855Z" fill="#043A80"/>
<path fill-rule="evenodd" clip-rule="evenodd" d="M100.362 41.0613C99.8799 38.5396 101.651 36.2575 103.275 35.8793C102.251 36.724 100.631 39.2079 100.362 41.0613Z" fill="#043A80"/>
<path fill-rule="evenodd" clip-rule="evenodd" d="M54.8392 44.0495C55.0071 42.9778 54.9903 42.5197 54.4196 42.5659C53.4544 42.5659 52.6738 46.4745 51.6037 48.0085C49.8874 47.9035 49.1195 46.3484 48.7082 46.5124C47.3863 47.0251 50.3364 53.7958 51.6457 54.733C54.5832 56.784 58.7797 45.4869 57.5207 45.5415C57.2102 45.5415 57.1305 46.588 56.2618 48.2313C55.8422 47.853 55.4729 48.1262 54.9273 47.8993C55.4099 45.945 56.3248 42.9316 55.6533 42.8979C55.2672 42.8895 55.0281 43.1879 54.8392 44.0495Z" fill="#D9ABA1"/>
<path fill-rule="evenodd" clip-rule="evenodd" d="M53.8488 47.5C54.5328 45.0456 55.1622 42.8097 54.5328 42.8055C53.5634 42.8055 52.8542 47.3613 51.7673 48.8953C50.051 48.7903 49.2494 46.6679 48.8298 46.8318C47.6128 47.3193 50.8861 53.8504 52.2121 54.7835C55.1496 56.8386 58.8551 45.6256 57.5458 45.1927C57.0842 45.0414 57.4283 45.8987 56.3163 47.8699C57.1178 45.7685 57.6381 43.1963 56.7107 42.9778C56.1988 42.8517 55.8966 46.1887 55.0867 47.7858C55.5693 45.8315 56.5597 42.3726 55.8882 42.3222C55.028 42.2927 54.751 45.6844 53.8488 47.5Z" fill="#FBC9BE"/>
<path fill-rule="evenodd" clip-rule="evenodd" d="M50.0636 53.489C48.385 57.4774 42.0651 69.9345 41.8889 72.7924C41.6371 76.97 46.74 78.1468 48.7417 74.4736C49.8915 72.3722 54.6964 60.0159 55.7372 55.1911C54.032 54.1257 52.0727 53.5379 50.0636 53.489Z" fill="url(#paint14_linear_327_595)"/>
<path fill-rule="evenodd" clip-rule="evenodd" d="M105.574 54.1152C105.041 55.0272 104.655 55.376 104.118 56.3007C104.072 59.5788 104.928 61.344 105.759 62.5124C105.574 60.7514 105.646 57.1328 105.574 54.1152Z" fill="#FFAF8F"/>
<path fill-rule="evenodd" clip-rule="evenodd" d="M111.294 53.6235C111.657 54.443 111.967 55.2853 112.221 56.1452C111.147 58.7551 108.705 61.7853 105.767 62.4998C108.197 60.7977 110.4 57.0992 111.294 53.6235Z" fill="#FFAF8F"/>
<path fill-rule="evenodd" clip-rule="evenodd" d="M105.574 54.1152C104.428 55.2015 103.454 56.4573 102.687 57.8389C103.677 57.4774 104.81 56.8891 105.604 56.9983C105.675 55.9224 105.49 55.5484 105.574 54.1152Z" fill="#FFAF8F"/>
<path fill-rule="evenodd" clip-rule="evenodd" d="M111.294 53.6235C112.465 55.4685 113.442 56.9857 113.77 59.0031C112.573 58.2385 111.298 57.6031 109.968 57.1076C110.526 55.9941 110.971 54.8268 111.294 53.6235Z" fill="#FFAF8F"/>
<path fill-rule="evenodd" clip-rule="evenodd" d="M33.8694 166.624C36.6181 168.683 43.9745 170.133 47.6044 169.675C48.0025 169.637 48.3762 169.466 48.6654 169.189C48.9546 168.912 49.1425 168.546 49.199 168.15C48.8866 168.425 48.4967 168.597 48.0828 168.641C44.1717 169.133 36.253 167.574 33.2903 165.355L33.2651 165.334C33.273 165.579 33.3307 165.819 33.4346 166.041C33.5385 166.263 33.6864 166.461 33.8694 166.624Z" fill="#001E45"/>
<path fill-rule="evenodd" clip-rule="evenodd" d="M49.388 164.279C52.271 166.149 59.7029 167.112 63.2951 166.418C63.6891 166.353 64.0499 166.157 64.3199 165.862C64.59 165.567 64.7536 165.19 64.7848 164.792C64.495 165.085 64.1209 165.281 63.7147 165.351C59.8456 166.103 51.843 165.065 48.7418 163.048H48.7124C48.7375 163.287 48.8101 163.52 48.9261 163.732C49.0422 163.943 49.1992 164.129 49.388 164.279Z" fill="#001E45"/>
<path fill-rule="evenodd" clip-rule="evenodd" d="M119.842 167.33C118.008 169.011 110.329 170.377 106.93 169.881C106.569 169.844 106.232 169.683 105.975 169.426C105.719 169.169 105.56 168.831 105.524 168.469C105.791 168.698 106.119 168.844 106.468 168.889C110.069 169.415 118.218 167.961 120.14 166.187C120.247 166.09 120.338 165.977 120.409 165.851C120.404 166.396 120.203 166.921 119.842 167.33Z" fill="#001E45"/>
<path fill-rule="evenodd" clip-rule="evenodd" d="M106.904 164.443C104.995 166.027 97.2525 167.044 93.8953 166.389C93.5369 166.334 93.2082 166.158 92.9644 165.889C92.7206 165.621 92.5766 165.276 92.5566 164.914C92.8119 165.157 93.133 165.319 93.4799 165.38C97.0552 166.074 105.23 164.998 107.265 163.321C107.375 163.228 107.47 163.119 107.546 162.997C107.513 163.541 107.285 164.054 106.904 164.443Z" fill="#001E45"/>
<path fill-rule="evenodd" clip-rule="evenodd" d="M136.456 60.638C138.756 59.8352 140.694 58.8938 140.359 58.3979C139.834 57.633 135.205 59.8268 133.422 59.8184C133.233 58.6206 134.547 57.8179 134.354 57.2967C133.913 56.0905 130.443 59.8184 130.606 63.2269C130.648 64.0969 131.727 64.908 133.493 64.7945C136.754 64.576 140.95 63.1134 140.707 62.2939C140.573 61.8442 139.671 62.6049 137.518 62.8066C139.616 62.2813 141.945 61.5878 141.613 60.7388C141.429 60.2681 138.609 61.5794 136.918 61.7895C138.714 61.1087 141.953 59.9991 141.622 59.4528C141.181 58.7383 138.374 60.3564 136.456 60.638Z" fill="#BA8B80"/>
<path fill-rule="evenodd" clip-rule="evenodd" d="M76.77 54.9978C74.378 54.5775 72.3092 53.9597 72.5736 53.4133C72.968 52.5728 77.8863 53.9219 79.6488 53.6277C79.6488 52.4131 77.9702 51.8079 78.3227 51.354C79.0319 50.4546 82.5653 53.3209 83.1318 56.1914C83.4801 57.9734 82.3891 58.2466 80.358 58.5534C77.1267 59.0409 72.7414 58.1541 72.8505 57.2925C72.9093 56.826 73.9206 57.4312 76.0776 57.2925C73.9248 57.1118 71.5119 56.8008 71.7049 55.914C71.8098 55.4181 74.8019 56.2376 76.5098 56.1956C74.6298 55.8089 71.2433 55.2374 71.4741 54.6406C71.8056 53.8715 74.8355 55.0314 76.77 54.9978Z" fill="#BA8B80"/>
<path fill-rule="evenodd" clip-rule="evenodd" d="M96.4805 6.922L101.583 8.15763C102.158 5.92594 103.388 5.08118 105.213 5.52247C106.85 5.91753 107.647 6.85896 107.27 8.4266C106.413 12.0074 101.747 11.2467 100.362 16.9793L105.318 18.1729C106.367 13.8104 112.28 14.4534 113.64 8.82167C114.647 4.64409 112.121 1.54662 107.131 0.340422C101.797 -0.941431 97.8401 1.44996 96.4805 6.922ZM102.062 20.371C101.643 20.2506 101.203 20.2193 100.771 20.2793C100.339 20.3392 99.9244 20.4889 99.5537 20.7189C99.183 20.9489 98.8644 21.254 98.6185 21.6146C98.3725 21.9752 98.2046 22.3833 98.1255 22.8128C97.6681 24.7166 98.6458 26.3725 100.509 26.8222C101.363 27.0285 102.264 26.8864 103.014 26.4273C103.763 25.9682 104.3 25.2296 104.506 24.3741C104.712 23.5186 104.57 22.6163 104.112 21.8655C103.653 21.1148 102.916 20.5772 102.062 20.371Z" fill="#7CBC79"/>
<path fill-rule="evenodd" clip-rule="evenodd" d="M68.8261 30.319L72.5231 30.7645C72.7456 29.1464 73.5387 28.4445 74.8606 28.6042C76.0482 28.7471 76.6902 29.3481 76.5391 30.4829C76.2286 33.076 72.8798 32.9205 72.3805 37.0813L75.9684 37.5016C76.3503 34.3369 80.5845 34.299 81.0587 30.2181C81.4238 27.1921 79.3801 25.221 75.7712 24.7839C71.9147 24.3174 69.3171 26.3347 68.8135 30.3064L68.8261 30.319ZM73.8618 39.3424C73.5565 39.2925 73.2442 39.3071 72.9448 39.3852C72.6455 39.4633 72.3657 39.6032 72.1235 39.7959C71.8813 39.9886 71.682 40.2299 71.5384 40.5042C71.3947 40.7786 71.3099 41.08 71.2894 41.3892C71.2367 41.8468 71.3208 42.3098 71.5309 42.7195C71.741 43.1293 72.0678 43.4674 72.4699 43.6911C72.8719 43.9149 73.3312 44.0141 73.7896 43.9763C74.248 43.9385 74.6849 43.7654 75.0451 43.4789C75.4052 43.1923 75.6724 42.8052 75.8128 42.3666C75.9532 41.9279 75.9605 41.4574 75.8338 41.0146C75.7072 40.5717 75.4522 40.1765 75.1011 39.8788C74.7501 39.5812 74.3188 39.3945 73.8618 39.3424Z" fill="#7CBC79"/>
<path fill-rule="evenodd" clip-rule="evenodd" d="M33.0722 9.98585L36.7147 9.09065C36.3496 7.48939 36.849 6.54376 38.1541 6.22434C39.3249 5.93855 40.139 6.27058 40.4118 7.39272C41.0412 9.94802 37.8268 10.9903 38.8339 15.0922L42.3715 14.2223C41.6078 11.1122 45.565 9.56557 44.583 5.5519C43.8529 2.56791 41.2259 1.43316 37.6715 2.31154C33.8695 3.26137 32.1364 6.07304 33.0722 9.98585ZM41.0454 16.7103C40.4333 16.8602 39.9057 17.2476 39.5787 17.7871C39.2517 18.3266 39.1521 18.9741 39.3018 19.5871C39.4515 20.2002 39.8382 20.7286 40.3769 21.0561C40.9156 21.3836 41.5621 21.4833 42.1743 21.3334C42.7864 21.1835 43.314 20.7962 43.641 20.2567C43.968 19.7171 44.0676 19.0696 43.9179 18.4566C43.7682 17.8435 43.3815 17.3151 42.8428 16.9876C42.3041 16.6602 41.6576 16.5604 41.0454 16.7103Z" fill="#7CBC79"/>
</g>
<defs>
<linearGradient id="paint0_linear_327_595" x1="59.9726" y1="75.0682" x2="59.9726" y2="49.728" gradientUnits="userSpaceOnUse">
<stop stop-color="#219466"/>
<stop offset="1" stop-color="#26C485"/>
</linearGradient>
<linearGradient id="paint1_linear_327_595" x1="58.7115" y1="70.3434" x2="58.7115" y2="57.9943" gradientUnits="userSpaceOnUse">
<stop stop-color="#219466"/>
<stop offset="1" stop-color="#26C485"/>
</linearGradient>
<linearGradient id="paint2_linear_327_595" x1="96.1921" y1="74.7409" x2="96.1922" y2="54.9615" gradientUnits="userSpaceOnUse">
<stop stop-color="#219466"/>
<stop offset="1" stop-color="#26C485"/>
</linearGradient>
<linearGradient id="paint3_linear_327_595" x1="96.4976" y1="64.8353" x2="103.078" y2="64.8353" gradientUnits="userSpaceOnUse">
<stop stop-color="#EE722F"/>
<stop offset="1" stop-color="#8760A5"/>
</linearGradient>
<linearGradient id="paint4_linear_327_595" x1="108.847" y1="94.3223" x2="108.847" y2="52.4938" gradientUnits="userSpaceOnUse">
<stop stop-color="#219466"/>
<stop offset="1" stop-color="#26C485"/>
</linearGradient>
<linearGradient id="paint5_linear_327_595" x1="61.7611" y1="69.688" x2="61.7611" y2="67.3666" gradientUnits="userSpaceOnUse">
<stop stop-color="#219466"/>
<stop offset="1" stop-color="#26C485"/>
</linearGradient>
<linearGradient id="paint6_linear_327_595" x1="46.669" y1="91.1845" x2="46.669" y2="46.0462" gradientUnits="userSpaceOnUse">
<stop stop-color="#219466"/>
<stop offset="1" stop-color="#26C485"/>
</linearGradient>
<linearGradient id="paint7_linear_327_595" x1="39.0913" y1="76.9716" x2="39.0913" y2="50.5823" gradientUnits="userSpaceOnUse">
<stop stop-color="#219466"/>
<stop offset="1" stop-color="#26C485"/>
</linearGradient>
<linearGradient id="paint8_linear_327_595" x1="43.6393" y1="72.078" x2="43.6393" y2="63.837" gradientUnits="userSpaceOnUse">
<stop stop-color="#219466"/>
<stop offset="1" stop-color="#26C485"/>
</linearGradient>
<linearGradient id="paint9_linear_327_595" x1="54.7843" y1="76.2575" x2="54.7843" y2="68.4242" gradientUnits="userSpaceOnUse">
<stop stop-color="#219466"/>
<stop offset="1" stop-color="#26C485"/>
</linearGradient>
<linearGradient id="paint10_linear_327_595" x1="49.434" y1="75.9361" x2="49.434" y2="68.6489" gradientUnits="userSpaceOnUse">
<stop stop-color="#219466"/>
<stop offset="1" stop-color="#26C485"/>
</linearGradient>
<linearGradient id="paint11_linear_327_595" x1="89.2583" y1="69.5746" x2="91.8348" y2="69.5746" gradientUnits="userSpaceOnUse">
<stop stop-color="#EE722F"/>
<stop offset="1" stop-color="#8760A5"/>
</linearGradient>
<linearGradient id="paint12_linear_327_595" x1="125.149" y1="74.2038" x2="127.446" y2="74.2038" gradientUnits="userSpaceOnUse">
<stop stop-color="#EE722F"/>
<stop offset="1" stop-color="#8760A5"/>
</linearGradient>
<linearGradient id="paint13_linear_327_595" x1="118.336" y1="69.0996" x2="119.532" y2="69.0996" gradientUnits="userSpaceOnUse">
<stop stop-color="#EE722F"/>
<stop offset="1" stop-color="#8760A5"/>
</linearGradient>
<linearGradient id="paint14_linear_327_595" x1="48.8577" y1="76.6732" x2="48.8577" y2="51.557" gradientUnits="userSpaceOnUse">
<stop stop-color="#219466"/>
<stop offset="1" stop-color="#26C485"/>
</linearGradient>
<clipPath id="clip0_327_595">
<rect width="155" height="174" fill="white"/>
</clipPath>
</defs>
</svg>
