<svg width="141" height="119" viewBox="0 0 141 119" fill="none" xmlns="http://www.w3.org/2000/svg">
<path opacity="0.2" d="M140.929 75.3082C141.062 73.0026 141 70.6898 140.743 68.3947C139.521 57.6364 134.004 47.4368 125.874 40.2794C122.974 37.7206 119.675 35.428 117.789 32.0532C114.614 26.3637 114.853 19.8271 110.908 14.2129C106.916 8.54051 101.257 4.25593 94.719 1.95567C75.3732 -4.75829 48.2872 6.19514 50.7182 29.5166C50.7182 29.5994 50.7271 29.7192 50.7448 29.8759C50.818 31.0221 50.6584 32.1713 50.2759 33.2542C49.8933 34.337 49.2956 35.3309 48.5188 36.176C47.7421 37.021 46.8024 37.6997 45.7565 38.171C44.7106 38.6422 43.5801 38.8964 42.4335 38.918C24.5843 39.3393 9.22364 53.1087 5.92923 70.581C3.81709 81.8093 7.27977 94.1153 15.4804 102.067C21.5998 107.996 29.8137 111.255 38.0321 113.49C54.5085 117.978 71.8485 118.918 88.8342 117.202C104.735 115.596 121.513 111.02 131.786 98.7672C137.261 92.1284 140.465 83.9061 140.929 75.3082Z" fill="#26BC80"/>
<g opacity="0.4">
<path d="M126.251 76.408C126.355 74.6022 126.306 72.7908 126.104 70.9933C125.148 62.5676 120.822 54.5853 114.459 48.9667C112.187 46.9623 109.588 45.1663 108.122 42.5233C105.634 38.0887 105.824 32.9446 102.734 28.5454C99.6049 24.1035 95.1724 20.7478 90.0519 18.9445C74.8949 13.6851 53.6761 22.2483 55.5846 40.5366C55.5846 40.6031 55.5846 40.6962 55.5846 40.8159C55.6447 41.715 55.5218 42.6168 55.2234 43.4669C54.9249 44.3169 54.4572 45.0973 53.8485 45.7608C53.2398 46.4244 52.5029 46.9571 51.6824 47.3268C50.8619 47.6964 49.975 47.8953 49.0754 47.9113C35.0919 48.2439 23.0566 59.0421 20.4796 72.7184C18.8235 81.5166 21.5334 91.1574 27.9584 97.3791C32.7539 102.022 39.1878 104.572 45.626 106.328C58.5336 109.84 72.1186 110.581 85.4247 109.237C97.885 107.978 111.023 104.39 119.077 94.7938C123.37 89.5908 125.884 83.147 126.251 76.408Z" fill="#26BC80"/>
</g>
<path opacity="0.31" d="M136.983 18.4207C137.54 16.071 136.089 13.7145 133.742 13.1573C131.396 12.6002 129.043 14.0533 128.487 16.403C127.931 18.7527 129.381 21.1092 131.728 21.6664C134.074 22.2236 136.427 20.7704 136.983 18.4207Z" fill="#7CBC79"/>
<path opacity="0.31" d="M40.4331 15.9269C42.4097 13.9474 42.4097 10.7381 40.4331 8.75864C38.4566 6.77917 35.2521 6.77917 33.2756 8.75864C31.2991 10.7381 31.2991 13.9474 33.2756 15.9269C35.2521 17.9064 38.4566 17.9064 40.4331 15.9269Z" fill="#7CBC79"/>
<path opacity="0.31" d="M6.53569 116.271C10.1453 116.271 13.0714 113.34 13.0714 109.725C13.0714 106.11 10.1453 103.18 6.53569 103.18C2.92613 103.18 0 106.11 0 109.725C0 113.34 2.92613 116.271 6.53569 116.271Z" fill="#7CBC79"/>
<path d="M58.1262 58.0621C70.9235 58.0621 81.2978 47.6723 81.2978 34.8559C81.2978 22.0394 70.9235 11.6497 58.1262 11.6497C45.3289 11.6497 34.9546 22.0394 34.9546 34.8559C34.9546 47.6723 45.3289 58.0621 58.1262 58.0621Z" fill="#7CBC79"/>
<path d="M74.2128 51.5699C74.1837 51.5702 74.1549 51.5645 74.1283 51.553C74.1016 51.5416 74.0776 51.5246 74.0578 51.5033C74.0366 51.4834 74.0197 51.4594 74.0082 51.4327C73.9967 51.406 73.9907 51.3772 73.9907 51.3481C73.9907 51.319 73.9967 51.2903 74.0082 51.2636C74.0197 51.2369 74.0366 51.2128 74.0578 51.1929C76.1954 49.0634 77.8901 46.5305 79.0439 43.7407C80.1976 40.9509 80.7875 37.9597 80.7795 34.9401C80.788 31.9205 80.1983 28.9291 79.0446 26.1393C77.8908 23.3495 76.1958 20.8166 74.0578 18.6874C71.9311 16.5474 69.4018 14.851 66.6162 13.6962C63.8306 12.5415 60.844 11.9514 57.8293 11.9601C54.8141 11.9515 51.8272 12.5421 49.0416 13.6976C46.2559 14.8531 43.7268 16.5506 41.6007 18.6918C41.5586 18.7327 41.5022 18.7556 41.4435 18.7556C41.3849 18.7556 41.3285 18.7327 41.2864 18.6918C41.2455 18.6496 41.2227 18.5931 41.2227 18.5344C41.2227 18.4756 41.2455 18.4191 41.2864 18.377C43.4539 16.1949 46.0321 14.465 48.8717 13.2874C51.7113 12.1098 54.7559 11.508 57.8293 11.5166C60.902 11.5076 63.9461 12.1093 66.785 13.2869C69.6239 14.4645 72.2013 16.1946 74.3678 18.377C76.5476 20.5473 78.2759 23.1291 79.4524 25.973C80.629 28.8169 81.2306 31.8663 81.2223 34.9446C81.2302 38.0222 80.6285 41.0708 79.4519 43.9139C78.2753 46.757 76.5473 49.3381 74.3678 51.5078C74.3476 51.5283 74.3234 51.5444 74.2967 51.5551C74.2701 51.5657 74.2415 51.5708 74.2128 51.5699Z" fill="#243762"/>
<path d="M58.1259 52.5144C67.8638 52.5144 75.758 44.6084 75.758 34.8559C75.758 25.1033 67.8638 17.1973 58.1259 17.1973C48.3879 17.1973 40.4937 25.1033 40.4937 34.8559C40.4937 44.6084 48.3879 52.5144 58.1259 52.5144Z" fill="white"/>
<path d="M58.1217 52.7583C53.3842 52.7536 48.8424 50.8653 45.4946 47.5083C42.1468 44.1513 40.2669 39.6004 40.2681 34.8559C40.2739 30.1155 42.1568 25.571 45.5037 22.2191C48.8507 18.8672 53.3884 16.9815 58.1217 16.9756C58.1804 16.9756 58.2367 16.999 58.2782 17.0406C58.3197 17.0821 58.3431 17.1385 58.3431 17.1973C58.3431 17.2562 58.3197 17.3126 58.2782 17.3541C58.2367 17.3957 58.1804 17.4191 58.1217 17.4191C53.5058 17.4249 49.0807 19.2639 45.8168 22.5327C42.553 25.8014 40.7167 30.2332 40.7109 34.8559C40.7097 39.4828 42.543 43.9209 45.8077 47.1947C49.0725 50.4685 53.5016 52.3102 58.1217 52.3149C58.1804 52.3149 58.2367 52.3382 58.2782 52.3798C58.3197 52.4214 58.3431 52.4778 58.3431 52.5366C58.3431 52.5954 58.3197 52.6518 58.2782 52.6934C58.2367 52.735 58.1804 52.7583 58.1217 52.7583Z" fill="#243762"/>
<path d="M62.6736 38.2306H57.8781C57.4084 38.2306 56.9579 38.0437 56.6257 37.7111C56.2935 37.3784 56.1069 36.9272 56.1069 36.4568V29.8049C56.1069 29.6011 56.147 29.3992 56.2249 29.2109C56.3028 29.0226 56.4169 28.8515 56.5609 28.7074C56.7048 28.5633 56.8756 28.4489 57.0636 28.3709C57.2517 28.2929 57.4532 28.2528 57.6567 28.2528C58.0678 28.2528 58.4619 28.4163 58.7526 28.7074C59.0432 28.9985 59.2065 29.3932 59.2065 29.8049V35.1264H62.6736C63.0847 35.1264 63.4788 35.2899 63.7695 35.581C64.0601 35.8721 64.2234 36.2669 64.2234 36.6785C64.2234 37.0901 64.0601 37.4849 63.7695 37.776C63.4788 38.0671 63.0847 38.2306 62.6736 38.2306Z" fill="#243762"/>
<path d="M22.1488 42.918L47.1093 67.9158C48.2701 69.0787 49.6483 70.0012 51.1652 70.6306C52.682 71.26 54.3078 71.5839 55.9498 71.5839C57.5917 71.5839 59.2175 71.26 60.7343 70.6306C62.2512 70.0012 63.6294 69.0787 64.7902 67.9158L67.7747 64.9268C68.0431 64.659 68.2561 64.3408 68.4014 63.9903C68.5468 63.6399 68.6216 63.2642 68.6216 62.8847C68.6216 62.5052 68.5468 62.1295 68.4014 61.7791C68.2561 61.4286 68.0431 61.1104 67.7747 60.8426L57.5903 50.643C57.0483 50.102 56.3143 49.7982 55.549 49.7982C54.7838 49.7982 54.0497 50.102 53.5077 50.643L48.4156 55.7472C48.2233 55.9374 47.964 56.044 47.6938 56.044C47.4236 56.044 47.1643 55.9374 46.972 55.7472L34.6224 43.3747C34.4337 43.1852 34.3277 42.9284 34.3277 42.6608C34.3277 42.3931 34.4337 42.1363 34.6224 41.9468L39.6482 36.9135C39.9166 36.6457 40.1296 36.3275 40.2749 35.977C40.4203 35.6266 40.4951 35.2509 40.4951 34.8714C40.4951 34.4919 40.4203 34.1162 40.2749 33.7658C40.1296 33.4153 39.9166 33.0971 39.6482 32.8293L29.1849 22.3503C28.6504 21.8145 27.927 21.5105 27.1707 21.5038C26.4145 21.4972 25.6859 21.7885 25.1421 22.3149L22.3082 25.0554C21.1137 26.2104 20.1608 27.592 19.5051 29.1197C18.8494 30.6473 18.5041 32.2905 18.4893 33.9532C18.4744 35.616 18.7904 37.2651 19.4187 38.8042C20.047 40.3434 20.9751 41.7418 22.1488 42.918Z" fill="#243762"/>
<path d="M22.928 25.561L36.9558 39.6053L37.4385 39.1264L39.6525 36.9091C39.9209 36.6413 40.1339 36.323 40.2792 35.9726C40.4245 35.6222 40.4994 35.2464 40.4994 34.867C40.4994 34.4875 40.4245 34.1118 40.2792 33.7613C40.1339 33.4109 39.9209 33.0926 39.6525 32.8248L29.1891 22.3459C28.6546 21.81 27.9313 21.506 27.175 21.4994C26.4188 21.4927 25.6902 21.784 25.1464 22.3104L22.3125 25.051L22.928 25.561Z" fill="#ECF1F7"/>
<path d="M36.956 39.9202L22.7864 25.7295L21.9717 25.0776L24.9871 22.1596C25.5758 21.5972 26.3602 21.2867 27.1738 21.2941C27.9874 21.3016 28.766 21.6264 29.3443 22.1996L39.8031 32.6741C40.093 32.9626 40.323 33.3056 40.48 33.6835C40.637 34.0613 40.7178 34.4666 40.7178 34.8758C40.7178 35.2851 40.637 35.6903 40.48 36.0682C40.323 36.4461 40.093 36.7891 39.8031 37.0776L36.956 39.9202ZM22.6403 25.0421L23.0831 25.4013L36.9515 39.2949L39.4843 36.7583C39.7322 36.5104 39.9286 36.2159 40.0624 35.8917C40.1961 35.5675 40.2645 35.22 40.2637 34.8692C40.2639 34.5191 40.1952 34.1725 40.0615 33.8491C39.9278 33.5257 39.7316 33.2318 39.4843 32.9845L29.021 22.5055C28.5279 22.0099 27.8597 21.7287 27.161 21.7228C26.4623 21.717 25.7895 21.9871 25.2882 22.4745L22.6403 25.0421Z" fill="#243762"/>
<path d="M51.4617 53.6452L65.4896 67.6896L65.9678 67.2106L68.1818 64.9933C68.7218 64.4513 69.025 63.7169 69.025 62.9512C69.025 62.1855 68.7218 61.4511 68.1818 60.9091L57.714 50.4435C57.1795 49.9076 56.4562 49.6036 55.6999 49.5969C54.9437 49.5903 54.2151 49.8816 53.6713 50.408L50.8374 53.1486L51.4617 53.6452Z" fill="#ECF1F7"/>
<path d="M65.4896 68.0133L51.3201 53.8226L50.5054 53.1707L53.5208 50.2528C54.106 49.6853 54.8908 49.3713 55.7053 49.3788C56.5199 49.3862 57.2988 49.7146 57.8735 50.2927L68.3368 60.7672C68.6281 61.0577 68.8587 61.4034 69.0153 61.7841C69.1719 62.1647 69.2514 62.5728 69.249 62.9845C69.2514 63.3962 69.1719 63.8042 69.0153 64.1849C68.8587 64.5656 68.6281 64.9112 68.3368 65.2018L65.4896 68.0133ZM51.1607 53.1353L51.6035 53.4989L65.4896 67.3925L68.018 64.8559C68.2677 64.6073 68.4656 64.3115 68.6001 63.9857C68.7347 63.6598 68.8032 63.3105 68.8018 62.9579C68.802 62.6068 68.7329 62.2591 68.5984 61.9349C68.4639 61.6106 68.2666 61.3163 68.018 61.0687L57.5591 50.5942C57.0636 50.1019 56.3957 49.8226 55.6977 49.816C54.9997 49.8094 54.3267 50.0759 53.8219 50.5588L51.1607 53.1353Z" fill="#243762"/>
<path d="M32.5633 32.6829C32.5056 32.6833 32.45 32.661 32.4084 32.6209L23.8624 24.0621C23.8416 24.0415 23.8251 24.017 23.8139 23.9899C23.8027 23.9629 23.7969 23.9339 23.7969 23.9047C23.7969 23.8754 23.8027 23.8464 23.8139 23.8194C23.8251 23.7924 23.8416 23.7679 23.8624 23.7472C23.8823 23.726 23.9063 23.7091 23.9329 23.6976C23.9596 23.686 23.9883 23.6801 24.0174 23.6801C24.0464 23.6801 24.0751 23.686 24.1018 23.6976C24.1284 23.7091 24.1524 23.726 24.1723 23.7472L32.7183 32.306C32.7391 32.3266 32.7555 32.3511 32.7668 32.3782C32.778 32.4052 32.7838 32.4342 32.7838 32.4634C32.7838 32.4927 32.778 32.5217 32.7668 32.5487C32.7555 32.5757 32.7391 32.6002 32.7183 32.6209C32.6767 32.661 32.6211 32.6833 32.5633 32.6829Z" fill="#243762"/>
<path d="M66.5438 66.7317C66.5148 66.7315 66.4862 66.7256 66.4596 66.7141C66.433 66.7027 66.4089 66.6861 66.3888 66.6652L57.8428 58.1064C57.8221 58.0858 57.8056 58.0613 57.7944 58.0343C57.7831 58.0073 57.7773 57.9783 57.7773 57.949C57.7773 57.9197 57.7831 57.8907 57.7944 57.8637C57.8056 57.8367 57.8221 57.8122 57.8428 57.7916C57.885 57.7507 57.9413 57.7278 58 57.7278C58.0587 57.7278 58.1151 57.7507 58.1572 57.7916L66.7032 66.3503C66.7441 66.3925 66.7669 66.449 66.7669 66.5078C66.7669 66.5665 66.7441 66.623 66.7032 66.6652C66.661 66.7076 66.6036 66.7316 66.5438 66.7317Z" fill="#243762"/>
<path d="M104.049 110.483L71.3259 105.636C70.446 105.506 69.6003 105.204 68.8372 104.746C68.0741 104.288 67.4085 103.685 66.8784 102.969C66.3484 102.254 65.9642 101.441 65.748 100.577C65.5318 99.7129 65.4877 98.8146 65.6182 97.9335L77.3524 18.4745C77.6149 16.6945 78.5728 15.0918 80.0152 14.019C81.4575 12.9462 83.2664 12.4911 85.0438 12.7539L117.767 17.6009C119.543 17.866 121.141 18.826 122.211 20.2701C123.281 21.7143 123.735 23.5246 123.474 25.3038L111.736 104.763C111.606 105.644 111.305 106.491 110.848 107.255C110.392 108.02 109.789 108.687 109.076 109.218C108.362 109.749 107.55 110.134 106.688 110.352C105.825 110.569 104.928 110.613 104.049 110.483Z" fill="#243762"/>
<path d="M79.912 20.1758L68.8345 95.2138L109.462 101.229L120.54 26.1915L79.912 20.1758Z" fill="#ECF1F7"/>
<path d="M79.9097 20.1749L79.0781 25.8077L119.706 31.8233L120.538 26.1905L79.9097 20.1749Z" fill="#7CBC79"/>
<path d="M88.4532 105.53C88.3227 105.53 88.1923 105.52 88.0635 105.499C87.719 105.449 87.3878 105.331 87.0891 105.153C86.7904 104.974 86.5301 104.737 86.3233 104.457C86.1141 104.177 85.9625 103.859 85.8774 103.52C85.7923 103.181 85.7753 102.829 85.8274 102.483C85.9317 101.787 86.3075 101.16 86.8724 100.741C87.1511 100.532 87.4684 100.381 87.806 100.296C88.1435 100.212 88.4945 100.196 88.8384 100.248C89.1817 100.3 89.5114 100.419 89.8085 100.598C90.1057 100.778 90.3644 101.015 90.5698 101.295C90.9896 101.861 91.168 102.571 91.0657 103.268C90.9707 103.895 90.6553 104.468 90.1764 104.882C89.6974 105.297 89.0863 105.527 88.4532 105.53ZM88.4532 100.652C87.9738 100.65 87.507 100.805 87.1248 101.095C86.8892 101.267 86.6897 101.483 86.5377 101.732C86.3858 101.981 86.2843 102.257 86.2392 102.545C86.1545 103.125 86.3026 103.715 86.651 104.186C86.8227 104.423 87.0395 104.623 87.2887 104.775C87.538 104.927 87.8148 105.029 88.1034 105.073C88.6827 105.157 89.2716 105.008 89.7413 104.658C90.2109 104.308 90.5231 103.786 90.6096 103.206C90.6943 102.626 90.5462 102.036 90.1978 101.565C90.0278 101.328 89.8121 101.128 89.5634 100.975C89.3147 100.823 89.0381 100.722 88.7499 100.678C88.6488 100.662 88.5467 100.653 88.4443 100.652H88.4532Z" fill="#ECF1F7"/>
<path d="M94.3247 19.459H94.1963C93.9743 19.4217 93.7748 19.3012 93.6384 19.1219C93.5714 19.032 93.5228 18.9296 93.4954 18.8208C93.4681 18.712 93.4625 18.5988 93.479 18.4878C93.5151 18.2639 93.6355 18.0623 93.8155 17.9246C93.9055 17.8581 94.0079 17.8101 94.1166 17.7834C94.2252 17.7568 94.3381 17.752 94.4487 17.7694C94.5591 17.7848 94.6654 17.8222 94.7612 17.8793C94.857 17.9364 94.9404 18.0121 95.0066 18.102C95.0743 18.1916 95.1232 18.2939 95.1506 18.4028C95.178 18.5118 95.1832 18.6251 95.166 18.7361C95.1353 18.9375 95.0335 19.1211 94.8792 19.2537C94.7248 19.3864 94.5281 19.4592 94.3247 19.459ZM94.3247 18.1951C94.2374 18.1971 94.1527 18.2249 94.0812 18.2749C93.9948 18.3408 93.9376 18.4379 93.9218 18.5454C93.9061 18.652 93.9332 18.7604 93.997 18.847C94.0639 18.9331 94.16 18.9915 94.2671 19.0111C94.3755 19.0257 94.4852 18.997 94.5727 18.9312C94.6164 18.9006 94.6532 18.861 94.6806 18.8152C94.7081 18.7693 94.7256 18.7182 94.7321 18.6652C94.7412 18.6117 94.7392 18.557 94.7263 18.5043C94.7133 18.4517 94.6897 18.4023 94.6568 18.3592C94.6253 18.3153 94.585 18.2784 94.5385 18.2509C94.492 18.2235 94.4403 18.206 94.3867 18.1995L94.3247 18.1951Z" fill="#ECF1F7"/>
<path d="M107.52 21.4102C107.477 21.4146 107.434 21.4146 107.392 21.4102L97.0301 19.8758C96.9186 19.8604 96.8113 19.8226 96.7146 19.7647C96.618 19.7068 96.534 19.63 96.4678 19.5388C96.3359 19.3555 96.2789 19.1287 96.3084 18.9047C96.3456 18.6823 96.4659 18.4826 96.6449 18.3459C96.7347 18.2788 96.8369 18.2302 96.9456 18.2028C97.0542 18.1754 97.1672 18.1698 97.2781 18.1862L107.644 19.7206C107.867 19.7552 108.067 19.8763 108.202 20.0576C108.27 20.1471 108.319 20.2494 108.346 20.3584C108.374 20.4674 108.379 20.5808 108.361 20.6918C108.346 20.8028 108.308 20.9095 108.25 21.0055C108.192 21.1015 108.116 21.1849 108.025 21.2506C107.878 21.3574 107.701 21.4134 107.52 21.4102ZM97.1541 18.612C97.0556 18.6119 96.9603 18.6472 96.8856 18.7115C96.8108 18.7758 96.7616 18.8648 96.7467 18.9623C96.7336 19.0701 96.7604 19.179 96.822 19.2683C96.8541 19.3116 96.8945 19.3481 96.9409 19.3755C96.9873 19.4029 97.0387 19.4208 97.0921 19.4279L107.458 20.9623C107.562 20.9726 107.666 20.9424 107.748 20.878C107.831 20.8136 107.885 20.7199 107.901 20.6164C107.91 20.5637 107.907 20.5097 107.894 20.4578C107.881 20.4059 107.858 20.3573 107.826 20.3149C107.759 20.2288 107.663 20.1703 107.555 20.1508L97.2117 18.612H97.1541Z" fill="#ECF1F7"/>
<path d="M109.61 78.2705L81.2712 74.0709C81.0495 74.0391 80.8241 74.0963 80.6442 74.23C80.4642 74.3637 80.3443 74.5631 80.3104 74.7849L79.2255 82.1463C79.2086 82.2568 79.2138 82.3695 79.2409 82.478C79.2679 82.5864 79.3162 82.6884 79.383 82.7779C79.4497 82.8675 79.5336 82.9428 79.6297 82.9996C79.7258 83.0564 79.8323 83.0935 79.9428 83.1086L104.173 86.6962L106.666 90.1463L107.108 87.1352L108.277 87.3082C108.499 87.3399 108.724 87.2826 108.903 87.1489C109.082 87.0151 109.201 86.8157 109.234 86.5942L110.332 79.2328C110.348 79.1221 110.342 79.0092 110.315 78.9008C110.287 78.7923 110.239 78.6904 110.172 78.6009C110.104 78.5115 110.02 78.4362 109.924 78.3795C109.828 78.3228 109.721 78.2857 109.61 78.2705Z" fill="#26BC80"/>
<path d="M104.177 86.9047H104.142L79.9119 83.3126C79.6351 83.2776 79.3835 83.1341 79.2122 82.9135C79.0442 82.6855 78.9726 82.4003 79.013 82.1197L80.1023 74.7583C80.1233 74.6205 80.1713 74.4882 80.2435 74.369C80.3157 74.2498 80.4107 74.1461 80.5229 74.0637C80.6352 73.9813 80.7627 73.9219 80.8979 73.8889C81.0331 73.8559 81.1736 73.85 81.3111 73.8714L87.8601 74.8426C87.9182 74.8503 87.9708 74.8808 88.0065 74.9273C88.0422 74.9739 88.058 75.0327 88.0505 75.0909C88.0417 75.1495 88.0103 75.2022 87.9632 75.2379C87.916 75.2735 87.8567 75.2892 87.7981 75.2816L81.2712 74.2927C81.1081 74.2685 80.942 74.31 80.8093 74.408C80.6765 74.506 80.5879 74.6527 80.5628 74.816L79.4735 82.1818C79.4548 82.3395 79.4976 82.4984 79.593 82.6253C79.691 82.7584 79.8373 82.8476 80.0004 82.8736L104.208 86.4612C104.237 86.4655 104.265 86.4755 104.29 86.4906C104.315 86.5056 104.336 86.5255 104.354 86.5489C104.371 86.5724 104.383 86.5991 104.39 86.6274C104.397 86.6557 104.399 86.6851 104.394 86.714C104.388 86.7669 104.362 86.8155 104.322 86.8507C104.282 86.8859 104.23 86.9051 104.177 86.9047Z" fill="#243762"/>
<path d="M114.127 47.7605L85.7876 43.561C85.6768 43.5433 85.5636 43.5478 85.4545 43.5742C85.3454 43.6006 85.2426 43.6484 85.1521 43.7148C85.0615 43.7811 84.985 43.8648 84.9269 43.9609C84.8687 44.0571 84.8302 44.1638 84.8135 44.2749L83.7286 51.6364C83.7117 51.7462 83.7166 51.8583 83.7431 51.9662C83.7695 52.0741 83.8171 52.1757 83.8829 52.2652C83.9488 52.3546 84.0316 52.4301 84.1267 52.4874C84.2219 52.5446 84.3273 52.5824 84.4371 52.5987L108.667 56.1863L111.164 59.6364L111.607 56.6253L112.776 56.7982C112.886 56.8146 112.998 56.8091 113.106 56.782C113.214 56.755 113.315 56.7069 113.404 56.6406C113.494 56.5743 113.569 56.4911 113.626 56.3956C113.683 56.3001 113.721 56.1943 113.737 56.0843L114.826 48.7184C114.858 48.4988 114.803 48.2754 114.672 48.0962C114.541 47.9171 114.345 47.7966 114.127 47.7605Z" fill="#26BC80"/>
<path d="M111.315 60.204L108.556 56.3947L84.4194 52.816C84.1426 52.7712 83.8945 52.6191 83.7288 52.3925C83.563 52.166 83.493 51.8832 83.5338 51.6053C83.5436 51.5476 83.5754 51.4959 83.6225 51.4612C83.6696 51.4264 83.7283 51.4113 83.7862 51.4191C83.815 51.4234 83.8427 51.4334 83.8676 51.4484C83.8926 51.4635 83.9143 51.4833 83.9316 51.5068C83.9489 51.5303 83.9613 51.557 83.9683 51.5853C83.9753 51.6136 83.9766 51.643 83.9722 51.6718C83.9518 51.829 83.9931 51.988 84.0873 52.1153C84.187 52.2487 84.3348 52.3378 84.4991 52.3636L108.818 55.9645L111.032 59.0466L111.43 56.3548L112.82 56.5588C112.977 56.5792 113.136 56.5379 113.263 56.4435C113.396 56.3454 113.485 56.1988 113.511 56.0355L114.233 51.1574C114.237 51.1286 114.247 51.1009 114.262 51.0759C114.277 51.0509 114.297 51.0292 114.321 51.0119C114.344 50.9946 114.371 50.9821 114.399 50.9751C114.427 50.9681 114.457 50.9668 114.485 50.9712C114.514 50.9755 114.542 50.9855 114.567 51.0005C114.592 51.0156 114.613 51.0354 114.631 51.0589C114.648 51.0824 114.66 51.1091 114.667 51.1374C114.674 51.1657 114.676 51.1951 114.671 51.2239L113.95 56.102C113.929 56.2409 113.882 56.3743 113.809 56.4946C113.737 56.6149 113.642 56.7196 113.529 56.8027C113.417 56.8878 113.289 56.9493 113.153 56.9836C113.017 57.0179 112.875 57.0242 112.736 57.0022L111.784 56.8603L111.315 60.204Z" fill="#243762"/>
<path d="M78.2558 57.2461L106.595 61.4457C106.705 61.4619 106.81 61.4998 106.906 61.5569C107.001 61.6141 107.084 61.6895 107.15 61.7789C107.217 61.8683 107.265 61.9698 107.292 62.0778C107.319 62.1857 107.324 62.2979 107.308 62.408L106.218 69.7694C106.204 69.8807 106.167 69.9879 106.111 70.0849C106.054 70.1819 105.979 70.2666 105.89 70.3343C105.801 70.402 105.699 70.4512 105.59 70.4791C105.481 70.5069 105.368 70.5129 105.258 70.4967L81.0321 66.9047L77.6447 69.4812L78.0875 66.4701L76.9186 66.2971C76.8088 66.2809 76.7033 66.243 76.6082 66.1858C76.5131 66.1286 76.4302 66.0531 76.3644 65.9636C76.2985 65.8742 76.251 65.7726 76.2245 65.6646C76.198 65.5567 76.1931 65.4446 76.2101 65.3348L77.2949 57.9734C77.3102 57.8624 77.3471 57.7555 77.4037 57.6588C77.4603 57.5621 77.5353 57.4775 77.6246 57.41C77.7139 57.3424 77.8156 57.2931 77.9239 57.265C78.0322 57.2369 78.145 57.2305 78.2558 57.2461Z" fill="#7CBC79"/>
<path d="M105.386 70.714C105.333 70.7184 105.28 70.7184 105.227 70.714L90.1006 68.4745C90.0718 68.4702 90.0442 68.4602 90.0192 68.4451C89.9943 68.4301 89.9725 68.4102 89.9553 68.3868C89.938 68.3633 89.9255 68.3366 89.9185 68.3083C89.9116 68.28 89.9103 68.2506 89.9147 68.2217C89.9245 68.164 89.9562 68.1123 90.0033 68.0776C90.0504 68.0429 90.1091 68.0278 90.167 68.0355L105.293 70.2528C105.45 70.2732 105.609 70.2319 105.736 70.1375C105.869 70.0394 105.958 69.8928 105.984 69.7295L107.069 62.3636C107.093 62.2002 107.051 62.0339 106.953 61.901C106.856 61.768 106.709 61.6793 106.546 61.6541C106.488 61.6464 106.435 61.6159 106.4 61.5693C106.364 61.5228 106.348 61.464 106.356 61.4058C106.365 61.3472 106.396 61.2945 106.443 61.2588C106.49 61.2232 106.549 61.2075 106.608 61.2151C106.886 61.2598 107.135 61.4126 107.301 61.6401C107.466 61.8677 107.536 62.1516 107.494 62.4302L106.409 69.7916C106.385 69.9319 106.333 70.066 106.257 70.1863C106.181 70.3065 106.082 70.4105 105.966 70.4922C105.799 70.6221 105.597 70.6993 105.386 70.714Z" fill="#243762"/>
<path d="M69.8494 88.308L68.8301 95.213L109.458 101.229L110.477 94.3237L69.8494 88.308Z" fill="white"/>
<path d="M75.8426 92.6696C75.7955 92.9913 75.6854 93.3006 75.5187 93.5796C75.352 93.8586 75.1319 94.102 74.8711 94.2956C74.6102 94.4892 74.3138 94.6294 73.9988 94.7081C73.6837 94.7867 73.3563 94.8023 73.0352 94.7539C72.7144 94.7067 72.406 94.5966 72.1277 94.4299C71.8495 94.2633 71.6067 94.0433 71.4134 93.7825C71.2201 93.5218 71.08 93.2255 71.0012 92.9105C70.9224 92.5955 70.9064 92.268 70.9541 91.9468C71.0473 91.2986 71.3933 90.7139 71.9161 90.3208C72.439 89.9276 73.0962 89.758 73.7437 89.8492C74.0669 89.8953 74.3778 90.005 74.6585 90.172C74.9391 90.339 75.1841 90.5599 75.3792 90.822C75.5742 91.0842 75.7156 91.3824 75.7951 91.6995C75.8747 92.0165 75.8908 92.3463 75.8426 92.6696Z" fill="#C5D9FF"/>
<path opacity="0.33" d="M105.802 99.3659C105.694 99.3671 105.586 99.3597 105.479 99.3437L79.1499 95.4412C78.8622 95.3979 78.5862 95.297 78.3382 95.1447C78.0902 94.9923 77.8753 94.7915 77.7064 94.5543C77.5317 94.3223 77.4052 94.0575 77.3345 93.7757C77.2638 93.4939 77.2502 93.2007 77.2946 92.9135C77.3832 92.3362 77.6956 91.8173 78.1641 91.4694C78.6325 91.1215 79.2191 90.9727 79.7964 91.0554L106.125 94.9579C106.702 95.0466 107.22 95.3595 107.567 95.8287C107.915 96.2978 108.063 96.8852 107.98 97.4634C107.905 97.9893 107.644 98.4706 107.244 98.8198C106.844 99.169 106.332 99.3627 105.802 99.3659ZM105.545 98.9224C106.006 98.9873 106.474 98.8678 106.848 98.5898C107.222 98.3118 107.471 97.8976 107.542 97.4368C107.581 97.2044 107.572 96.9665 107.516 96.7376C107.459 96.5088 107.357 96.294 107.214 96.1064C107.078 95.9218 106.906 95.7661 106.71 95.6481C106.513 95.5301 106.295 95.4523 106.068 95.4191L79.7388 91.5166C79.2757 91.4479 78.8043 91.5656 78.4276 91.844C78.0509 92.1224 77.7996 92.5388 77.7285 93.0022C77.6908 93.2346 77.7004 93.4723 77.7567 93.7009C77.813 93.9295 77.9149 94.1444 78.0562 94.3326C78.1931 94.5196 78.3657 94.6775 78.5642 94.7971C78.7626 94.9166 78.9828 94.9954 79.2119 95.0288L105.545 98.9224Z" fill="#AF9CDA"/>
<path d="M82.4357 24.2217H82.3073C82.0823 24.1835 81.8808 24.0598 81.7446 23.8764C81.6085 23.6929 81.5484 23.464 81.5767 23.2372C81.6118 23.0094 81.7341 22.8042 81.9176 22.6652C82.1035 22.5282 82.3355 22.4693 82.5641 22.5011C82.7899 22.5393 82.9922 22.6637 83.1284 22.8481C83.2647 23.0325 83.3243 23.2625 83.2947 23.49C83.2587 23.6929 83.1533 23.877 82.9965 24.0105C82.8398 24.144 82.6415 24.2187 82.4357 24.2217ZM82.4357 22.9268C82.3449 22.9283 82.2568 22.9577 82.1833 23.0111C82.0938 23.0794 82.0336 23.1793 82.015 23.2905C82.0009 23.4017 82.0294 23.5142 82.0947 23.6053C82.163 23.6949 82.2627 23.7552 82.3737 23.7738C82.4845 23.7858 82.5958 23.7554 82.6852 23.6889C82.7747 23.6223 82.8358 23.5243 82.8564 23.4146C82.8705 23.3034 82.842 23.1908 82.7766 23.0998C82.7084 23.0101 82.6087 22.9499 82.4977 22.9312L82.4357 22.9268Z" fill="white"/>
<path d="M84.8355 24.5765H84.7071C84.4813 24.5393 84.2787 24.416 84.1417 24.2325C84.0047 24.049 83.9439 23.8194 83.9721 23.592C84.0103 23.3659 84.1344 23.1633 84.3186 23.0269C84.5027 22.8904 84.7324 22.8307 84.9595 22.8603C85.0724 22.8749 85.1811 22.9128 85.2786 22.9716C85.3762 23.0303 85.4605 23.1087 85.5263 23.2018C85.595 23.2926 85.6449 23.3963 85.673 23.5067C85.7011 23.6172 85.7069 23.7321 85.6901 23.8448C85.6736 23.9573 85.6349 24.0654 85.5764 24.1628C85.5179 24.2602 85.4407 24.3451 85.3492 24.4124C85.2004 24.5218 85.02 24.5794 84.8355 24.5765ZM84.8355 23.2816C84.7345 23.285 84.6377 23.323 84.5612 23.3891C84.4846 23.4553 84.433 23.5456 84.4149 23.6452C84.4007 23.7565 84.4292 23.869 84.4946 23.9601C84.5628 24.0497 84.6626 24.11 84.7736 24.1286C84.8847 24.1428 84.997 24.1143 85.0879 24.0488C85.1335 24.0161 85.1719 23.9745 85.2008 23.9265C85.2298 23.8784 85.2486 23.825 85.2562 23.7694C85.2703 23.6581 85.2419 23.5456 85.1765 23.4546C85.1083 23.3649 85.0085 23.3047 84.8975 23.286L84.8355 23.2816Z" fill="white"/>
<path d="M87.1823 24.9268H87.0539C86.8289 24.8886 86.6273 24.7649 86.4912 24.5815C86.3551 24.3981 86.2949 24.1691 86.3233 23.9424C86.3614 23.7162 86.4856 23.5136 86.6697 23.3772C86.8538 23.2408 87.0836 23.1811 87.3107 23.2107C87.5357 23.2489 87.7372 23.3726 87.8733 23.556C88.0094 23.7394 88.0696 23.9684 88.0413 24.1951C88.0053 24.3981 87.8999 24.5821 87.7431 24.7156C87.5864 24.8492 87.3881 24.9238 87.1823 24.9268ZM87.1823 23.6319C87.0912 23.6313 87.0024 23.6609 86.9299 23.7162C86.8843 23.7489 86.8459 23.7905 86.817 23.8385C86.7881 23.8866 86.7692 23.94 86.7616 23.9956C86.7475 24.1068 86.776 24.2194 86.8413 24.3104C86.9096 24.4001 87.0093 24.4603 87.1203 24.479C87.2311 24.4909 87.3424 24.4606 87.4318 24.394C87.5213 24.3274 87.5824 24.2295 87.6029 24.1197C87.6149 24.0088 87.5846 23.8973 87.5181 23.8077C87.4516 23.7181 87.3538 23.6569 87.2443 23.6364L87.1823 23.6319Z" fill="white"/>
<path d="M120.237 32.1242L82.5995 26.5543C82.5411 26.5455 82.4884 26.5142 82.4528 26.4669C82.4172 26.4196 82.4015 26.3603 82.4091 26.3016C82.4189 26.2438 82.4507 26.1922 82.4978 26.1574C82.5448 26.1227 82.6035 26.1076 82.6615 26.1153L120.268 31.6852C120.297 31.6895 120.325 31.6995 120.35 31.7145C120.375 31.7296 120.396 31.7494 120.414 31.7729C120.431 31.7964 120.443 31.823 120.45 31.8514C120.457 31.8797 120.459 31.9091 120.454 31.9379C120.447 31.99 120.421 32.0376 120.381 32.0719C120.341 32.1061 120.29 32.1247 120.237 32.1242Z" fill="#243762"/>
<path d="M104.576 79.9645H104.545L84.477 76.9934C84.4194 76.9835 84.3678 76.9517 84.3331 76.9046C84.2984 76.8574 84.2833 76.7986 84.291 76.7406C84.2948 76.7115 84.3044 76.6835 84.3192 76.6582C84.3341 76.6329 84.3539 76.6109 84.3775 76.5935C84.4011 76.5761 84.428 76.5636 84.4565 76.5569C84.485 76.5502 84.5146 76.5493 84.5434 76.5543L104.611 79.5255C104.64 79.5298 104.667 79.5398 104.692 79.5549C104.717 79.5699 104.739 79.5898 104.756 79.6133C104.774 79.6367 104.786 79.6634 104.793 79.6917C104.8 79.72 104.801 79.7495 104.797 79.7783C104.788 79.8307 104.761 79.8784 104.721 79.9126C104.68 79.9468 104.629 79.9652 104.576 79.9645Z" fill="white"/>
<path d="M92.6997 80.6563H92.6643L84.1227 79.3925C84.0927 79.3893 84.0636 79.3799 84.0373 79.3651C84.011 79.3502 83.9881 79.3301 83.9698 79.306C83.9516 79.2819 83.9384 79.2543 83.9312 79.225C83.924 79.1956 83.9229 79.1651 83.9279 79.1353C83.9322 79.1064 83.9422 79.0787 83.9572 79.0537C83.9722 79.0287 83.992 79.007 84.0155 78.9897C84.0389 78.9724 84.0655 78.9599 84.0938 78.9529C84.1221 78.9459 84.1515 78.9446 84.1803 78.949L92.7218 80.2173C92.7791 80.2261 92.8307 80.257 92.8654 80.3034C92.9002 80.3499 92.9154 80.4081 92.9078 80.4656C92.9007 80.5167 92.876 80.5637 92.838 80.5985C92.8 80.6333 92.7511 80.6537 92.6997 80.6563Z" fill="white"/>
<path d="M89.8216 82.5233H89.7862L83.7951 81.6364C83.7661 81.6326 83.7381 81.623 83.7129 81.6081C83.6876 81.5932 83.6656 81.5734 83.6483 81.5497C83.6309 81.5261 83.6185 81.4992 83.6117 81.4707C83.605 81.4421 83.6041 81.4125 83.6092 81.3836C83.6179 81.3262 83.6488 81.2746 83.6952 81.2398C83.7415 81.2049 83.7997 81.1897 83.8571 81.1973L89.8526 82.0842C89.9099 82.093 89.9615 82.124 89.9962 82.1704C90.031 82.2168 90.0462 82.2751 90.0386 82.3326C90.0312 82.3851 90.0052 82.4332 89.9654 82.4682C89.9256 82.5032 89.8746 82.5227 89.8216 82.5233Z" fill="white"/>
<path d="M104.221 82.3636H104.19L95.3653 81.0599C95.3365 81.0555 95.3088 81.0456 95.2839 81.0305C95.2589 81.0154 95.2372 80.9956 95.2199 80.9721C95.2026 80.9486 95.1902 80.922 95.1832 80.8937C95.1762 80.8653 95.1749 80.8359 95.1793 80.8071C95.1831 80.7784 95.1926 80.7508 95.2071 80.7259C95.2217 80.7009 95.2411 80.6791 95.2642 80.6618C95.2873 80.6444 95.3136 80.6319 95.3416 80.6249C95.3696 80.6178 95.3987 80.6165 95.4273 80.6208L104.257 81.929C104.314 81.9378 104.365 81.9688 104.4 82.0152C104.435 82.0616 104.45 82.1198 104.443 82.1774C104.433 82.2295 104.406 82.2766 104.366 82.3106C104.325 82.3447 104.274 82.3634 104.221 82.3636Z" fill="white"/>
<path d="M102.127 63.2905H102.083L82.0282 60.2971C81.971 60.2883 81.9194 60.2574 81.8846 60.211C81.8498 60.1646 81.8346 60.1063 81.8423 60.0488C81.8461 60.0196 81.8556 59.9914 81.8704 59.9659C81.8852 59.9404 81.905 59.9181 81.9285 59.9004C81.952 59.8826 81.9788 59.8697 82.0073 59.8625C82.0358 59.8552 82.0655 59.8537 82.0947 59.8581L102.158 62.8337C102.186 62.8375 102.214 62.847 102.239 62.8616C102.264 62.8762 102.286 62.8956 102.303 62.9188C102.32 62.9419 102.333 62.9682 102.34 62.9963C102.347 63.0243 102.348 63.0535 102.344 63.0821C102.34 63.1378 102.316 63.1902 102.276 63.2288C102.236 63.2674 102.183 63.2895 102.127 63.2905Z" fill="white"/>
<path d="M90.2463 63.9823H90.2153L81.6738 62.7184C81.6161 62.7086 81.5645 62.6767 81.5299 62.6296C81.4952 62.5825 81.4801 62.5237 81.4878 62.4656C81.4976 62.4079 81.5294 62.3562 81.5765 62.3215C81.6236 62.2868 81.6822 62.2717 81.7402 62.2794L90.2818 63.5432C90.3394 63.5531 90.391 63.5849 90.4257 63.632C90.4604 63.6792 90.4755 63.738 90.4677 63.796C90.4584 63.8481 90.4312 63.8952 90.3907 63.9293C90.3503 63.9633 90.2992 63.9821 90.2463 63.9823Z" fill="white"/>
<path d="M99.1203 67.5876H99.0893L81.7715 64.8958C81.7427 64.8915 81.7151 64.8815 81.6901 64.8664C81.6652 64.8514 81.6434 64.8315 81.6262 64.808C81.6089 64.7846 81.5964 64.7579 81.5894 64.7296C81.5825 64.7013 81.5811 64.6718 81.5855 64.643C81.5954 64.5853 81.6271 64.5336 81.6742 64.4989C81.7213 64.4641 81.78 64.449 81.8379 64.4568L99.1558 67.1486C99.2134 67.1584 99.265 67.1902 99.2997 67.2374C99.3344 67.2845 99.3494 67.3433 99.3417 67.4013C99.3332 67.4538 99.3062 67.5015 99.2656 67.5357C99.2249 67.5698 99.1734 67.5883 99.1203 67.5876Z" fill="white"/>
<path d="M101.772 65.6896H101.741L92.912 64.3814C92.8547 64.3726 92.8032 64.3417 92.7684 64.2952C92.7336 64.2488 92.7184 64.1906 92.726 64.133C92.7298 64.1038 92.7394 64.0756 92.7542 64.0501C92.769 64.0246 92.7888 64.0024 92.8123 63.9846C92.8358 63.9669 92.8626 63.954 92.8911 63.9467C92.9196 63.9395 92.9493 63.938 92.9784 63.9423L101.803 65.2506C101.832 65.2549 101.86 65.2649 101.885 65.2799C101.91 65.295 101.931 65.3148 101.949 65.3383C101.966 65.3618 101.979 65.3884 101.985 65.4168C101.992 65.4451 101.994 65.4745 101.989 65.5033C101.981 65.555 101.955 65.6021 101.915 65.6362C101.875 65.6703 101.825 65.6892 101.772 65.6896Z" fill="white"/>
<path d="M81.8954 29.5654L110.234 33.765C110.455 33.7999 110.652 33.9207 110.784 34.1009C110.916 34.2812 110.972 34.5063 110.938 34.7273L109.849 42.0887C109.833 42.1988 109.795 42.3046 109.738 42.4C109.681 42.4955 109.606 42.5788 109.516 42.6451C109.427 42.7114 109.326 42.7594 109.218 42.7865C109.11 42.8135 108.998 42.819 108.888 42.8027L84.6628 39.2107L81.271 41.7872L81.7138 38.7761L80.5448 38.6031C80.4349 38.5868 80.3293 38.549 80.2339 38.4919C80.1386 38.4347 80.0555 38.3593 79.9893 38.2699C79.9231 38.1805 79.8751 38.079 79.8481 37.971C79.8211 37.8631 79.8156 37.7509 79.8319 37.6408L80.9212 30.2794C80.9374 30.168 80.9755 30.061 81.0335 29.9645C81.0914 29.8681 81.168 29.7842 81.2587 29.7177C81.3494 29.6512 81.4524 29.6035 81.5617 29.5774C81.671 29.5512 81.7845 29.5472 81.8954 29.5654Z" fill="#7CBC79"/>
<path d="M109.858 42.3104H109.827C109.798 42.3066 109.771 42.2972 109.746 42.2826C109.721 42.268 109.699 42.2485 109.682 42.2254C109.664 42.2023 109.652 42.1759 109.645 42.1479C109.638 42.1198 109.637 42.0907 109.641 42.0621L110.726 34.6962C110.746 34.5391 110.705 34.3801 110.611 34.2528C110.513 34.1196 110.366 34.0304 110.203 34.0044L92.6065 31.4013C92.5777 31.397 92.55 31.387 92.5251 31.372C92.5001 31.3569 92.4784 31.3371 92.4611 31.3136C92.4439 31.2901 92.4314 31.2635 92.4244 31.2351C92.4174 31.2068 92.4161 31.1774 92.4205 31.1486C92.4293 31.0912 92.4602 31.0396 92.5065 31.0047C92.5529 30.9699 92.611 30.9547 92.6685 30.9623L110.265 33.5654C110.406 33.5884 110.54 33.6396 110.66 33.7158C110.78 33.792 110.884 33.8917 110.965 34.0089C111.05 34.1209 111.111 34.2489 111.146 34.3854C111.18 34.5218 111.186 34.6637 111.164 34.8027L110.075 42.1153C110.068 42.1686 110.043 42.2178 110.003 42.2537C109.963 42.2896 109.912 42.3097 109.858 42.3104Z" fill="#243762"/>
<path d="M105.766 35.6098H105.735L85.6679 32.6341C85.6106 32.6254 85.559 32.5944 85.5243 32.548C85.4895 32.5016 85.4743 32.4433 85.4819 32.3858C85.4907 32.3273 85.522 32.2745 85.5692 32.2389C85.6164 32.2032 85.6757 32.1875 85.7343 32.1951L105.797 35.1707C105.855 35.1795 105.906 35.2104 105.941 35.2569C105.976 35.3033 105.991 35.3615 105.983 35.4191C105.976 35.4716 105.95 35.5197 105.91 35.5547C105.87 35.5897 105.819 35.6092 105.766 35.6098Z" fill="white"/>
<path d="M93.8865 36.3015H93.8555L85.3139 35.0199C85.2563 35.0101 85.2047 34.9783 85.17 34.9311C85.1353 34.884 85.1202 34.8252 85.1279 34.7672C85.1323 34.7383 85.1422 34.7106 85.1573 34.6856C85.1723 34.6607 85.1921 34.6389 85.2156 34.6216C85.239 34.6043 85.2656 34.5918 85.2939 34.5848C85.3222 34.5778 85.3516 34.5765 85.3803 34.5809L93.9175 35.8448C93.9759 35.8536 94.0286 35.885 94.0642 35.9322C94.0998 35.9795 94.1155 36.0388 94.1079 36.0975C94.1024 36.1528 94.0769 36.2042 94.036 36.2418C93.9952 36.2795 93.942 36.3007 93.8865 36.3015Z" fill="white"/>
<path d="M102.76 39.898H102.725L85.4112 37.2373C85.3824 37.2329 85.3547 37.223 85.3298 37.2079C85.3048 37.1928 85.2831 37.173 85.2658 37.1495C85.2485 37.126 85.2361 37.0994 85.2291 37.0711C85.2221 37.0427 85.2208 37.0133 85.2252 36.9845C85.235 36.9268 85.2668 36.8751 85.3139 36.8404C85.3609 36.8056 85.4196 36.7905 85.4776 36.7982L102.795 39.4546C102.853 39.4644 102.905 39.4962 102.939 39.5434C102.974 39.5905 102.989 39.6493 102.981 39.7073C102.974 39.7606 102.947 39.8093 102.907 39.8444C102.866 39.8795 102.814 39.8985 102.76 39.898Z" fill="white"/>
<path d="M105.413 38.0089H105.382L96.5522 36.6785C96.4949 36.6697 96.4433 36.6388 96.4085 36.5923C96.3738 36.5459 96.3586 36.4877 96.3662 36.4301C96.37 36.4009 96.3796 36.3727 96.3944 36.3472C96.4092 36.3217 96.4289 36.2995 96.4524 36.2817C96.4759 36.264 96.5027 36.2511 96.5312 36.2438C96.5598 36.2366 96.5895 36.2351 96.6186 36.2395L105.444 37.5477C105.501 37.5575 105.553 37.5893 105.587 37.6365C105.622 37.6836 105.637 37.7424 105.63 37.8004C105.626 37.8561 105.602 37.9085 105.562 37.9472C105.522 37.9858 105.468 38.0078 105.413 38.0089Z" fill="white"/>
<path d="M109.101 49.7384H109.07L89.0025 46.7672C88.9737 46.7629 88.946 46.7529 88.9211 46.7378C88.8961 46.7228 88.8744 46.7029 88.8571 46.6795C88.8398 46.656 88.8274 46.6293 88.8204 46.601C88.8134 46.5727 88.8121 46.5433 88.8165 46.5144C88.8208 46.4856 88.8308 46.4579 88.8458 46.4329C88.8609 46.4079 88.8807 46.3862 88.9041 46.3688C88.9276 46.3515 88.9542 46.339 88.9825 46.3321C89.0107 46.3251 89.0401 46.3238 89.0689 46.3282L109.132 49.3038C109.189 49.3126 109.241 49.3435 109.276 49.3899C109.31 49.4363 109.326 49.4946 109.318 49.5521C109.31 49.6038 109.283 49.6509 109.244 49.685C109.204 49.7191 109.153 49.738 109.101 49.7384Z" fill="white"/>
<path d="M97.2119 50.4302L88.6704 49.1663C88.6127 49.1565 88.5611 49.1246 88.5264 49.0775C88.4918 49.0304 88.4767 48.9716 88.4844 48.9135C88.4942 48.8558 88.526 48.8041 88.5731 48.7694C88.6201 48.7346 88.6788 48.7196 88.7368 48.7273L97.2739 49.9911C97.3324 49.9999 97.3851 50.0313 97.4207 50.0786C97.4563 50.1258 97.4719 50.1852 97.4643 50.2439C97.4545 50.3016 97.4227 50.3533 97.3757 50.388C97.3286 50.4228 97.2699 50.4379 97.2119 50.4302Z" fill="white"/>
<path d="M94.3423 52.3149H94.3113L88.3159 51.4279C88.2582 51.4181 88.2066 51.3863 88.172 51.3391C88.1373 51.292 88.1222 51.2332 88.1299 51.1752C88.1397 51.1174 88.1715 51.0658 88.2186 51.031C88.2656 50.9963 88.3243 50.9812 88.3823 50.9889L94.3778 51.8758C94.4066 51.8802 94.4342 51.8901 94.4592 51.9052C94.4841 51.9203 94.5059 51.9401 94.5231 51.9636C94.5404 51.9871 94.5529 52.0137 94.5599 52.042C94.5668 52.0704 94.5681 52.0998 94.5637 52.1286C94.5553 52.1811 94.5282 52.2287 94.4876 52.2629C94.447 52.2971 94.3954 52.3155 94.3423 52.3149Z" fill="white"/>
<path d="M108.747 52.1375H108.724L99.8951 50.8071C99.8663 50.8028 99.8386 50.7928 99.8137 50.7777C99.7887 50.7627 99.767 50.7428 99.7497 50.7194C99.7324 50.6959 99.7199 50.6692 99.713 50.6409C99.706 50.6126 99.7047 50.5832 99.7091 50.5543C99.7134 50.5255 99.7234 50.4978 99.7384 50.4728C99.7534 50.4478 99.7732 50.426 99.7967 50.4087C99.8201 50.3914 99.8468 50.3789 99.875 50.372C99.9033 50.365 99.9327 50.3637 99.9615 50.3681L108.786 51.6763C108.815 51.68 108.843 51.6896 108.869 51.7045C108.894 51.7194 108.916 51.7393 108.933 51.7629C108.951 51.7865 108.963 51.8134 108.97 51.842C108.977 51.8705 108.977 51.9001 108.972 51.929C108.969 51.9863 108.944 52.04 108.901 52.0788C108.859 52.1177 108.804 52.1387 108.747 52.1375Z" fill="white"/>
<path d="M68.3016 103.667L22.844 108.794C22.6356 108.82 22.4241 108.804 22.2218 108.747C22.0196 108.691 21.8306 108.594 21.6658 108.464C21.501 108.334 21.3637 108.172 21.2619 107.988C21.1601 107.804 21.0958 107.602 21.0728 107.392L17.7917 78.2262C17.7903 78.204 17.7973 78.1822 17.8112 78.1649C17.8252 78.1477 17.845 78.1363 17.8669 78.133L66.3178 72.6696C66.3289 72.6684 66.3401 72.6694 66.3508 72.6725C66.3614 72.6756 66.3714 72.6809 66.38 72.6879C66.3887 72.6949 66.3959 72.7035 66.4012 72.7133C66.4064 72.7232 66.4097 72.7339 66.4108 72.745L69.692 101.916C69.7393 102.333 69.6194 102.751 69.3587 103.08C69.098 103.408 68.7178 103.62 68.3016 103.667Z" fill="#DDA824"/>
<path d="M22.6666 109.029C22.221 109.027 21.7914 108.862 21.4592 108.565C21.127 108.267 20.9154 107.858 20.8644 107.415L17.5833 78.2528C17.5746 78.1722 17.5982 78.0915 17.6488 78.0283C17.6994 77.9652 17.773 77.9247 17.8534 77.9157L66.2955 72.4479C66.3759 72.4392 66.4565 72.4628 66.5196 72.5135C66.5826 72.5642 66.6231 72.6379 66.632 72.7184L69.9131 101.894C69.9419 102.13 69.923 102.369 69.8576 102.597C69.7922 102.826 69.6816 103.039 69.5323 103.224C69.2335 103.598 68.7989 103.839 68.3235 103.894L22.8703 109.016L22.6666 109.029ZM18.0394 78.3415L21.3072 107.366C21.3271 107.545 21.382 107.719 21.4689 107.876C21.5558 108.034 21.6729 108.173 21.8136 108.286C21.9542 108.398 22.1157 108.482 22.2887 108.532C22.4617 108.582 22.6428 108.597 22.8216 108.576L68.2748 103.446C68.633 103.406 68.9609 103.226 69.1869 102.945C69.2983 102.805 69.3811 102.644 69.4305 102.472C69.4798 102.3 69.4949 102.12 69.4747 101.942L66.2158 72.9047L18.0394 78.3415Z" fill="#243762"/>
<path opacity="0.29" d="M66.1716 103.667L25.0667 108.794C24.1811 108.896 37.806 91.4102 37.7042 90.5366L17.8049 78.2262C17.8035 78.204 17.8105 78.1822 17.8244 78.1649C17.8383 78.1477 17.8582 78.1363 17.8801 78.133L66.3177 72.6696C66.3288 72.6684 66.34 72.6694 66.3507 72.6725C66.3613 72.6756 66.3713 72.6809 66.3799 72.6879C66.3886 72.6949 66.3958 72.7035 66.4011 72.7133C66.4063 72.7232 66.4096 72.7339 66.4107 72.745L49.8324 89.1663C49.9387 90.0355 67.0351 103.57 66.1716 103.667Z" fill="#243762"/>
<path d="M17.88 78.133L37.9078 58.2927C38.4884 57.7167 39.2458 57.3531 40.0578 57.2606C40.8699 57.1681 41.6894 57.352 42.3844 57.7827L66.2158 72.5942C66.2241 72.5988 66.231 72.6056 66.2359 72.6138C66.2407 72.622 66.2432 72.6313 66.2432 72.6408C66.2432 72.6503 66.2407 72.6596 66.2359 72.6678C66.231 72.676 66.2241 72.6828 66.2158 72.6874L17.7959 78.1463" fill="#DDA824"/>
<path d="M40.1264 87.4767L25.0713 108.461L66.1762 103.823L46.8348 86.7228C46.3581 86.3011 45.7985 85.9842 45.192 85.7923C44.5855 85.6005 43.9456 85.5381 43.3136 85.6091C42.6815 85.6802 42.0714 85.883 41.5224 86.2047C40.9734 86.5264 40.4979 86.9597 40.1264 87.4767Z" fill="#F7A9B4"/>
<path d="M24.5928 108.736L39.9446 87.3481C40.3344 86.8073 40.8328 86.3539 41.4077 86.0172C41.9826 85.6804 42.6215 85.4676 43.2833 85.3925C43.9457 85.3177 44.6164 85.3824 45.2523 85.5825C45.8883 85.7826 46.4755 86.1136 46.9762 86.5543L66.6895 103.987L24.5928 108.736ZM43.8102 85.8049C43.6489 85.805 43.4878 85.8139 43.3275 85.8315C42.7273 85.9 42.1479 86.0931 41.6264 86.3985C41.1049 86.704 40.6527 87.115 40.2988 87.6053L25.5404 108.191L65.649 103.667L46.6795 86.9047C45.8903 86.2006 44.8715 85.8094 43.8146 85.8049H43.8102Z" fill="#243762"/>
<path d="M20.3242 63.7605L51.9842 60.1907C54.061 59.9556 55.9074 61.2284 56.1111 63.0333L58.1436 81.1397L49.3407 89.2461L37.704 90.5765L26.2134 83.357L24.243 65.8315L20.3242 63.7605Z" fill="white"/>
<path d="M37.6554 90.7672L26.0054 83.4679L24.035 65.9557L21.0195 63.459L51.9578 59.969C52.9825 59.8415 54.0186 60.0887 54.8758 60.6652C55.2732 60.9264 55.609 61.2712 55.8598 61.6756C56.1106 62.0799 56.2705 62.5342 56.3282 63.0067L58.3784 81.1885L49.4383 89.4191L37.6554 90.7672ZM26.4217 83.2284L37.7573 90.3237L49.2434 89.0288L57.9134 81.0466L55.8898 63.0687C55.8378 62.6593 55.6976 62.266 55.479 61.9161C55.2603 61.5662 54.9684 61.268 54.6234 61.0421C53.8551 60.5281 52.9279 60.3078 52.0109 60.4213L21.0505 63.9024L24.4335 65.6763L26.4217 83.2284Z" fill="#243762"/>
<path opacity="0.29" d="M40.1264 85.6674L25.0713 108.461L66.1762 103.823L46.8348 84.9135C46.3584 84.4912 45.7989 84.1736 45.1923 83.9814C44.5857 83.7892 43.9456 83.7266 43.3133 83.7976C42.6811 83.8687 42.0708 84.0718 41.5218 84.3939C40.9728 84.716 40.4975 85.1498 40.1264 85.6674Z" fill="#243762"/>
<path d="M40.1264 87.4767L25.0713 108.461L66.1762 103.823L46.8348 86.7228C46.3581 86.3011 45.7985 85.9842 45.192 85.7923C44.5855 85.6005 43.9456 85.5381 43.3136 85.6091C42.6815 85.6802 42.0714 85.883 41.5224 86.2047C40.9734 86.5264 40.4979 86.9597 40.1264 87.4767Z" fill="#DDA824"/>
<path d="M24.5928 108.736L39.9446 87.3481C40.3344 86.8073 40.8328 86.3539 41.4077 86.0172C41.9826 85.6804 42.6215 85.4676 43.2833 85.3925C43.9457 85.3177 44.6164 85.3824 45.2523 85.5825C45.8883 85.7826 46.4755 86.1136 46.9762 86.5543L66.6895 103.987L24.5928 108.736ZM43.8102 85.8049C43.6489 85.805 43.4878 85.8139 43.3275 85.8315C42.7273 85.9 42.1479 86.0931 41.6264 86.3985C41.1049 86.704 40.6527 87.115 40.2988 87.6053L25.5404 108.191L65.649 103.667L46.6795 86.9047C45.8903 86.2006 44.8715 85.8094 43.8146 85.8049H43.8102Z" fill="#243762"/>
<path opacity="0.35" d="M41.5831 92.1242L30.5132 107.53L60.6987 104.124L46.4937 91.5654C46.1436 91.2587 45.7335 91.0285 45.2895 90.8896C44.8455 90.7507 44.3774 90.7061 43.9152 90.7587C43.453 90.8113 43.0069 90.9599 42.6053 91.195C42.2038 91.4301 41.8556 91.7466 41.5831 92.1242Z" fill="#DDA824"/>
<path d="M18.0125 77.985L17.7783 78.3614L37.5867 90.7239L37.8209 90.3475L18.0125 77.985Z" fill="#243762"/>
<path d="M66.2502 72.5383L49.689 89.009L50.001 89.3236L66.5623 72.853L66.2502 72.5383Z" fill="#243762"/>
<path d="M25.1201 73.8891L19.594 74.5144L18.7084 66.6208C18.63 65.9199 18.8327 65.2165 19.2719 64.6652C19.7112 64.1139 20.351 63.7598 21.0508 63.6807L21.3032 63.6497C22.0024 63.5724 22.7036 63.776 23.2531 64.2158C23.8026 64.6555 24.1555 65.2956 24.2345 65.9956L25.1201 73.8891Z" fill="#ECF1F7"/>
<path d="M19.3991 74.7583L18.487 66.643C18.4426 66.2678 18.4734 65.8874 18.5776 65.5242C18.6817 65.161 18.8572 64.8222 19.0936 64.5277C19.3287 64.2315 19.6199 63.9846 19.9504 63.8013C20.2809 63.6179 20.6443 63.5016 21.0198 63.459L21.2722 63.4324C21.6475 63.3891 22.0277 63.4205 22.391 63.5247C22.7542 63.629 23.0933 63.8041 23.3887 64.0399C23.6839 64.2756 23.9297 64.5674 24.112 64.8984C24.2944 65.2294 24.4097 65.5932 24.4514 65.969L25.3636 74.0843L19.3991 74.7583ZM21.6131 63.8581C21.5186 63.8581 21.4257 63.8581 21.3342 63.8581L21.0862 63.8891C20.7693 63.9211 20.4621 64.016 20.1823 64.1683C19.9025 64.3206 19.6558 64.5272 19.4567 64.7761C19.0566 65.2755 18.8703 65.9133 18.9386 66.5499L19.8021 74.2262L24.8898 73.6497L24.0264 65.9778C23.9933 65.6608 23.898 65.3535 23.746 65.0734C23.594 64.7934 23.3884 64.5462 23.1408 64.3459C22.7012 64.004 22.1561 63.8268 21.5998 63.8448L21.6131 63.8581Z" fill="#243762"/>
<path d="M28.8702 69.7783C28.816 69.7796 28.7634 69.7601 28.723 69.7239C28.6827 69.6876 28.6577 69.6373 28.6532 69.5832C28.6489 69.5542 28.6506 69.5246 28.6582 69.4963C28.6658 69.4679 28.6792 69.4415 28.6974 69.4186C28.7157 69.3957 28.7386 69.3768 28.7645 69.3632C28.7904 69.3495 28.8188 69.3414 28.8481 69.3393L51.785 66.7495C51.8154 66.7438 51.8467 66.7445 51.8768 66.7517C51.9069 66.7589 51.9352 66.7723 51.9599 66.7911C51.9845 66.8099 52.0049 66.8337 52.0198 66.8609C52.0346 66.8881 52.0436 66.9181 52.0462 66.949C52.0506 66.978 52.0489 67.0076 52.0413 67.0359C52.0337 67.0642 52.0203 67.0907 52.002 67.1136C51.9837 67.1365 51.9609 67.1554 51.935 67.169C51.909 67.1827 51.8806 67.1908 51.8514 67.1929L28.9145 69.7827L28.8702 69.7783Z" fill="#243762"/>
<path d="M29.7515 77.592C29.6967 77.5913 29.644 77.5707 29.6033 77.534C29.5625 77.4973 29.5365 77.447 29.5301 77.3925C29.5238 77.3343 29.5408 77.276 29.5773 77.2303C29.6138 77.1846 29.6669 77.1552 29.7249 77.1486L52.6662 74.5588C52.7243 74.5525 52.7825 74.5695 52.8281 74.6061C52.8738 74.6426 52.9031 74.6958 52.9098 74.7539C52.9161 74.8125 52.8992 74.8714 52.8628 74.9177C52.8264 74.9641 52.7733 74.9945 52.7149 75.0022L29.7736 77.592H29.7515Z" fill="#243762"/>
<path d="M29.3042 73.6408C29.2496 73.641 29.1969 73.6205 29.1567 73.5835C29.1165 73.5466 29.0917 73.4957 29.0872 73.4412C29.0835 73.4123 29.0857 73.383 29.0935 73.3549C29.1014 73.3269 29.1148 73.3007 29.133 73.2779C29.1512 73.2552 29.1737 73.2363 29.1993 73.2225C29.2249 73.2086 29.2531 73.2001 29.282 73.1973L39.2051 72.0798C39.2637 72.0735 39.3224 72.0904 39.3687 72.1268C39.4151 72.1633 39.4453 72.2164 39.4531 72.2749C39.4593 72.3331 39.4423 72.3914 39.4058 72.4371C39.3693 72.4828 39.3163 72.5122 39.2583 72.5188L29.344 73.6364L29.3042 73.6408Z" fill="#243762"/>
<path d="M41.8135 72.2262C41.7591 72.2266 41.7064 72.2069 41.6656 72.1709C41.6248 72.1349 41.5986 72.0851 41.5921 72.031C41.5859 71.9729 41.6028 71.9146 41.6393 71.8689C41.6758 71.8232 41.7289 71.7938 41.7869 71.7871L52.2192 70.6075C52.2483 70.6045 52.2777 70.6072 52.3058 70.6156C52.3338 70.624 52.3599 70.6379 52.3825 70.6564C52.4052 70.675 52.4239 70.6979 52.4377 70.7237C52.4515 70.7496 52.46 70.7779 52.4628 70.8071C52.4664 70.836 52.4643 70.8654 52.4564 70.8934C52.4486 70.9215 52.4351 70.9476 52.417 70.9704C52.3988 70.9932 52.3762 71.012 52.3506 71.0259C52.325 71.0397 52.2969 71.0483 52.2679 71.051L41.8622 72.2262H41.8135Z" fill="#243762"/>
<path d="M30.2475 82.0266C30.1934 82.0261 30.1413 82.0061 30.1006 81.9702C30.06 81.9344 30.0335 81.8852 30.0261 81.8315C30.0231 81.8023 30.0258 81.7729 30.0342 81.7448C30.0426 81.7167 30.0564 81.6906 30.075 81.6679C30.0935 81.6452 30.1163 81.6265 30.1421 81.6127C30.168 81.5989 30.1962 81.5904 30.2254 81.5876L40.1352 80.4656C40.1933 80.4615 40.2509 80.4792 40.2968 80.5153C40.3426 80.5513 40.3734 80.6032 40.3832 80.6608C40.3894 80.7201 40.3719 80.7795 40.3346 80.826C40.2973 80.8725 40.2431 80.9024 40.1839 80.9091L30.2741 82.0266H30.2475Z" fill="#243762"/>
</svg>
