<svg width="40" height="34" viewBox="0 0 40 34" fill="none" xmlns="http://www.w3.org/2000/svg">
<path d="M25.1245 9.20592C25.1245 9.20592 24.5642 4.63157 31.5201 2.85787C31.5201 2.85787 39.0352 1.69083 39.4555 0.570068C39.4555 0.570068 37.6355 4.35138 36.9813 8.78564C36.9813 8.78564 35.2076 15.8342 29.9791 14.1067C24.7505 12.3793 25.1245 9.20592 25.1245 9.20592ZM10.9912 5.34706C10.9912 5.34706 14.5386 6.97066 17.1829 7.6311C17.1829 7.6311 22.6541 9.19466 20.6703 12.6207C20.6703 12.6207 20.3088 13.445 19.4569 14.2431C17.1929 16.3645 13.4041 15.5014 12.3134 12.597C12.0882 11.9978 11.9794 11.3098 12.0732 10.5318C12.4935 7.02945 10.9912 5.34706 10.9912 5.34706Z" fill="#8BC540"/>
<path d="M23.0169 21.478C23.0094 21.468 21.5046 18.212 20.8904 17.0825C20.1487 15.6378 18.7077 13.3687 18.0522 12.4982C15.2891 8.74561 13.5467 7.24834 10.9912 5.3458C13.5392 7.05946 15.4055 8.46917 18.4413 12.2042C19.1455 13.0523 20.7128 15.2738 21.5421 16.7123C22.2313 17.8468 23.1257 19.5092 23.7486 20.9289L23.0169 21.478Z" fill="#7FB241"/>
<path d="M32.2981 5.98874C31.1661 6.98066 29.1847 9.11336 27.022 11.939C26.1402 13.1899 24.6954 15.19 23.4246 17.6717C22.6716 19.1251 22.4727 20.5999 23.2957 22.0972H24.3177C23.6222 20.8325 23.6185 19.334 24.2839 18.0369C25.4322 15.579 26.7431 13.5939 27.5661 12.323C29.5675 9.48361 31.4188 7.30713 32.5433 6.24016C35.4515 3.42826 36.3709 2.76531 39.4555 0.766453C37.1451 2.13863 35.8155 2.84786 32.2981 5.98874Z" fill="#7FB241"/>
<path d="M6.20667 21.094C6.20667 21.094 7.5188 21.2441 9.99423 20.0808C12.4697 18.9187 14.9826 19.7055 14.9826 19.7055C14.9826 19.7055 18.1335 21.2053 19.2205 21.468C20.3075 21.7307 22.6703 21.7307 25.0332 21.6181C25.0332 21.6181 28.1841 21.0177 28.8583 22.9302C28.8583 22.9302 29.7213 22.7426 31.1461 21.9921C31.1461 21.9921 38.0095 18.5135 39.6593 19.9157C39.6593 19.9157 40.7838 20.9426 38.9464 22.1797C38.9464 22.1797 31.445 27.0555 26.9069 29.0806C26.9069 29.0806 25.3321 29.681 22.1437 32.194C22.1437 32.194 20.9817 32.7194 19.5182 31.8187C19.5182 31.8187 11.5303 27.6559 7.6664 29.3058L6.20667 21.094Z" fill="#FFD83B"/>
<path d="M29.1135 23.6257C29.1135 25.901 23.9612 26.1799 23.9612 26.1799C23.1882 26.5877 22.0725 26.674 22.0725 26.674C21.2144 26.4163 17.0928 26.2875 17.0928 26.2875C14.7312 26.5452 13.5292 25.6871 13.5292 25.6871C13.5292 25.6871 14.431 26.7178 16.7063 26.674C16.7063 26.674 20.4414 26.5026 21.322 27.3607C21.322 27.3607 22.8392 27.7472 24.1739 26.7165C24.1739 26.7165 24.9494 26.2437 25.8513 26.2437C25.8513 26.2437 28.5994 25.986 29.1135 24.4412V23.6257Z" fill="#F3C432"/>
<path d="M26.7982 22.1384L25.9026 22.2473C25.6937 22.2723 25.5449 22.4624 25.5699 22.6725L25.8413 24.8941C25.8663 25.1029 26.0565 25.2518 26.2666 25.2268L27.1622 25.118C27.9853 25.0179 28.5707 24.2699 28.4693 23.4468C28.368 22.6238 27.62 22.0384 26.7982 22.1384ZM39.9371 21.0802C37.2953 21.2491 37.4467 23.0503 37.4467 23.0503L37.4842 23.1153C38.3898 22.5462 38.949 22.1822 38.949 22.1822C39.5394 21.7844 39.8233 21.4079 39.9371 21.0802Z" fill="white"/>
<path d="M8.21426 31.7212L4.98332 32.3479L3.09705 21.5143L6.21666 20.9038L8.21426 31.7212Z" fill="#E8EFF3"/>
<path d="M0 33.4298L5.04842 32.5955L3.00203 20.9038L0 21.4705V33.4298Z" fill="#3F4347"/>
</svg>
