<svg width="40" height="40" viewBox="0 0 40 40" fill="none" xmlns="http://www.w3.org/2000/svg">
<circle cx="20" cy="20" r="20" fill="#DDA824"/>
<path d="M13 27.25H14.4L23.025 18.625L21.625 17.225L13 25.85V27.25ZM27.3 17.175L23.05 12.975L24.45 11.575C24.8333 11.1917 25.3043 11 25.863 11C26.4217 11 26.8923 11.1917 27.275 11.575L28.675 12.975C29.0583 13.3583 29.2583 13.821 29.275 14.363C29.2917 14.905 29.1083 15.3673 28.725 15.75L27.3 17.175ZM25.85 18.65L15.25 29.25H11V25L21.6 14.4L25.85 18.65ZM22.325 17.925L21.625 17.225L23.025 18.625L22.325 17.925Z" fill="white"/>
</svg>
