<svg width="40" height="40" viewBox="0 0 40 40" fill="none" xmlns="http://www.w3.org/2000/svg">
<circle cx="20" cy="20" r="20" fill="#FA4C34"/>
<path d="M22.28 10C22.6998 10.0001 23.1088 10.1323 23.4493 10.3778C23.7898 10.6233 24.0444 10.9698 24.177 11.368L24.72 13H28C28.2652 13 28.5196 13.1054 28.7071 13.2929C28.8946 13.4804 29 13.7348 29 14C29 14.2652 28.8946 14.5196 28.7071 14.7071C28.5196 14.8946 28.2652 15 28 15L27.997 15.071L27.13 27.214C27.0759 27.9706 26.7372 28.6786 26.182 29.1956C25.6269 29.7125 24.8965 29.9999 24.138 30H15.862C15.1035 29.9999 14.3731 29.7125 13.818 29.1956C13.2628 28.6786 12.9241 27.9706 12.87 27.214L12.003 15.07C12.0012 15.0467 12.0002 15.0234 12 15C11.7348 15 11.4804 14.8946 11.2929 14.7071C11.1054 14.5196 11 14.2652 11 14C11 13.7348 11.1054 13.4804 11.2929 13.2929C11.4804 13.1054 11.7348 13 12 13H15.28L15.823 11.368C15.9557 10.9696 16.2104 10.6231 16.5511 10.3775C16.8918 10.132 17.3011 9.9999 17.721 10H22.28ZM25.997 15H14.003L14.865 27.071C14.883 27.3232 14.9958 27.5592 15.1808 27.7316C15.3657 27.904 15.6092 27.9999 15.862 28H24.138C24.3908 27.9999 24.6343 27.904 24.8192 27.7316C25.0042 27.5592 25.117 27.3232 25.135 27.071L25.997 15ZM18 18C18.2449 18 18.4813 18.09 18.6644 18.2527C18.8474 18.4155 18.9643 18.6397 18.993 18.883L19 19V24C18.9997 24.2549 18.9021 24.5 18.7272 24.6854C18.5522 24.8707 18.313 24.9822 18.0586 24.9972C17.8042 25.0121 17.5536 24.9293 17.3582 24.7657C17.1627 24.6021 17.0371 24.3701 17.007 24.117L17 24V19C17 18.7348 17.1054 18.4804 17.2929 18.2929C17.4804 18.1054 17.7348 18 18 18ZM22 18C22.2652 18 22.5196 18.1054 22.7071 18.2929C22.8946 18.4804 23 18.7348 23 19V24C23 24.2652 22.8946 24.5196 22.7071 24.7071C22.5196 24.8946 22.2652 25 22 25C21.7348 25 21.4804 24.8946 21.2929 24.7071C21.1054 24.5196 21 24.2652 21 24V19C21 18.7348 21.1054 18.4804 21.2929 18.2929C21.4804 18.1054 21.7348 18 22 18ZM22.28 12H17.72L17.387 13H22.613L22.28 12Z" fill="white"/>
</svg>
