<svg width="27" height="27" viewBox="0 0 27 27" fill="none" xmlns="http://www.w3.org/2000/svg">
<circle cx="13.5" cy="13.5" r="13.5" fill="#26BC80"/>
<path d="M21.2727 12.2592H8.48278L12.3323 8.28947C12.4017 8.22028 12.4571 8.13752 12.4953 8.04602C12.5334 7.95452 12.5534 7.8561 12.5543 7.75652C12.5551 7.65693 12.5367 7.55817 12.5001 7.466C12.4636 7.37383 12.4096 7.29009 12.3413 7.21967C12.273 7.14925 12.1918 7.09356 12.1024 7.05585C12.013 7.01814 11.9173 6.99916 11.8207 7.00003C11.7241 7.00089 11.6287 7.02158 11.54 7.06089C11.4512 7.1002 11.371 7.15733 11.3039 7.22897L6.21294 12.479C6.07659 12.6196 6 12.8103 6 13.0092C6 13.2081 6.07659 13.3988 6.21294 13.5395L11.3039 18.7895C11.4411 18.9261 11.6248 19.0017 11.8155 19C12.0062 18.9983 12.1886 18.9194 12.3234 18.7803C12.4583 18.6413 12.5347 18.4532 12.5364 18.2565C12.5381 18.0599 12.4647 17.8704 12.3323 17.729L8.48278 13.7592H21.2727C21.4656 13.7592 21.6506 13.6802 21.787 13.5395C21.9234 13.3989 22 13.2081 22 13.0092C22 12.8103 21.9234 12.6195 21.787 12.4789C21.6506 12.3382 21.4656 12.2592 21.2727 12.2592Z" fill="white"/>
</svg>
