<svg width="28" height="28" viewBox="0 0 28 28" fill="none" xmlns="http://www.w3.org/2000/svg">
<path d="M14.9923 18.7528C15.9238 18.7528 16.8425 18.9697 17.6756 19.3863L25.5949 23.3459C26.1338 23.6154 26.5994 24.0115 26.9517 24.5003C27.304 24.989 27.5325 25.556 27.6177 26.1524C27.7342 26.9681 27.1013 27.6979 26.2774 27.6979H1.57065C0.746697 27.6979 0.11377 26.9681 0.23029 26.1524C0.315502 25.556 0.544049 24.989 0.896349 24.5003C1.24865 24.0115 1.7142 23.6154 2.25311 23.3459L10.1724 19.3863C11.0055 18.9697 11.9242 18.7528 12.8557 18.7528H14.9923Z" fill="#026CA2"/>
<path d="M11.4393 18.7528H16.4088V27.6979H11.4393V18.7528Z" fill="#CBCBCB"/>
<path d="M11.4393 16.7651V18.7529L10.9423 20.2437V20.7406H16.9057V20.2437L16.4087 18.7529V16.7651H11.4393Z" fill="#FDC9A6"/>
<path d="M16.4088 16.7651V17.9851C16.4038 17.9888 16.3982 17.9919 16.3933 17.9956C15.6617 18.4909 14.7981 18.7548 13.9147 18.7529C13.0312 18.751 12.1688 18.4835 11.4393 17.9851V16.7651H16.4088Z" fill="#FDC9A6"/>
<path d="M16.4088 16.7651V17.9851C16.4038 17.9888 16.3982 17.9919 16.3933 17.9956C15.6617 18.4909 14.7981 18.7548 13.9147 18.7529C13.0312 18.751 12.1688 18.4835 11.4393 17.9851V16.7651H16.4088Z" fill="#E6AF89"/>
<path d="M2.49426 27.6979V25.7101C2.49426 25.5783 2.54662 25.4519 2.63981 25.3587C2.73301 25.2655 2.85941 25.2132 2.99121 25.2132C3.12301 25.2132 3.24941 25.2655 3.3426 25.3587C3.4358 25.4519 3.48815 25.5783 3.48815 25.7101V27.6979H2.49426ZM24.3599 27.6979V25.7101C24.3599 25.5783 24.4122 25.4519 24.5054 25.3587C24.5986 25.2655 24.725 25.2132 24.8568 25.2132C24.9886 25.2132 25.115 25.2655 25.2082 25.3587C25.3014 25.4519 25.3538 25.5783 25.3538 25.7101V27.6979H24.3599Z" fill="#015078"/>
<path d="M12.3622 21.5216L12.9301 23.2254H14.9179L15.4859 21.5216L13.924 20.7407L12.3622 21.5216Z" fill="#0296E5"/>
<path d="M12.9302 23.2254L12.4332 27.6979H15.4149L14.918 23.2254H12.9302Z" fill="#026CA2"/>
<path d="M20.4417 8.06373L20.6542 7.21892C20.8778 6.33002 20.8841 5.40036 20.6726 4.50852C20.4611 3.61667 20.0379 2.78887 19.4389 2.0951C18.8308 1.2825 17.9993 0.664526 17.0459 0.316634C16.0924 -0.0312594 15.0583 -0.0940213 14.0698 0.136011C13.7402 0.212789 13.4119 0.289132 13.0986 0.361935C12.4218 0.519091 11.788 0.823605 11.2425 1.25377C10.6969 1.68394 10.2529 2.22916 9.9422 2.85058H9.81026C9.38836 2.8506 8.97225 2.94884 8.59489 3.13752C8.21753 3.3262 7.88928 3.60014 7.63612 3.93765C7.20362 4.51432 7.01792 5.23917 7.11986 5.95276L7.45747 8.31698L7.63842 9.80782H19.8873L20.2964 8.56502C20.3508 8.39966 20.3993 8.23256 20.4417 8.06373Z" fill="#55300B"/>
<path d="M13.9241 17.759C13.0439 17.759 12.1839 17.4952 11.4551 17.0017C10.7262 16.5083 10.162 15.8078 9.83505 14.9905C9.25345 13.5365 8.95463 11.9849 8.95465 10.4189V6.82616L10.4455 4.29608C11.2323 5.09725 12.1708 5.73362 13.2063 6.16802C14.2418 6.60243 15.3535 6.82616 16.4764 6.82616H18.8936V10.4189C18.8936 11.985 18.5948 13.5367 18.0132 14.9908C17.6862 15.808 17.1219 16.5084 16.3931 17.0019C15.6642 17.4953 14.8043 17.759 13.9241 17.759Z" fill="#FDC9A6"/>
<path d="M16.9056 8.81396H15.4147C15.2829 8.81396 15.1565 8.7616 15.0633 8.66841C14.9701 8.57521 14.9178 8.44881 14.9178 8.31701C14.9178 8.18522 14.9701 8.05882 15.0633 7.96562C15.1565 7.87242 15.2829 7.82007 15.4147 7.82007H16.9056C17.0374 7.82007 17.1638 7.87242 17.257 7.96562C17.3502 8.05882 17.4025 8.18522 17.4025 8.31701C17.4025 8.44881 17.3502 8.57521 17.257 8.66841C17.1638 8.7616 17.0374 8.81396 16.9056 8.81396Z" fill="#55300B"/>
<path d="M16.0359 10.5533C16.379 10.5533 16.6571 10.2752 16.6571 9.9321C16.6571 9.58903 16.379 9.31091 16.0359 9.31091C15.6928 9.31091 15.4147 9.58903 15.4147 9.9321C15.4147 10.2752 15.6928 10.5533 16.0359 10.5533Z" fill="#55300B"/>
<path d="M12.4331 8.81396H10.9423C10.8105 8.81396 10.6841 8.7616 10.5909 8.66841C10.4977 8.57521 10.4453 8.44881 10.4453 8.31701C10.4453 8.18522 10.4977 8.05882 10.5909 7.96562C10.6841 7.87242 10.8105 7.82007 10.9423 7.82007H12.4331C12.5649 7.82007 12.6913 7.87242 12.7845 7.96562C12.8777 8.05882 12.93 8.18522 12.93 8.31701C12.93 8.44881 12.8777 8.57521 12.7845 8.66841C12.6913 8.7616 12.5649 8.81396 12.4331 8.81396Z" fill="#55300B"/>
<path d="M11.8119 10.5533C12.155 10.5533 12.4331 10.2752 12.4331 9.9321C12.4331 9.58903 12.155 9.31091 11.8119 9.31091C11.4688 9.31091 11.1907 9.58903 11.1907 9.9321C11.1907 10.2752 11.4688 10.5533 11.8119 10.5533Z" fill="#55300B"/>
<path d="M14.918 14.7773H12.9302C12.7984 14.7773 12.672 14.7249 12.5788 14.6317C12.4856 14.5385 12.4332 14.4121 12.4332 14.2803C12.4332 14.1485 12.4856 14.0221 12.5788 13.9289C12.672 13.8357 12.7984 13.7834 12.9302 13.7834H14.918C15.0498 13.7834 15.1762 13.8357 15.2694 13.9289C15.3625 14.0221 15.4149 14.1485 15.4149 14.2803C15.4149 14.4121 15.3625 14.5385 15.2694 14.6317C15.1762 14.7249 15.0498 14.7773 14.918 14.7773ZM14.421 12.7895H13.4271C13.2953 12.7895 13.1689 12.7371 13.0757 12.6439C12.9825 12.5507 12.9302 12.4243 12.9302 12.2925V10.8017C12.9302 10.6699 12.9825 10.5435 13.0757 10.4503C13.1689 10.3571 13.2953 10.3047 13.4271 10.3047C13.5589 10.3047 13.6853 10.3571 13.7785 10.4503C13.8717 10.5435 13.9241 10.6699 13.9241 10.8017V11.7956H14.421C14.5528 11.7956 14.6792 11.8479 14.7724 11.9411C14.8656 12.0343 14.918 12.1607 14.918 12.2925C14.918 12.4243 14.8656 12.5507 14.7724 12.6439C14.6792 12.7371 14.5528 12.7895 14.421 12.7895Z" fill="#E6AF89"/>
<path d="M8.95458 8.31702H8.2678C7.92275 8.31702 7.59184 8.45409 7.34785 8.69807C7.10387 8.94206 6.9668 9.27297 6.9668 9.61802V10.4946C6.9668 10.6966 7.01382 10.8958 7.10414 11.0764C7.21219 11.2925 7.37828 11.4743 7.58381 11.6013C7.78934 11.7284 8.02619 11.7956 8.2678 11.7956H9.14094L8.95458 8.31702ZM18.8935 8.31702H19.5803C19.9253 8.31702 20.2562 8.45409 20.5002 8.69807C20.7442 8.94206 20.8813 9.27297 20.8813 9.61802V10.4946C20.8813 10.6966 20.8343 10.8958 20.7439 11.0764C20.6359 11.2925 20.4698 11.4743 20.2643 11.6013C20.0587 11.7284 19.8219 11.7956 19.5803 11.7956H18.7071L18.8935 8.31702Z" fill="#FDC9A6"/>
<path d="M11.4393 18.7528L13.924 20.7406L10.9423 22.2315V20.2437L11.4393 18.7528ZM16.4087 18.7528L13.924 20.7406L16.9057 22.2315V20.2437L16.4087 18.7528Z" fill="#EBEBEB"/>
<path d="M11.4393 27.6979H8.95452L7.46368 23.2254L11.4393 18.7528V27.6979ZM16.4087 27.6979H18.8934L20.3843 23.2254L16.4087 18.7528V27.6979Z" fill="#0296E5"/>
</svg>
