<svg width="40" height="40" viewBox="0 0 40 40" fill="none" xmlns="http://www.w3.org/2000/svg">
<path d="M21.4146 10.5569V15.533H23.4604C24.2015 15.533 24.8022 14.9323 24.8022 14.1912V11.8986C24.8022 11.1576 24.2015 10.5568 23.4604 10.5568H21.4146V10.5569ZM9.68771 10.5569V15.533H7.64185C6.90083 15.533 6.30005 14.9323 6.30005 14.1912V11.8986C6.30005 11.1576 6.90075 10.5568 7.64185 10.5568H9.68771V10.5569Z" fill="#9BC4F9"/>
<path d="M33.2629 0.0251465H28.0923C27.1227 0.0251465 26.3368 0.811084 26.3368 1.78062V6.85812C26.3368 7.82765 27.1227 8.61358 28.0923 8.61358C28.6653 8.61358 28.7498 8.72069 28.9336 8.8953H32.173C32.3611 8.71679 32.4681 8.61358 33.0471 8.61358H33.2981V8.61319C34.2506 8.59359 35.0168 7.81538 35.0168 6.85819V1.78054C35.0168 0.811553 34.2317 0.0260059 33.2629 0.0251465Z" fill="#B3E59F"/>
<path d="M38.2445 0.0251465H32.9863C33.9559 0.0251465 34.7418 0.811084 34.7418 1.78061V6.85811C34.7418 7.8153 33.9757 8.59358 33.0231 8.61311V8.61382C33.0311 8.61366 33.0391 8.61351 33.0471 8.61351H38.2446C39.2141 8.61351 40.0001 7.82757 40.0001 6.85804V1.78054C40 0.811084 39.2141 0.0251465 38.2445 0.0251465Z" fill="#95D6A4"/>
<path d="M37.2973 3.60179H32.0304C31.8703 3.60179 31.7168 3.53819 31.6036 3.425C31.4904 3.3118 31.4268 3.15828 31.4268 2.99819C31.4268 2.83811 31.4904 2.68458 31.6036 2.57139C31.7168 2.45819 31.8703 2.3946 32.0304 2.3946H37.2973C37.4574 2.3946 37.6109 2.45819 37.7241 2.57139C37.8373 2.68458 37.9009 2.83811 37.9009 2.99819C37.9009 3.15828 37.8373 3.3118 37.7241 3.425C37.6109 3.53819 37.4574 3.60179 37.2973 3.60179ZM29.6815 3.60179H29.0395C28.8794 3.60179 28.7259 3.53819 28.6127 3.425C28.4995 3.3118 28.4359 3.15828 28.4359 2.99819C28.4359 2.83811 28.4995 2.68458 28.6127 2.57139C28.7259 2.45819 28.8794 2.3946 29.0395 2.3946H29.6815C29.8415 2.3946 29.9951 2.45819 30.1083 2.57139C30.2215 2.68458 30.2851 2.83811 30.2851 2.99819C30.2851 3.15828 30.2215 3.3118 30.1083 3.425C29.9951 3.53819 29.8415 3.60179 29.6815 3.60179ZM37.2973 6.43733H29.0395C28.8794 6.43733 28.7259 6.37374 28.6127 6.26055C28.4995 6.14735 28.4359 5.99382 28.4359 5.83374C28.4359 5.67366 28.4995 5.52013 28.6127 5.40693C28.7259 5.29374 28.8794 5.23015 29.0395 5.23015H37.2973C37.4574 5.23015 37.6109 5.29374 37.7241 5.40693C37.8373 5.52013 37.9009 5.67366 37.9009 5.83374C37.9009 5.99382 37.8373 6.14735 37.7241 6.26055C37.6109 6.37374 37.4574 6.43733 37.2973 6.43733Z" fill="#F2F9FF"/>
<path d="M20.3366 24.5862C19.5091 24.4269 18.911 23.7028 18.911 22.8601V18.0323H12.1911V22.8601C12.1911 23.721 11.5699 24.4317 10.7655 24.5862L12.4257 26.8142H18.6765C18.6764 26.8142 20.4649 24.6109 20.3366 24.5862Z" fill="#FFDDCE"/>
<path d="M30.6192 38.0077V35.1388C30.6192 30.162 27.087 25.8852 22.1999 24.9447C21.7213 24.8526 8.90228 24.9447 8.90228 24.9447C4.01502 25.8853 0.48291 30.162 0.48291 35.1388V38.0077H30.6192Z" fill="#FFD064"/>
<path d="M21.7011 24.4042H4.49161C3.42879 24.4042 2.58387 25.2963 2.64145 26.3575L3.29176 38.339H22.9009L23.5512 26.3575C23.6088 25.2962 22.7639 24.4042 21.7011 24.4042Z" fill="#EAF2FF"/>
<path d="M26.6105 24.4042H21.3523C22.4151 24.4042 23.26 25.2963 23.2025 26.3575L22.5521 38.339H27.8103L28.4607 26.3575C28.5182 25.2962 27.6733 24.4042 26.6105 24.4042Z" fill="#DBE8F9"/>
<path d="M26.0173 38.677V37.6862L25.8061 37.3791H1.29797C0.581094 37.379 0 37.9601 0 38.677C0 39.3937 0.581094 39.9748 1.29797 39.9748H24.7202C25.4366 39.9745 26.0173 39.3935 26.0173 38.677Z" fill="#9BC4F9"/>
<path d="M29.8042 37.379H25.806V38.6769C25.806 39.3937 25.2249 39.9749 24.5081 39.9749H29.8042C30.5209 39.9749 31.1021 39.3938 31.1021 38.6769C31.1022 37.9601 30.5211 37.379 29.8042 37.379Z" fill="#7FB2F9"/>
<path d="M17.1706 37.379C17.1706 36.3153 17.5692 35.2927 18.2808 34.5022L18.2967 34.4844C18.8787 33.8333 19.2325 32.974 19.2325 32.032C19.2325 30.6592 18.481 29.4619 17.367 28.829C17.1557 28.7089 16.8931 28.8599 16.8931 29.103V31.8419C16.8931 32.3009 16.5209 32.6731 16.0619 32.6731H15.04C14.5809 32.6731 14.2088 32.3009 14.2088 31.8419V29.103C14.2088 28.86 13.9462 28.7089 13.7349 28.829C12.6209 29.4619 11.8694 30.6592 11.8694 32.032C11.8694 32.9741 12.2232 33.8333 12.8052 34.4844L12.8211 34.5022C13.5327 35.2927 13.9313 36.3153 13.9313 37.379H17.1706Z" fill="#BCD6F9"/>
<path d="M16.5159 20.1713C17.8545 18.9947 18.591 17.2674 18.6215 15.476L18.5996 6.82491C18.5951 5.75702 18.3479 4.74272 17.8726 3.83038C17.116 3.5491 16.316 3.40233 15.5088 3.39671C12.0552 3.45046 8.93379 6.08952 8.94965 9.89514L8.95496 11.1709L8.97457 15.4548C9.01902 17.2056 9.75301 18.888 11.0711 20.0269C11.8505 20.7004 12.8609 21.3097 14.1204 21.5912C15.081 21.2544 15.876 20.7338 16.5159 20.1713Z" fill="#FFDDCE"/>
<path d="M22.1219 9.83889C22.1093 6.81593 20.117 4.53514 17.5519 3.72186C18.0985 4.64639 18.42 5.7346 18.425 6.94155L18.4464 15.3985C18.4165 17.1497 17.6966 18.8382 16.388 19.9884C15.689 20.6029 14.8006 21.1663 13.7085 21.485C14.2782 21.6512 14.9031 21.7509 15.5854 21.7557C17.5486 21.7251 19.0315 20.9144 20.085 19.9884C21.3936 18.8382 22.1135 17.1497 22.1433 15.3985L22.1219 9.83889Z" fill="#FFCBBE"/>
<path d="M15.3225 7.69062H15.7798C16.4004 7.69327 17.0127 7.57811 17.6037 7.38827C17.9259 7.28459 18.2621 7.23051 18.6006 7.22788L18.5996 6.82491C18.5945 5.6389 18.2903 4.5189 17.7065 3.53132L17.7077 3.53171C17.4821 3.15071 17.2179 2.79396 16.9193 2.4671L16.3922 2.28913H12.5488C9.70391 2.28913 7.39758 4.59538 7.39758 7.44038V10.8446C7.39758 11.3446 7.71399 11.7899 8.18625 11.9543L9.45516 12.3961C9.89868 12.5505 10.3618 12.2208 10.3611 11.7512L10.3583 9.35069C10.3534 8.18327 11.2844 7.23288 12.4377 7.22796L12.4629 7.2278C12.8144 7.22646 13.164 7.28062 13.4986 7.38827C14.0895 7.57811 14.7018 7.69327 15.3225 7.69062Z" fill="#756E78"/>
<path d="M21.6961 4.97601H21.6285C21.4486 4.97599 21.276 4.90451 21.1488 4.7773C21.0216 4.65008 20.9501 4.47755 20.9501 4.29765C20.9501 3.18835 20.0509 2.28913 18.9416 2.28913H16.3922C17.6217 3.42374 18.4171 5.03515 18.4249 6.94147L18.4256 7.23437C18.4967 7.23007 18.5678 7.22749 18.6392 7.2278L18.6643 7.22796C19.8177 7.23296 20.7486 8.18327 20.7438 9.35069L20.7414 11.7514C20.7408 12.2209 21.2039 12.5505 21.6474 12.3962L22.9158 11.9544C23.1462 11.8741 23.3459 11.7242 23.4872 11.5254C23.6285 11.3265 23.7044 11.0886 23.7044 10.8447V6.98452C23.7046 5.87522 22.8053 4.97601 21.6961 4.97601Z" fill="#665E66"/>
<path d="M23.595 15.5263V16.4066C23.595 17.0923 23.0372 17.6501 22.3515 17.6501H18.6352C18.4751 17.6501 18.3216 17.7137 18.2084 17.8269C18.0952 17.9401 18.0316 18.0937 18.0316 18.2537C18.0316 18.4138 18.0952 18.5673 18.2084 18.6805C18.3216 18.7937 18.4751 18.8573 18.6352 18.8573H22.3515C23.7028 18.8573 24.8022 17.758 24.8022 16.4066V14.1912C24.8022 14.8869 24.2728 15.4589 23.595 15.5263Z" fill="#DBE8F9"/>
<path d="M20.1065 19.2013H18.5915C18.0136 19.2013 17.545 18.7328 17.545 18.1548C17.545 17.5769 18.0136 17.1084 18.5915 17.1084H20.1065C20.6844 17.1084 21.1529 17.5769 21.1529 18.1548C21.1529 18.7328 20.6844 19.2013 20.1065 19.2013Z" fill="#DB636E"/>
<path d="M33.0106 8.61335L32.9863 8.61351H28.0923C28.6585 8.61351 29.1174 9.07249 29.1174 9.63874V12.7787C29.1174 13.1774 29.6424 13.3227 29.8475 12.9808L32.1678 9.11147C32.2557 8.96492 32.3788 8.84266 32.526 8.75582C32.6732 8.66897 32.8397 8.62029 33.0105 8.61421V8.61335H33.0106Z" fill="#95D6A4"/>
</svg>
