<svg width="42" height="36" viewBox="0 0 42 36" fill="none" xmlns="http://www.w3.org/2000/svg">
<path d="M19.8313 22.6872C15.6239 22.6872 13.508 17.6186 16.4113 14.6169C16.0668 12.4517 17.6907 10.5571 19.8313 10.5571C21.9473 10.5571 23.5958 12.4517 23.2514 14.6169C26.1547 17.594 24.0633 22.6872 19.8313 22.6872Z" fill="#99D53B"/>
<path d="M19.8313 26.5993C19.5607 26.5993 19.3392 26.3779 19.3392 26.1072V13.4359C19.3392 12.7715 20.3234 12.7715 20.3234 13.4359V26.1072C20.3234 26.3779 20.102 26.5993 19.8313 26.5993Z" fill="#88BA31"/>
<path d="M19.8313 19.6116C19.4869 19.6116 18.0352 18.2092 17.5431 17.7909C17.051 17.348 17.6907 16.6099 18.1828 17.0281L19.8313 18.4552L21.4798 17.0281C21.9473 16.6099 22.6116 17.348 22.1195 17.7909C21.6274 18.2092 20.1758 19.6116 19.8313 19.6116Z" fill="#88BA31"/>
<path d="M7.45515 20.768C2.58345 20.768 0.147594 14.8875 3.54303 11.4429C3.10014 9.00704 4.97009 6.76802 7.45515 6.76802C9.91561 6.76802 11.7856 8.98243 11.3427 11.4429C14.7381 14.8629 12.3269 20.768 7.45515 20.768Z" fill="#25A753"/>
<path d="M7.45523 26.3287C7.15997 26.3287 6.96313 26.1072 6.96313 25.8366V10.0158C6.96313 9.37611 7.94732 9.37611 7.94732 10.0158V25.8366C7.94732 26.1072 7.72588 26.3287 7.45523 26.3287Z" fill="#9CC735"/>
<path d="M7.45523 17.1512C7.33221 17.1512 7.20919 17.1266 7.13538 17.0281L4.82255 15.0598C4.33045 14.6169 4.99478 13.8788 5.48687 14.3216L7.45523 16.0194L9.4236 14.3216C9.91569 13.8788 10.5554 14.6169 10.0633 15.0598L7.77509 17.0281C7.67668 17.1266 7.55365 17.1512 7.45523 17.1512Z" fill="#9CC735"/>
<path d="M34.0281 16.8313C32.5026 16.8313 31.2478 15.5765 31.2478 14.0264C31.2478 12.5009 32.5026 11.2461 34.0281 11.2461C35.5782 11.2461 36.833 12.5009 36.833 14.0264C36.833 15.5765 35.5782 16.8313 34.0281 16.8313Z" fill="#FFCC00"/>
<path d="M34.0281 10.1635C33.3884 10.1635 33.5361 9.3023 33.5361 8.61337C33.5361 7.94905 34.5202 7.94905 34.5202 8.61337C34.5202 9.3023 34.6925 10.1635 34.0281 10.1635ZM36.218 10.754C35.8489 10.754 35.6028 10.3357 35.7997 10.0158C36.1441 9.40072 36.4394 8.58877 37.0053 8.90862C37.5712 9.22848 37.0053 9.89281 36.6362 10.5079C36.5624 10.6555 36.3902 10.754 36.218 10.754ZM37.8172 12.3533C37.3252 12.3533 37.1283 11.6889 37.5712 11.4183C38.1863 11.0738 38.8506 10.5079 39.1705 11.0738C39.5642 11.7382 37.9895 12.3533 37.8172 12.3533ZM39.4658 14.5185C38.7768 14.5185 37.9157 14.6907 37.9157 14.0264C37.9157 13.3867 38.7768 13.5343 39.4658 13.5343C40.1055 13.5343 40.1301 14.5185 39.4658 14.5185ZM38.7522 17.2496C38.5062 17.2496 37.8665 16.8067 37.5712 16.6345C37.0053 16.3146 37.4974 15.478 38.0633 15.7979C38.6784 16.1424 39.4904 16.4376 39.1705 17.0035C39.0721 17.1512 38.9245 17.2496 38.7522 17.2496ZM36.7593 19.2425C36.341 19.2425 36.1195 18.6274 35.7997 18.0615C35.4552 17.4956 36.3164 17.0035 36.6362 17.5694C36.8331 17.8893 37.8172 19.2425 36.7593 19.2425ZM34.0281 19.9561C33.3884 19.9561 33.5361 19.0949 33.5361 18.406C33.5361 17.7417 34.5202 17.7417 34.5202 18.406C34.5202 19.1195 34.6925 19.9561 34.0281 19.9561ZM31.3216 19.2425C30.928 19.2425 30.7065 18.8243 30.9034 18.5044C31.2478 17.8893 31.5431 17.0527 32.109 17.3972C32.6749 17.7171 32.109 18.3814 31.7399 18.9965C31.6661 19.1441 31.4939 19.2425 31.3216 19.2425ZM29.3287 17.2496C28.8366 17.2496 28.6397 16.5852 29.0826 16.3146C29.6977 15.9701 30.3621 15.4042 30.6819 15.9701C31.0756 16.6345 29.5009 17.2496 29.3287 17.2496ZM29.6731 14.5185C28.9842 14.5185 28.123 14.6907 28.123 14.0264C28.123 13.3867 28.9842 13.5343 29.6731 13.5343C30.3129 13.5343 30.3375 14.5185 29.6731 14.5185ZM30.2636 12.3533C30.0176 12.3533 29.3779 11.9104 29.0826 11.7382C28.5167 11.4183 29.0088 10.5817 29.5747 10.9016C30.1898 11.2461 31.0018 11.5413 30.6819 12.1072C30.6081 12.2548 30.4359 12.3533 30.2636 12.3533ZM31.8629 10.754C31.4447 10.754 31.2232 10.1389 30.9034 9.57295C30.5589 9.00704 31.4201 8.51495 31.7399 9.08086C31.9368 9.40072 32.9209 10.754 31.8629 10.754Z" fill="#FFA725"/>
<path d="M27.9754 7.97365H21.5782C20.1758 7.97365 19.0439 6.81724 19.0439 5.43938C19.0439 3.96311 20.2988 2.78209 21.7997 2.90511C22.341 1.7733 23.6204 1.20739 24.826 1.55186C26.2039 -1.13004 30.362 0.518467 29.5009 3.42181C31.3954 4.89808 30.3867 7.97365 27.9754 7.97365Z" fill="#89CFF0"/>
<path d="M15.9192 27.7065C22.4886 23.5237 33.0931 20.2759 41.6801 24.754C41.8524 24.8032 42 24.9508 42 25.1968L41.9262 30.6099C39.2689 29.3304 35.7258 29.3058 32.6011 29.2812C29.4025 29.2566 25.9332 28.9859 22.464 30.2654C21.0123 29.6011 19.9051 30.7083 18.7733 30.29C17.2478 29.6995 15.9192 27.7065 15.9192 27.7065ZM4.50264 24.7048C4.62566 24.7294 4.74868 24.754 4.8471 24.7786L4.50264 24.7048Z" fill="#7EB515"/>
<path d="M41.9262 30.6099L41.877 35.3093C41.877 35.58 41.6556 35.8014 41.3849 35.8014H30.1898C29.2795 33.9807 26.5484 32.2584 23.7188 30.8559C23.3498 30.9789 22.9807 31.102 22.6116 31.2496C21.9965 31.471 21.6521 30.5607 22.2672 30.3392C28.935 27.8295 35.6767 27.5835 41.9262 30.6099Z" fill="#99D53B"/>
<path d="M0.0246582 24.5079V28.5677C2.21446 28.9367 6.10199 30.536 9.64505 31.4464C13.1143 32.3076 19.7821 33.8823 24.2356 35.8014H30.1899C28.3691 32.1353 18.9948 28.7153 15.9192 27.7065C12.4992 26.5993 9.9403 25.8858 6.96315 25.2214C4.18283 24.6063 0.812004 24.0158 0.442936 24.0158C0.221495 24.0158 0.0246582 24.2373 0.0246582 24.5079Z" fill="#85C028"/>
<path d="M0.0246046 28.5677L0 35.3093C0 35.58 0.221441 35.8014 0.492091 35.8014H24.2355C19.7821 33.8823 13.1142 31.3972 9.64499 30.5114C6.10193 29.6257 2.21441 28.9367 0.0246046 28.5677Z" fill="#99D53B"/>
</svg>
