<svg width="28" height="28" viewBox="0 0 31 27" fill="none" xmlns="http://www.w3.org/2000/svg">
<g clip-path="url(#clip0_6_938)">
<path d="M17.7023 11.4594H13.2026V16.4399H17.7023V11.4594Z" fill="#BF6A5B"/>
<path d="M13.2026 14.4248C13.5722 14.5856 13.9691 14.676 14.3726 14.6913C15.0206 14.6913 15.7688 14.37 16.4307 13.9831C16.9448 13.6807 17.3803 13.2634 17.7023 12.7646V11.4609H13.2026V14.4248Z" fill="#25232D"/>
<path d="M25.1727 18.8189L19.2446 16.9531C19.0177 16.8737 18.8221 16.7253 18.6857 16.5291C18.5494 16.3329 18.4794 16.0991 18.4856 15.8611V15.36H12.4174V15.8611C12.4235 16.099 12.3533 16.3328 12.217 16.5289C12.0807 16.7251 11.8852 16.8735 11.6585 16.9531L5.73032 18.8189L2.10199 51.7616H28.8011L25.1727 18.8189Z" fill="#4A5C42"/>
<path d="M15.4517 51.3824C15.4126 51.3826 15.3739 51.3751 15.3378 51.3604C15.3016 51.3457 15.2688 51.3241 15.2412 51.2968C15.2135 51.2694 15.1917 51.2369 15.1768 51.2012C15.1619 51.1654 15.1544 51.1271 15.1546 51.0885V16.7886C15.1546 16.7107 15.1859 16.6359 15.2416 16.5808C15.2973 16.5257 15.3729 16.4947 15.4517 16.4947C15.5305 16.4947 15.6061 16.5257 15.6618 16.5808C15.7175 16.6359 15.7488 16.7107 15.7488 16.7886V51.0885C15.749 51.1271 15.7415 51.1654 15.7266 51.2012C15.7118 51.2369 15.6899 51.2694 15.6622 51.2968C15.6346 51.3241 15.6018 51.3457 15.5656 51.3604C15.5295 51.3751 15.4908 51.3826 15.4517 51.3824Z" fill="#F1CC30"/>
<path d="M15.4516 4.45776L11.1337 5.33506L11.4631 9.87841C11.5023 10.5221 11.6983 11.1468 12.0345 11.6993C12.3706 12.2517 12.8369 12.7155 13.3935 13.051C14.0554 13.4363 14.802 13.7577 15.4516 13.7577C16.1013 13.7577 16.8479 13.4363 17.5098 13.051C18.0659 12.7151 18.5317 12.2512 18.8676 11.6988C19.2034 11.1464 19.3993 10.5219 19.4386 9.87841L19.7696 5.33506L15.4516 4.45776Z" fill="#BF6A5B"/>
<path opacity="0.55" d="M14.0631 9.84944C14.0649 10.0239 14.0143 10.195 13.9177 10.341C13.821 10.487 13.6827 10.6012 13.5203 10.6693C13.3579 10.7373 13.1787 10.756 13.0055 10.7231C12.8323 10.6902 12.6729 10.6071 12.5475 10.4843C12.4222 10.3616 12.3365 10.2047 12.3014 10.0337C12.2663 9.8627 12.2834 9.68523 12.3505 9.52384C12.4175 9.36244 12.5316 9.22441 12.6781 9.12726C12.8246 9.03012 12.997 8.97825 13.1733 8.97824C13.4077 8.97823 13.6327 9.06972 13.7993 9.23285C13.9659 9.39597 14.0607 9.61755 14.0631 9.84944Z" fill="#AC2828"/>
<path opacity="0.55" d="M18.6181 9.84944C18.6199 10.0239 18.5693 10.195 18.4727 10.341C18.376 10.487 18.2377 10.6012 18.0753 10.6693C17.9129 10.7373 17.7337 10.756 17.5605 10.7231C17.3873 10.6902 17.2279 10.6071 17.1025 10.4843C16.9772 10.3616 16.8915 10.2047 16.8564 10.0337C16.8213 9.8627 16.8384 9.68523 16.9055 9.52384C16.9725 9.36244 17.0866 9.22441 17.2331 9.12726C17.3796 9.03012 17.552 8.97825 17.7283 8.97824C17.9627 8.97823 18.1877 9.06972 18.3543 9.23285C18.5209 9.39597 18.6157 9.61755 18.6181 9.84944Z" fill="#AC2828"/>
<path d="M11.0335 7.3562C10.9599 7.28834 10.8732 7.23582 10.7786 7.20175C10.6841 7.16768 10.5835 7.15276 10.483 7.15787C10.3825 7.16299 10.2841 7.18803 10.1935 7.23152C10.103 7.27501 10.0222 7.33605 9.95596 7.41103C9.76251 7.63094 9.65006 7.9092 9.63692 8.20044C9.62378 8.49169 9.71074 8.77875 9.88361 9.01484L10.4532 9.79009C10.5724 9.95271 10.7327 10.0815 10.918 10.1636C11.1033 10.2456 11.3072 10.2781 11.5092 10.2577L11.8479 10.2242L11.0335 7.3562Z" fill="#BF6A5B"/>
<path d="M19.8696 7.3562C19.9432 7.28814 20.0299 7.23544 20.1244 7.20125C20.219 7.16706 20.3196 7.15208 20.4202 7.1572C20.5208 7.16232 20.6193 7.18743 20.7098 7.23104C20.8004 7.27465 20.8811 7.33586 20.9472 7.41103C21.1409 7.63081 21.2535 7.9091 21.2667 8.20042C21.2798 8.49174 21.1927 8.77885 21.0196 9.01483L20.45 9.79008C20.3315 9.95198 20.1723 10.0803 19.9881 10.1624C19.8039 10.2444 19.6012 10.2773 19.4001 10.2577L19.0615 10.2242L19.8696 7.3562Z" fill="#BF6A5B"/>
<path d="M12.379 5.79501C12.379 5.79501 12.5329 7.19777 11.7032 8.35227L11.4585 9.87535L10.7196 8.16188C10.4912 7.63235 10.4499 7.04207 10.6026 6.48649L10.7734 5.85594L12.379 5.79501Z" fill="#25232D"/>
<path d="M18.5242 5.79501C18.5242 5.79501 18.3702 7.19777 19.1999 8.35227L19.4447 9.87535L20.1821 8.16188C20.4103 7.63235 20.452 7.04231 20.3006 6.48649L20.1297 5.86051L18.5242 5.79501Z" fill="#25232D"/>
<path d="M14.1862 8.05222C14.1866 8.11802 14.1671 8.18243 14.1303 8.23726C14.0936 8.2921 14.0412 8.33489 13.9798 8.36021C13.9184 8.38553 13.8508 8.39223 13.7856 8.37947C13.7203 8.3667 13.6604 8.33505 13.6134 8.28852C13.5663 8.242 13.5343 8.1827 13.5214 8.11815C13.5085 8.0536 13.5153 7.98671 13.5409 7.92598C13.5665 7.86524 13.6098 7.8134 13.6652 7.77704C13.7206 7.74067 13.7857 7.72141 13.8522 7.72171C13.9408 7.72171 14.0258 7.75654 14.0884 7.81852C14.151 7.8805 14.1862 7.96457 14.1862 8.05222Z" fill="#25232D"/>
<path d="M17.3419 8.05222C17.3423 8.11802 17.3228 8.18243 17.286 8.23726C17.2493 8.2921 17.1969 8.33489 17.1355 8.36021C17.0741 8.38553 17.0065 8.39223 16.9413 8.37947C16.876 8.3667 16.8161 8.33505 16.7691 8.28852C16.722 8.242 16.69 8.1827 16.6771 8.11815C16.6643 8.0536 16.671 7.98671 16.6966 7.92598C16.7222 7.86524 16.7655 7.8134 16.8209 7.77704C16.8763 7.74067 16.9414 7.72141 17.0079 7.72171C17.0965 7.72171 17.1815 7.75654 17.2441 7.81852C17.3067 7.8805 17.3419 7.96457 17.3419 8.05222Z" fill="#25232D"/>
<path d="M14.5279 7.33787C13.9742 7.18384 13.3883 7.18384 12.8346 7.33787L12.7838 7.1947C13.3669 7.02657 13.9864 7.02657 14.5695 7.1947L14.5279 7.33787Z" fill="#25232D"/>
<path d="M16.3752 7.33792L16.3336 7.18561C16.9172 7.01744 17.5372 7.01744 18.1208 7.18561L18.0685 7.32878C17.5141 7.17654 16.9279 7.1797 16.3752 7.33792Z" fill="#25232D"/>
<path d="M15.8195 9.84789H15.1853C15.1205 9.84799 15.0566 9.83366 14.9983 9.80598C14.9399 9.77829 14.8886 9.73796 14.8481 9.68797C14.8093 9.6406 14.7819 9.58518 14.7677 9.52585C14.7536 9.46651 14.7532 9.40479 14.7665 9.34527C14.8859 8.8486 15.1082 8.38184 15.4192 7.9745L15.2899 7.22667C15.2882 7.21667 15.2885 7.20643 15.2908 7.19654C15.2931 7.18665 15.2973 7.1773 15.3032 7.16903C15.3092 7.16075 15.3167 7.15372 15.3254 7.14832C15.334 7.14292 15.3437 7.13927 15.3538 7.13757C15.3639 7.13587 15.3743 7.13615 15.3843 7.13841C15.3943 7.14067 15.4037 7.14485 15.4121 7.15072C15.4204 7.15659 15.4276 7.16403 15.433 7.17262C15.4385 7.18121 15.4422 7.19077 15.4439 7.20078L15.5793 7.98212C15.5808 7.99312 15.5801 8.0043 15.5772 8.01502C15.5743 8.02574 15.5693 8.03578 15.5624 8.04456C15.2544 8.44197 15.0346 8.89921 14.9174 9.3864C14.9094 9.42355 14.9099 9.46201 14.919 9.49892C14.928 9.53584 14.9454 9.57026 14.9697 9.59963C14.9958 9.63187 15.0288 9.65791 15.0664 9.67583C15.1039 9.69376 15.1451 9.70311 15.1868 9.7032H15.8195C15.8398 9.70359 15.8591 9.71174 15.8735 9.72593C15.8878 9.74013 15.8961 9.75928 15.8964 9.77935C15.8945 9.7982 15.8856 9.81567 15.8714 9.82834C15.8571 9.84102 15.8386 9.84799 15.8195 9.84789Z" fill="#25232D"/>
<path d="M17.0864 9.93322C16.7338 9.8218 16.3652 9.76729 15.995 9.77177H14.9082C14.5385 9.76745 14.1705 9.82197 13.8183 9.93322C13.5315 10.0169 13.2681 10.1649 13.0486 10.3658C13.7908 10.7548 14.6179 10.9582 15.4578 10.9582C16.2977 10.9582 17.1248 10.7548 17.8669 10.3658C17.6438 10.1641 17.3768 10.0161 17.0864 9.93322Z" fill="#25232D"/>
<path d="M21.1458 4.2902C21.0704 4.25365 20.9919 4.21862 20.9088 4.18359L20.8364 2.88592C20.827 2.75246 20.7702 2.62657 20.6762 2.53044C20.5821 2.43432 20.4568 2.37412 20.3223 2.36046L19.9297 2.31629C18.4581 0.426145 15.4978 -0.272949 15.4532 -0.289703C15.4086 -0.279042 12.4499 0.426145 10.9782 2.31629L10.5857 2.36503C10.4509 2.37748 10.3248 2.43652 10.2297 2.53178C10.1345 2.62704 10.0764 2.75243 10.0654 2.88592L9.99454 4.17902C9.91295 4.21405 9.84061 4.24908 9.75748 4.28563C9.63139 4.34583 9.53053 4.44774 9.47234 4.57373C9.41415 4.69972 9.4023 4.84187 9.43882 4.97559C9.54658 5.36702 9.72054 5.95646 9.93297 6.49867C9.95759 6.56071 9.99458 6.61721 10.0417 6.6648C10.0889 6.71239 10.1453 6.7501 10.2075 6.77568C10.2697 6.80127 10.3364 6.8142 10.4038 6.81371C10.4711 6.81322 10.5377 6.79931 10.5995 6.77283C11.3354 6.46821 12.9517 5.9001 15.4517 5.6229C17.9501 5.9001 19.568 6.46364 20.3038 6.77283C20.3656 6.7991 20.4322 6.81283 20.4995 6.81321C20.5668 6.8136 20.6335 6.80063 20.6956 6.77507C20.7577 6.74951 20.8141 6.71188 20.8613 6.6644C20.9085 6.61693 20.9456 6.56058 20.9704 6.49867C21.1812 5.95341 21.3567 5.36398 21.4629 4.97559C21.4984 4.84269 21.4862 4.70173 21.4284 4.57675C21.3705 4.45177 21.2707 4.3505 21.1458 4.2902Z" fill="#DDA824"/>
<path d="M18.6827 5.4097C18.3271 5.37315 16.1997 5.53612 15.45 5.63055C15.9257 5.68233 16.3736 5.7463 16.7785 5.81636C17.2634 5.70518 18.0069 5.53916 18.6827 5.4097Z" fill="#25232D"/>
<path d="M20.8779 3.62616C19.7788 3.38551 16.8216 2.74886 15.3007 2.72754C17.0664 3.01236 20.1821 3.88051 20.9087 4.18361L20.8779 3.62616Z" fill="#DDA824"/>
<path d="M19.337 1.68723C17.8884 1.81821 14.0585 2.69246 12.8085 3.45552C14.3017 2.84629 18.9999 2.23706 19.9297 2.32083C19.7504 2.09354 19.5522 1.88159 19.337 1.68723Z" fill="#DDA824"/>
<path d="M5.86584 18.8189C3.57061 19.5454 -0.468735 28.789 -2.37603 34.5798C-2.60842 35.2831 -2.66581 36.0316 -2.54334 36.7615C-2.42086 37.4915 -2.12214 38.1815 -1.67253 38.7728C-0.308638 40.5579 4.8991 39.1871 4.8991 39.1871L4.35723 31.7148L5.86584 18.8189Z" fill="#4A5C42"/>
<path d="M25.0374 18.8189C27.3326 19.5454 31.3719 29.616 33.2792 35.4083C33.5116 36.1114 33.569 36.8596 33.4465 37.5894C33.324 38.3191 33.0253 39.0088 32.5757 39.5998C31.2103 41.3849 26.0041 40.0156 26.0041 40.0156L26.5459 31.7148L25.0374 18.8189Z" fill="#4A5C42"/>
<path d="M4.04944 31.1909C4.04944 31.1909 6.20458 20.4303 6.18149 20.6572C6.1584 20.8842 5.42103 30.7263 5.42103 30.7263L4.04944 31.1909Z" fill="#25232D"/>
<path d="M26.8523 31.1909C26.8523 31.1909 24.6971 20.4303 24.7202 20.6572C24.7433 20.8842 25.4807 30.7263 25.4807 30.7263L26.8523 31.1909Z" fill="#25232D"/>
<path d="M4.40195 27.0177C4.54113 26.9752 4.65756 26.8798 4.72568 26.7524C4.7938 26.625 4.80803 26.4761 4.76525 26.3384L3.83392 23.3486C3.79098 23.2109 3.69455 23.0957 3.56582 23.0283C3.43708 22.9609 3.28657 22.9468 3.14735 22.9891C3.00807 23.0319 2.89162 23.1276 2.82352 23.2552C2.75542 23.3829 2.74123 23.532 2.78406 23.6699L3.70769 26.6582C3.7289 26.7273 3.76378 26.7914 3.81031 26.847C3.85684 26.9026 3.91408 26.9484 3.9787 26.9819C4.04332 27.0153 4.11402 27.0357 4.18669 27.0419C4.25936 27.048 4.33253 27.0398 4.40195 27.0177Z" fill="#5E6E26"/>
<path d="M4.55739 27.5325C4.67211 27.4442 4.74709 27.3148 4.7661 27.1723C4.78512 27.0298 4.74663 26.8856 4.65898 26.7709L2.73475 24.2898C2.64607 24.1756 2.51521 24.1009 2.37092 24.0821C2.22662 24.0632 2.08066 24.1018 1.96506 24.1893C1.85 24.2773 1.77475 24.4067 1.75572 24.5494C1.73669 24.692 1.77542 24.8363 1.86347 24.9508L3.78923 27.4304C3.8779 27.5441 4.0083 27.6185 4.15212 27.6376C4.29593 27.6567 4.44156 27.6189 4.55739 27.5325Z" fill="#5E6E26"/>
<path d="M4.56672 27.5294C4.4213 27.5207 4.28526 27.4555 4.18833 27.3479C4.09141 27.2403 4.04148 27.0991 4.04948 26.9552L4.22959 23.8329C4.23833 23.6889 4.30422 23.5541 4.41293 23.458C4.52163 23.3618 4.66433 23.3121 4.80993 23.3196C4.95548 23.3286 5.09152 23.3942 5.18841 23.502C5.28529 23.6099 5.33518 23.7512 5.32717 23.8953L5.14706 27.0176C5.13832 27.1615 5.07238 27.2961 4.96363 27.392C4.85487 27.4879 4.71217 27.5373 4.56672 27.5294Z" fill="#5E6E26"/>
<path d="M6.66167 34.2919H6.67399C7.07269 34.1701 7.34516 33.8106 7.30359 33.5639L6.20294 27.8645C6.049 26.9796 5.18694 26.3612 4.29718 26.6323L4.27409 26.646C3.38432 26.9172 3.01949 27.9133 3.39972 28.7266L5.73342 34.0482C5.83348 34.2691 6.26297 34.4138 6.66167 34.2919Z" fill="#E79D35"/>
<path d="M26.0641 26.7983C26.0624 26.6428 26.1008 26.4894 26.1757 26.3527C26.2505 26.216 26.3595 26.1004 26.4921 26.017C26.7598 25.8529 27.0685 25.7664 27.3834 25.7672C27.4357 25.9362 27.3172 26.1084 27.1894 26.2317C26.8925 26.5172 26.5133 26.7045 26.1042 26.7679" fill="#5E6E26"/>
<path d="M26.0226 26.6811C25.9318 26.7191 25.8333 26.6567 25.7594 26.5942C25.499 26.3814 25.3136 26.0924 25.2298 25.7687C25.1897 25.6073 25.1882 25.4387 25.2257 25.2766C25.2631 25.1145 25.3383 24.9633 25.4453 24.8351C25.714 25.0539 25.9208 25.3378 26.0457 25.6591C26.1074 25.8195 26.1348 25.9908 26.1263 26.1622C26.1179 26.3336 26.0736 26.5015 25.9964 26.6552" fill="#5E6E26"/>
<path d="M26.6091 25.0011C26.129 25.6999 25.8506 26.5151 25.804 27.3588C25.7991 27.395 25.8089 27.4316 25.8313 27.4606C25.8536 27.4896 25.8867 27.5086 25.9233 27.5134C25.9598 27.5183 25.9968 27.5086 26.0261 27.4864C26.0554 27.4643 26.0746 27.4315 26.0795 27.3954C26.175 26.9491 26.2181 26.1084 26.8138 25.2037C27.0124 24.9036 26.823 24.695 26.6091 25.0011Z" fill="#25232D"/>
<path d="M24.3908 25.7992C24.6793 25.7866 24.9667 25.8429 25.2287 25.9633C25.4907 26.0836 25.7197 26.2645 25.8963 26.4906C25.9296 26.5435 25.9785 26.5849 26.0364 26.6094C26.0949 26.6214 26.1556 26.6171 26.2118 26.5973C27.1001 26.381 28.0591 26.6917 28.3577 27.6467C28.5686 28.3123 28.3947 29.1119 28.1438 29.7653C28.0322 30.0513 27.8602 30.3105 27.6394 30.5257C27.4185 30.7408 27.1538 30.9068 26.863 31.0127C26.1333 31.2716 25.4514 31.0538 24.7479 30.8604C23.9951 30.6642 23.3194 30.2487 22.8083 29.6678C22.2479 29.0174 22.3665 27.8767 22.6266 27.1425C22.8714 26.4571 23.5656 25.819 24.3908 25.7992Z" fill="#C50B58"/>
<path d="M9.31399 28.4737C9.41131 28.4622 9.50014 28.4133 9.56123 28.3374C9.62232 28.2616 9.65074 28.165 9.64033 28.0686L8.98148 22.2991C8.9699 22.2026 8.92019 22.1144 8.8432 22.0539C8.76621 21.9934 8.66817 21.9655 8.57046 21.9762C8.47313 21.9877 8.3843 22.0367 8.32321 22.1125C8.26213 22.1884 8.2337 22.285 8.24411 22.3814L8.90297 28.1508C8.91456 28.2474 8.96427 28.3356 9.04126 28.396C9.11825 28.4565 9.21628 28.4844 9.31399 28.4737Z" fill="#7A8D28"/>
<path d="M8.96626 25.4276C9.20487 25.4004 9.42291 25.2809 9.57264 25.095C9.72237 24.9092 9.7916 24.6723 9.7652 24.4361L9.55738 22.6084C9.52917 22.3727 9.40806 22.1576 9.22039 22.0099C9.03272 21.8621 8.79366 21.7937 8.55524 21.8194C8.31662 21.8466 8.0986 21.9661 7.94887 22.152C7.79914 22.3378 7.72989 22.5747 7.7563 22.8109L7.96411 24.6386C7.99232 24.8743 8.11345 25.0894 8.30112 25.2371C8.48879 25.3849 8.72783 25.4533 8.96626 25.4276Z" fill="#5E6E26"/>
<path d="M8.71989 25.5997C8.86855 25.4133 8.93675 25.1763 8.90965 24.9404C8.88255 24.7045 8.76233 24.4887 8.57519 24.3401L7.12663 23.1978C6.93824 23.0507 6.69874 22.9832 6.4603 23.01C6.22185 23.0368 6.00377 23.1558 5.85356 23.3409C5.7045 23.5272 5.63605 23.7642 5.66316 24.0003C5.69028 24.2363 5.81076 24.4521 5.99826 24.6005L7.44681 25.7428C7.6352 25.8899 7.8747 25.9574 8.11314 25.9306C8.35159 25.9038 8.56967 25.7848 8.71989 25.5997Z" fill="#5E6E26"/>
<path d="M9.24331 26.8059L9.38647 26.5013C9.47 26.3227 9.47868 26.1186 9.41061 25.9337C9.34253 25.7487 9.20324 25.598 9.02317 25.5143L7.88403 24.9889C7.6628 24.8879 7.41023 24.8775 7.1813 24.96C6.95237 25.0424 6.76564 25.211 6.66176 25.4291C6.61004 25.5378 6.58053 25.6556 6.5749 25.7757C6.56928 25.8958 6.58766 26.0158 6.62898 26.1289C6.67031 26.2419 6.73377 26.3458 6.81573 26.4345C6.8977 26.5233 6.99656 26.5951 7.10664 26.646L8.24578 27.173C8.42732 27.2547 8.63418 27.262 8.82112 27.1932C9.00806 27.1244 9.15986 26.9852 9.24331 26.8059Z" fill="#5E6E26"/>
<path d="M9.24477 25.5418C9.05762 25.3932 8.93741 25.1774 8.9103 24.9415C8.8832 24.7056 8.95141 24.4686 9.10007 24.2822L10.2546 22.8475C10.4048 22.6622 10.623 22.5433 10.8616 22.5167C11.1002 22.4902 11.3396 22.5582 11.5277 22.7058C11.7148 22.8545 11.835 23.0702 11.8621 23.3061C11.8892 23.5421 11.821 23.779 11.6724 23.9654L10.5178 25.3986C10.3676 25.5838 10.1495 25.7027 9.9111 25.7296C9.67266 25.7564 9.43316 25.6889 9.24477 25.5418Z" fill="#5E6E26"/>
<path d="M9.07242 26.7694L8.86306 26.5043C8.74143 26.3488 8.68692 26.1519 8.71144 25.9568C8.73595 25.7616 8.83749 25.5839 8.99391 25.4625L9.98527 24.701C10.1773 24.5527 10.4208 24.4856 10.6627 24.5141C10.9046 24.5426 11.1253 24.6645 11.2768 24.8533C11.4267 25.0434 11.4946 25.2843 11.4657 25.5236C11.4369 25.7629 11.3137 25.9813 11.1229 26.1312L10.1315 26.8927C10.0539 26.9538 9.96492 26.999 9.86957 27.0259C9.77423 27.0528 9.67446 27.0607 9.57601 27.0492C9.47755 27.0378 9.38237 27.0071 9.29594 26.9591C9.20951 26.9111 9.13354 26.8466 9.07242 26.7694Z" fill="#5E6E26"/>
<path d="M9.24479 27.9376H9.25249C9.27074 27.9353 9.28737 27.926 9.29887 27.9118C9.31036 27.8976 9.31581 27.8795 9.31406 27.8614L8.69831 22.5108C8.69563 22.4929 8.68621 22.4767 8.67193 22.4654C8.65765 22.4541 8.63957 22.4486 8.62134 22.4499C8.60309 22.4522 8.58645 22.4614 8.57496 22.4756C8.56347 22.4899 8.55802 22.5079 8.55977 22.5261L9.17552 27.8766C9.17742 27.8935 9.18555 27.909 9.19834 27.9203C9.21113 27.9315 9.22767 27.9377 9.24479 27.9376Z" fill="#25232D"/>
<path d="M8.99699 25.7657C9.00712 25.7655 9.01708 25.7631 9.02614 25.7586C9.03519 25.7541 9.04312 25.7477 9.04934 25.7398L11.1552 23.2297C11.1671 23.2156 11.1727 23.1974 11.171 23.1791C11.1693 23.1608 11.1603 23.144 11.146 23.1323C11.1317 23.1205 11.1133 23.1149 11.0948 23.1166C11.0763 23.1183 11.0593 23.1273 11.0475 23.1414L8.94312 25.653C8.93158 25.6669 8.92607 25.6848 8.9278 25.7028C8.92953 25.7208 8.93836 25.7373 8.95235 25.7489C8.96469 25.7597 8.98055 25.7656 8.99699 25.7657Z" fill="#25232D"/>
<path d="M8.9969 25.7657C9.00699 25.7637 9.01656 25.7597 9.02503 25.7539C9.0335 25.7482 9.04069 25.7408 9.04616 25.7322C9.05727 25.7174 9.06204 25.6989 9.05945 25.6806C9.05685 25.6624 9.0471 25.6459 9.0323 25.6347L6.41535 23.6714C6.40027 23.6608 6.38166 23.6563 6.36334 23.6589C6.34501 23.6614 6.32837 23.6708 6.31684 23.6851C6.30581 23.6997 6.30108 23.718 6.30367 23.736C6.30627 23.7539 6.31599 23.7702 6.33069 23.7811L8.94764 25.7443C8.96093 25.7571 8.97842 25.7646 8.9969 25.7657Z" fill="#25232D"/>
<path d="M9.09246 26.6033C9.10624 26.6032 9.11967 26.599 9.13094 26.5912L10.8581 25.4169C10.8656 25.4117 10.872 25.405 10.8769 25.3974C10.8818 25.3898 10.8851 25.3813 10.8867 25.3724C10.8883 25.3634 10.888 25.3543 10.8861 25.3455C10.8841 25.3367 10.8803 25.3283 10.8751 25.3209C10.8698 25.3135 10.8631 25.3072 10.8554 25.3024C10.8477 25.2975 10.8391 25.2942 10.8301 25.2927C10.8211 25.2911 10.8119 25.2913 10.8029 25.2933C10.794 25.2953 10.7856 25.2989 10.7781 25.3041L9.04628 26.4769C9.03143 26.4876 9.02137 26.5036 9.01821 26.5215C9.01505 26.5394 9.01904 26.5578 9.02935 26.5729C9.03605 26.5832 9.04548 26.5915 9.05661 26.5968C9.06773 26.6022 9.08013 26.6045 9.09246 26.6033Z" fill="#25232D"/>
<path d="M9.09239 26.6034C9.10585 26.6035 9.11904 26.5997 9.13028 26.5924C9.14152 26.585 9.15031 26.5746 9.15551 26.5623C9.16283 26.5455 9.16321 26.5265 9.1566 26.5095C9.14998 26.4924 9.13688 26.4785 9.1201 26.4709L7.1189 25.5814C7.11052 25.5776 7.10147 25.5755 7.09226 25.5752C7.08305 25.5749 7.07389 25.5765 7.06529 25.5797C7.05668 25.583 7.04882 25.5879 7.04217 25.5942C7.03552 25.6005 7.03021 25.6081 7.02654 25.6164C7.02273 25.6246 7.02063 25.6335 7.02036 25.6425C7.02008 25.6515 7.02165 25.6604 7.02495 25.6688C7.02825 25.6772 7.03323 25.6848 7.03959 25.6913C7.04594 25.6977 7.05355 25.7028 7.06194 25.7063L9.06314 26.5973C9.07253 26.6008 9.08238 26.6028 9.09239 26.6034Z" fill="#25232D"/>
<path d="M6.54628 29.7927C6.72946 31.4026 10.0083 33.9903 10.0083 33.9903C10.0083 33.9903 12.6253 30.7431 12.436 29.1332C12.3476 28.3604 11.9525 27.654 11.3378 27.1695C10.723 26.6849 9.93885 26.4618 9.15783 26.5492C8.37681 26.6367 7.6629 27.0275 7.17313 27.6358C6.68337 28.2441 6.45788 29.0199 6.54628 29.7927Z" fill="#67274E"/>
<path d="M17.7654 23.6349C17.7883 23.6342 17.8111 23.6306 17.8331 23.6242C17.8925 23.6053 17.942 23.564 17.9708 23.5093C17.9996 23.4545 18.0054 23.3907 17.9871 23.3318C17.8435 22.8635 17.8473 22.3631 17.9978 21.897C18.0072 21.8676 18.0107 21.8367 18.008 21.8059C18.0053 21.7752 17.9965 21.7453 17.9822 21.718C17.9678 21.6906 17.9481 21.6663 17.9243 21.6465C17.9004 21.6266 17.8728 21.6116 17.8431 21.6023C17.8134 21.593 17.7821 21.5896 17.7511 21.5922C17.72 21.5949 17.6898 21.6036 17.6621 21.6178C17.6345 21.632 17.6099 21.6515 17.5899 21.6751C17.5698 21.6987 17.5547 21.726 17.5453 21.7554C17.3663 22.3117 17.3625 22.9088 17.5345 23.4673C17.5492 23.5163 17.5798 23.5592 17.6215 23.5895C17.6632 23.6197 17.7137 23.6357 17.7654 23.6349Z" fill="#5E6E26"/>
<path d="M20.1298 25.3362C20.1144 26.5546 19.0076 27.5431 17.6576 27.5264C16.3075 27.5096 15.2253 26.5013 15.2423 25.2752C15.2592 24.0492 16.3645 23.0683 17.7145 23.0851C19.0646 23.1018 20.1375 24.1101 20.1298 25.3362Z" fill="#5E6E26"/>
<path d="M15.8259 28.303C15.8536 26.1279 14.9573 24.3532 13.8241 24.3391C12.6909 24.325 11.7499 26.0769 11.7223 28.252C11.6946 30.4271 12.5909 32.2018 13.7241 32.2159C14.8573 32.23 15.7983 30.4781 15.8259 28.303Z" fill="#E2791C"/>
<path d="M17.927 28.332C17.8978 30.7111 16.8679 32.6271 15.6287 32.6119C14.3895 32.5967 13.4105 30.6547 13.4413 28.2757C13.472 25.8966 14.5004 23.9806 15.7396 23.9958C16.9788 24.011 17.9578 25.953 17.927 28.332Z" fill="#E48920"/>
<path d="M19.4509 28.3503C19.4787 26.1754 20.4192 24.4238 21.5522 24.4375C22.6852 24.4513 23.5811 26.2272 23.5534 28.3976C23.5257 30.568 22.5836 32.3241 21.4521 32.3104C20.3207 32.2967 19.4232 30.5268 19.4509 28.3503Z" fill="#E2791C"/>
<path d="M17.359 28.3214C17.3898 25.9423 18.4181 24.0263 19.6573 24.0415C20.8965 24.0568 21.8771 25.9987 21.8463 28.3777C21.8155 30.7568 20.7872 32.6728 19.548 32.6576C18.3088 32.6424 17.322 30.7035 17.359 28.3214Z" fill="#E48920"/>
<path d="M15.2037 28.297C15.2361 25.7078 16.3567 23.6181 17.7068 23.6349C19.0568 23.6517 20.1251 25.7672 20.0913 28.3565C20.0574 30.9457 18.9367 33.0369 17.5882 33.0201C16.2397 33.0034 15.1622 30.8893 15.2037 28.297Z" fill="#E79D35"/>
</g>
<defs>
<clipPath id="clip0_6_938">
<rect width="31" height="27" rx="6" fill="white"/>
</clipPath>
</defs>
</svg>
