<svg width="35" height="36" viewBox="0 0 35 36" fill="none" xmlns="http://www.w3.org/2000/svg">
<path d="M17.9034 6.27398L14.9694 2.18962C14.0766 1.07365 12.2866 0.29627 10.8617 0.405857L5.58036 0.992669L8.51442 5.10036C9.29151 6.21053 10.6836 6.9574 12.0353 6.86079L17.9034 6.27398ZM20.2507 8.03442L23.1847 3.95006C24.0775 2.83409 25.8675 2.05671 27.2924 2.16629L32.5737 2.75311L29.6397 6.86079C28.8626 7.97097 27.4704 8.71783 26.1188 8.62123L20.2507 8.03442Z" fill="#35A872"/>
<path d="M11.4485 4.50327C11.4485 4.6589 11.5103 4.80816 11.6204 4.91821C11.7304 5.02826 11.8797 5.09008 12.0353 5.09008H14.3825C15.4716 5.09129 16.5157 5.52445 17.2858 6.29453C18.0559 7.06461 18.489 8.10871 18.4902 9.19777V12.1318C18.4902 12.2875 18.5521 12.4367 18.6621 12.5468C18.7722 12.6568 18.9214 12.7186 19.077 12.7186C19.2327 12.7186 19.3819 12.6568 19.492 12.5468C19.602 12.4367 19.6639 12.2875 19.6639 12.1318V10.9582C19.6651 9.86915 20.0982 8.82504 20.8683 8.05496C21.6384 7.28488 22.6825 6.85172 23.7715 6.85052H24.9452C25.1008 6.85052 25.2501 6.78869 25.3601 6.67865C25.4702 6.5686 25.532 6.41934 25.532 6.26371C25.532 6.10808 25.4702 5.95882 25.3601 5.84877C25.2501 5.73872 25.1008 5.6769 24.9452 5.6769H23.7715C22.9362 5.67701 22.1128 5.87543 21.3691 6.25582C20.6254 6.63621 19.9827 7.18772 19.4937 7.86497C19.1971 6.73495 18.5348 5.73485 17.6103 5.02061C16.6858 4.30637 15.5508 3.91814 14.3825 3.91646H12.0353C11.8797 3.91646 11.7304 3.97828 11.6204 4.08833C11.5103 4.19838 11.4485 4.34764 11.4485 4.50327Z" fill="#3DC285"/>
<path d="M24.9452 18.5868H16.7298V20.934H24.9452V18.5868Z" fill="#FFD33A"/>
<path d="M26.1188 16.2395H17.9034V18.5868H26.1188V16.2395Z" fill="#FFB632"/>
<path d="M24.9452 13.8923H16.7298V16.2395H24.9452V13.8923Z" fill="#FFD33A"/>
<path d="M26.1188 11.545H17.9034V13.8923H26.1188V11.545ZM26.1188 25.6285H17.9034V27.9758H26.1188V25.6285Z" fill="#FFB632"/>
<path d="M24.9452 23.2813H16.7298V25.6285H24.9452V23.2813ZM24.9452 27.9758H16.7298V30.323H24.9452V27.9758Z" fill="#FFD33A"/>
<path d="M26.1188 20.934H17.9034V23.2813H26.1188V20.934Z" fill="#FFB632"/>
<path d="M15.5562 16.2395C16.4847 16.2395 17.3923 16.5148 18.1644 17.0307C18.9364 17.5465 19.5381 18.2797 19.8934 19.1375C20.2487 19.9953 20.3417 20.9392 20.1605 21.8499C19.9794 22.7605 19.5323 23.597 18.8757 24.2535C18.2192 24.9101 17.3827 25.3572 16.4721 25.5383C15.5614 25.7195 14.6175 25.6265 13.7597 25.2712C12.9019 24.9159 12.1687 24.3141 11.6529 23.5421C11.1371 22.7701 10.8617 21.8625 10.8617 20.934C10.8631 19.6894 11.3582 18.4961 12.2383 17.6161C13.1183 16.736 14.3116 16.2409 15.5562 16.2395ZM15.5562 24.4549C16.2526 24.4549 16.9333 24.2484 17.5123 23.8615C18.0913 23.4746 18.5426 22.9248 18.8091 22.2814C19.0756 21.638 19.1453 20.9301 19.0095 20.2471C18.8736 19.5641 18.5383 18.9368 18.0459 18.4444C17.5535 17.952 16.9261 17.6167 16.2431 17.4808C15.5601 17.3449 14.8522 17.4147 14.2089 17.6812C13.5655 17.9476 13.0156 18.3989 12.6287 18.9779C12.2419 19.5569 12.0354 20.2377 12.0354 20.934C12.0363 21.8675 12.4076 22.7625 13.0677 23.4226C13.7278 24.0826 14.6227 24.4539 15.5562 24.4549Z" fill="#FFB632"/>
<path d="M9.10123 25.6285L19.1606 25.0962C19.4678 25.0808 19.7708 25.1726 20.0179 25.3557C20.265 25.5389 20.4408 25.8021 20.5154 26.1005C20.5577 26.2697 20.5663 26.4456 20.5406 26.6181C20.5149 26.7906 20.4555 26.9564 20.3658 27.1059C20.276 27.2555 20.1577 27.3859 20.0176 27.4897C19.8775 27.5935 19.7183 27.6688 19.5491 27.711L16.3236 28.5175L20.8375 30.323L32.9111 27.1733C33.3234 27.0656 33.7614 27.1198 34.1349 27.3248C34.5085 27.5298 34.7894 27.8701 34.9199 28.2758C35.0504 28.6815 35.0206 29.1217 34.8366 29.5061C34.6527 29.8905 34.3285 30.1899 33.9307 30.3428L20.2507 35.6043L10.2749 33.2571L6.16717 33.8439H0.885853V25.6285H9.10123Z" fill="#F0C6A4"/>
<path d="M6.16724 24.4549H0.885925V35.0175H6.16724V24.4549Z" fill="#2D85CC"/>
<path d="M15.5562 24.4549C13.6116 24.4549 12.0353 22.8785 12.0353 20.934C12.0353 18.9895 13.6116 17.4131 15.5562 17.4131C17.5007 17.4131 19.077 18.9895 19.077 20.934C19.077 22.8785 17.5007 24.4549 15.5562 24.4549Z" fill="#FFD33A"/>
<path d="M14.3826 21.5208C14.3826 21.7267 14.4369 21.9289 14.5399 22.1071C14.6429 22.2853 14.7911 22.4333 14.9694 22.536V22.6945C14.9694 22.8501 15.0312 22.9993 15.1413 23.1094C15.2513 23.2194 15.4006 23.2813 15.5562 23.2813C15.7119 23.2813 15.8611 23.2194 15.9712 23.1094C16.0812 22.9993 16.143 22.8501 16.143 22.6945C16.2987 22.6945 16.4479 22.6326 16.558 22.5226C16.668 22.4125 16.7299 22.2633 16.7299 22.1076C16.7299 21.952 16.668 21.8028 16.558 21.6927C16.4479 21.5827 16.2987 21.5208 16.143 21.5208H15.5562C15.8145 21.521 16.0656 21.4359 16.2706 21.2787C16.4755 21.1215 16.6229 20.9011 16.6898 20.6517C16.7567 20.4022 16.7393 20.1376 16.6405 19.899C16.5416 19.6604 16.3668 19.4611 16.143 19.332V19.1736C16.143 19.0179 16.0812 18.8687 15.9712 18.7586C15.8611 18.6486 15.7119 18.5868 15.5562 18.5868C15.4006 18.5868 15.2513 18.6486 15.1413 18.7586C15.0312 18.8687 14.9694 19.0179 14.9694 19.1736C14.8138 19.1736 14.6645 19.2354 14.5545 19.3455C14.4444 19.4555 14.3826 19.6048 14.3826 19.7604C14.3826 19.916 14.4444 20.0653 14.5545 20.1753C14.6645 20.2854 14.8138 20.3472 14.9694 20.3472H15.5562C15.2451 20.3476 14.9468 20.4714 14.7268 20.6914C14.5068 20.9114 14.383 21.2097 14.3826 21.5208Z" fill="#FFB632"/>
<path d="M13.7953 29.7362C13.8435 29.7362 13.8914 29.7302 13.9381 29.7185L16.4658 29.0868C16.5408 29.0683 16.6115 29.0353 16.6738 28.9895C16.736 28.9437 16.7886 28.8861 16.8285 28.8199C16.8684 28.7537 16.8949 28.6803 16.9064 28.6038C16.9178 28.5274 16.9141 28.4495 16.8953 28.3745C16.8766 28.2995 16.8432 28.229 16.7971 28.1669C16.751 28.1049 16.6931 28.0525 16.6268 28.0129C16.5604 27.9733 16.4869 27.9472 16.4104 27.9361C16.3339 27.925 16.256 27.9291 16.1811 27.9482L13.6533 28.5801C13.5144 28.6149 13.393 28.6992 13.3119 28.8172C13.2309 28.9352 13.1958 29.0788 13.2132 29.2209C13.2307 29.3631 13.2995 29.4939 13.4067 29.5888C13.5139 29.6837 13.6521 29.7361 13.7953 29.7362Z" fill="#E0B999"/>
</svg>
