<svg width="16" height="16" viewBox="0 0 16 16" fill="none" xmlns="http://www.w3.org/2000/svg">
<path d="M9.33338 16C9.15657 16 8.987 15.9298 8.86197 15.8047C8.73695 15.6797 8.66671 15.5101 8.66671 15.3333V12C8.66671 11.8232 8.73695 11.6536 8.86197 11.5286C8.987 11.4036 9.15657 11.3333 9.33338 11.3333C9.51019 11.3333 9.67976 11.4036 9.80478 11.5286C9.92981 11.6536 10 11.8232 10 12V15.3333C10 15.5101 9.92981 15.6797 9.80478 15.8047C9.67976 15.9298 9.51019 16 9.33338 16ZM7.33338 14V10.6667C7.33338 10.4898 7.26314 10.3203 7.13812 10.1952C7.01309 10.0702 6.84352 9.99999 6.66671 9.99999C6.4899 9.99999 6.32033 10.0702 6.19531 10.1952C6.07028 10.3203 6.00005 10.4898 6.00005 10.6667V14C6.00005 14.1768 6.07028 14.3464 6.19531 14.4714C6.32033 14.5964 6.4899 14.6667 6.66671 14.6667C6.84352 14.6667 7.01309 14.5964 7.13812 14.4714C7.26314 14.3464 7.33338 14.1768 7.33338 14ZM4.66671 15.3333V12C4.66671 11.8232 4.59647 11.6536 4.47145 11.5286C4.34643 11.4036 4.17686 11.3333 4.00005 11.3333C3.82323 11.3333 3.65367 11.4036 3.52864 11.5286C3.40362 11.6536 3.33338 11.8232 3.33338 12V15.3333C3.33338 15.5101 3.40362 15.6797 3.52864 15.8047C3.65367 15.9298 3.82323 16 4.00005 16C4.17686 16 4.34643 15.9298 4.47145 15.8047C4.59647 15.6797 4.66671 15.5101 4.66671 15.3333ZM12.6667 14V10.6667C12.6667 10.4898 12.5965 10.3203 12.4715 10.1952C12.3464 10.0702 12.1769 9.99999 12 9.99999C11.8232 9.99999 11.6537 10.0702 11.5286 10.1952C11.4036 10.3203 11.3334 10.4898 11.3334 10.6667V14C11.3334 14.1768 11.4036 14.3464 11.5286 14.4714C11.6537 14.5964 11.8232 14.6667 12 14.6667C12.1769 14.6667 12.3464 14.5964 12.4715 14.4714C12.5965 14.3464 12.6667 14.1768 12.6667 14ZM11.9454 3.42199C11.8463 3.39786 11.7538 3.35203 11.6746 3.28781C11.5954 3.2236 11.5315 3.14259 11.4874 3.05065C8.75005 -2.48735 0.329379 0.126652 1.43071 6.35199C1.44623 6.45878 1.43518 6.56776 1.39855 6.66927C1.36193 6.77078 1.30084 6.8617 1.22071 6.93399C0.830818 7.29169 0.522149 7.72883 0.315515 8.21594C0.108882 8.70305 0.00908751 9.22879 0.0228607 9.75774C0.036634 10.2867 0.163655 10.8065 0.395359 11.2822C0.627063 11.7579 0.958064 12.1784 1.36605 12.5153C1.42959 12.5662 1.50729 12.5962 1.58851 12.6012C1.66974 12.6062 1.75055 12.5861 1.8199 12.5435C1.88925 12.5009 1.94377 12.438 1.97601 12.3632C2.00825 12.2885 2.01665 12.2057 2.00005 12.126C1.98874 11.7918 2.05984 11.46 2.20708 11.1599C2.35432 10.8597 2.57318 10.6003 2.84434 10.4048C3.1155 10.2092 3.43064 10.0833 3.76194 10.0383C4.09324 9.99327 4.43053 10.0305 4.74405 10.1467C4.86112 9.72674 5.11246 9.35669 5.45964 9.09307C5.80683 8.82944 6.23078 8.68672 6.66671 8.68672C7.10265 8.68672 7.52659 8.82944 7.87378 9.09307C8.22097 9.35669 8.4723 9.72674 8.58938 10.1467C9.06654 9.95333 9.60022 9.95333 10.0774 10.1467C10.2109 9.67842 10.5106 9.27497 10.9204 9.01197C11.3302 8.74897 11.8218 8.64448 12.3031 8.7181C12.7844 8.79172 13.2223 9.03838 13.5347 9.41185C13.8472 9.78531 14.0126 10.2599 14 10.7467V11.5567C14.0001 11.625 14.0204 11.6919 14.0584 11.7488C14.0963 11.8057 14.1501 11.8501 14.2132 11.8765C14.2763 11.9029 14.3458 11.9101 14.4129 11.8972C14.4801 11.8843 14.5419 11.8519 14.5907 11.804C17.2254 9.22065 16.0307 4.14865 11.9454 3.42199Z" fill="#5BB5FA"/>
</svg>
