<svg width="22" height="24" viewBox="0 0 22 24" fill="none" xmlns="http://www.w3.org/2000/svg">
<path d="M18.6739 16.7201C17.9806 16.1352 17.4234 15.4057 17.0415 14.5829C16.6595 13.7601 16.462 12.8637 16.4627 11.9566V9.36522C16.4627 6.09442 14.0331 3.38688 10.8859 2.93329V1.92947C10.8859 1.68296 10.788 1.44654 10.6137 1.27224C10.4394 1.09793 10.203 1 9.95645 1C9.70994 1 9.47353 1.09793 9.29922 1.27224C9.12491 1.44654 9.02698 1.68296 9.02698 1.92947V2.93329C5.87887 3.38688 3.45017 6.09442 3.45017 9.36522V11.9566C3.45053 12.8656 3.25204 13.7636 2.86861 14.5878C2.48519 15.412 1.92612 16.1423 1.2306 16.7275C0.979233 16.9442 0.800072 17.2325 0.717109 17.5539C0.634147 17.8752 0.651343 18.2142 0.766395 18.5255C0.881447 18.8368 1.08886 19.1055 1.36086 19.2956C1.63286 19.4858 1.95647 19.5883 2.28833 19.5894H17.6246C18.5215 19.5894 19.2511 18.8597 19.2511 17.9628C19.2511 17.4869 19.0439 17.0371 18.6739 16.7201ZM9.95645 23.3072C10.7595 23.3062 11.5377 23.0282 12.1597 22.5203C12.7818 22.0123 13.2097 21.3055 13.3713 20.5188H6.54158C6.70322 21.3055 7.13113 22.0123 7.75318 22.5203C8.37523 23.0282 9.15337 23.3062 9.95645 23.3072Z" fill="#FFBA49"/>
<circle cx="19" cy="3" r="3" fill="#26BC80"/>
</svg>
