<svg width="16" height="16" viewBox="0 0 14 14" fill="none" xmlns="http://www.w3.org/2000/svg">
<path d="M0 6.99999C0 6.84528 0.0614582 6.69691 0.170854 6.58751C0.280251 6.47812 0.428624 6.41666 0.583333 6.41666H4.08333C4.23804 6.41666 4.38642 6.47812 4.49581 6.58751C4.60521 6.69691 4.66667 6.84528 4.66667 6.99999C4.66667 7.1547 4.60521 7.30307 4.49581 7.41247C4.38642 7.52187 4.23804 7.58332 4.08333 7.58332H0.583333C0.428624 7.58332 0.280251 7.52187 0.170854 7.41247C0.0614582 7.30307 0 7.1547 0 6.99999ZM12.2004 6.47849C12.4901 6.11386 12.6882 5.68517 12.7783 5.22828C12.8683 4.77139 12.8477 4.29958 12.718 3.8523C12.5884 3.40503 12.3535 2.9953 12.0331 2.65738C11.7127 2.31947 11.316 2.06318 10.8763 1.90997C10.4365 1.75676 9.96646 1.71107 9.50543 1.77673C9.0444 1.84239 8.60579 2.01749 8.22629 2.28738C7.84679 2.55726 7.53744 2.9141 7.32409 3.32804C7.11075 3.74197 6.99962 4.20098 7 4.66666C7 4.82137 7.06146 4.96974 7.17085 5.07914C7.28025 5.18853 7.42862 5.24999 7.58333 5.24999C7.73804 5.24999 7.88642 5.18853 7.99581 5.07914C8.10521 4.96974 8.16667 4.82137 8.16667 4.66666C8.16667 4.32054 8.2693 3.98219 8.46159 3.69441C8.65389 3.40662 8.9272 3.18232 9.24697 3.04987C9.56674 2.91741 9.91861 2.88276 10.2581 2.95028C10.5975 3.01781 10.9094 3.18448 11.1541 3.42922C11.3988 3.67396 11.5655 3.98578 11.633 4.32525C11.7006 4.66472 11.6659 5.01658 11.5335 5.33635C11.401 5.65612 11.1767 5.92944 10.8889 6.12173C10.6011 6.31402 10.2628 6.41666 9.91667 6.41666H6.41667C6.26196 6.41666 6.11358 6.47812 6.00419 6.58751C5.89479 6.69691 5.83333 6.84528 5.83333 6.99999C5.83333 7.1547 5.89479 7.30307 6.00419 7.41247C6.11358 7.52187 6.26196 7.58332 6.41667 7.58332H11.6667C11.9761 7.58332 12.2728 7.70624 12.4916 7.92503C12.7104 8.14383 12.8333 8.44057 12.8333 8.74999C12.8281 10.1132 10.9194 10.2947 10.4668 9.13907C10.4152 8.99318 10.3079 8.87373 10.1683 8.807C10.0287 8.74027 9.86831 8.73172 9.72242 8.78324C9.57653 8.83476 9.45708 8.94212 9.39034 9.08171C9.32361 9.2213 9.31506 9.38168 9.36658 9.52757C10.2754 11.9087 13.972 11.4211 14 8.74999C13.9993 8.22413 13.8213 7.71388 13.4947 7.3017C13.1682 6.88952 12.7122 6.59949 12.2004 6.47849ZM6.41667 9.33332H0.583333C0.428624 9.33332 0.280251 9.39478 0.170854 9.50418C0.0614582 9.61357 0 9.76195 0 9.91666C0 10.0714 0.0614582 10.2197 0.170854 10.3291C0.280251 10.4385 0.428624 10.5 0.583333 10.5H6.41667C6.72609 10.5 7.02283 10.6229 7.24162 10.8417C7.46042 11.0605 7.58333 11.3572 7.58333 11.6667C7.57808 13.0299 5.66942 13.2113 5.21675 12.0557C5.19124 11.9835 5.15175 11.917 5.10054 11.86C5.04933 11.803 4.9874 11.7567 4.91828 11.7237C4.84916 11.6906 4.77421 11.6715 4.69771 11.6674C4.62121 11.6634 4.54465 11.6744 4.47242 11.6999C4.40018 11.7254 4.33367 11.7649 4.2767 11.8161C4.21972 11.8673 4.17339 11.9293 4.14034 11.9984C4.1073 12.0675 4.0882 12.1424 4.08412 12.2189C4.08004 12.2954 4.09107 12.372 4.11658 12.4442C5.02542 14.8254 8.722 14.3377 8.75 11.6667C8.75 11.0478 8.50417 10.4543 8.06658 10.0167C7.629 9.57916 7.0355 9.33332 6.41667 9.33332ZM0.583333 4.66666H4.08333C4.70217 4.66666 5.29566 4.42082 5.73325 3.98324C6.17083 3.54565 6.41667 2.95216 6.41667 2.33332C6.38867 -0.338926 2.69092 -0.824843 1.78325 1.55574C1.75774 1.62798 1.74671 1.70453 1.75079 1.78103C1.75486 1.85754 1.77397 1.93248 1.80701 2.0016C1.87374 2.14119 1.99319 2.24856 2.13908 2.30007C2.28497 2.35159 2.44536 2.34305 2.58495 2.27631C2.72453 2.20958 2.8319 2.09013 2.88342 1.94424C3.33667 0.788074 5.24475 0.970074 5.25 2.33332C5.25 2.64274 5.12708 2.93949 4.90829 3.15828C4.6895 3.37707 4.39275 3.49999 4.08333 3.49999H0.583333C0.428624 3.49999 0.280251 3.56145 0.170854 3.67084C0.0614582 3.78024 0 3.92861 0 4.08332C0 4.23803 0.0614582 4.38641 0.170854 4.4958C0.280251 4.6052 0.428624 4.66666 0.583333 4.66666Z" fill="#27B88D"/>
</svg>
