<svg width="16" height="16" viewBox="0 0 16 17" fill="none" xmlns="http://www.w3.org/2000/svg">
<path d="M10.142 1.78467C9.5449 1.27462 8.78536 0.994385 8.00004 0.994385C7.21472 0.994385 6.45518 1.27462 5.85804 1.78467C1.80404 5.154 -1.75329 9.994 2.81471 14.852C4.19442 16.2188 6.05796 16.9855 8.00004 16.9855C9.94212 16.9855 11.8057 16.2188 13.1854 14.852C17.7574 9.96134 14.2 5.17134 10.142 1.78467ZM5.33337 7.66667C5.33337 7.48986 5.40361 7.32029 5.52864 7.19526C5.65366 7.07024 5.82323 7 6.00004 7C6.17685 7 6.34642 7.07024 6.47144 7.19526C6.59647 7.32029 6.66671 7.48986 6.66671 7.66667C6.66671 7.84348 6.59647 8.01305 6.47144 8.13807C6.34642 8.2631 6.17685 8.33334 6.00004 8.33334C5.82323 8.33334 5.65366 8.2631 5.52864 8.13807C5.40361 8.01305 5.33337 7.84348 5.33337 7.66667ZM7.22137 12.0367C7.12324 12.1838 6.97069 12.2859 6.79729 12.3205C6.62388 12.3551 6.44381 12.3195 6.29671 12.2213C6.1496 12.1232 6.0475 11.9707 6.01287 11.7973C5.97824 11.6238 6.01391 11.4438 6.11204 11.2967L8.77871 7.29667C8.87684 7.14956 9.02939 7.04746 9.20279 7.01283C9.3762 6.9782 9.55627 7.01387 9.70337 7.112C9.85048 7.21013 9.95258 7.36268 9.98721 7.53609C10.0218 7.7095 9.98617 7.88956 9.88804 8.03667L7.22137 12.0367ZM10 12.3333C9.82323 12.3333 9.65366 12.2631 9.52864 12.1381C9.40361 12.0131 9.33337 11.8435 9.33337 11.6667C9.33337 11.4899 9.40361 11.3203 9.52864 11.1953C9.65366 11.0702 9.82323 11 10 11C10.1769 11 10.3464 11.0702 10.4714 11.1953C10.5965 11.3203 10.6667 11.4899 10.6667 11.6667C10.6667 11.8435 10.5965 12.0131 10.4714 12.1381C10.3464 12.2631 10.1769 12.3333 10 12.3333Z" fill="#43A7C5"/>
</svg>
