<svg width="22" height="22" viewBox="0 0 22 22" fill="none" xmlns="http://www.w3.org/2000/svg">
<path d="M21.5116 9.08591L18.9881 8.46532C18.8362 7.98671 18.6413 7.52282 18.4058 7.07932C18.7847 6.44862 19.581 5.12119 19.581 5.12119C19.6549 4.99792 19.6856 4.85348 19.668 4.71081C19.6504 4.56814 19.5857 4.43543 19.4841 4.33379L17.6612 2.51096C17.5598 2.40903 17.427 2.34409 17.2843 2.32651C17.1415 2.30894 16.997 2.33975 16.8738 2.41403L14.9125 3.58918C14.4715 3.35577 14.0104 3.16259 13.5347 3.01198L12.9141 0.488469C12.8794 0.348994 12.7989 0.225153 12.6857 0.136642C12.5724 0.0481311 12.4328 3.3742e-05 12.2891 0L9.71094 0C9.4151 0 9.15703 0.201437 9.08591 0.488426C9.08591 0.488426 8.65601 2.24971 8.46592 3.01134C7.95945 3.17161 7.46959 3.38028 7.00313 3.63447L4.96946 2.41403C4.71518 2.26295 4.39166 2.30201 4.18206 2.51096L2.35924 4.33379C2.2576 4.43543 2.19285 4.56814 2.17528 4.71081C2.15772 4.85348 2.18835 4.99792 2.2623 5.12119L3.51991 7.22159C3.31739 7.62116 3.14753 8.03646 3.01198 8.46343L0.488469 9.08591C0.348994 9.12068 0.225149 9.20108 0.136637 9.31434C0.0481245 9.42759 2.83516e-05 9.5672 0 9.71094L0 12.2891C0 12.5849 0.201437 12.843 0.488426 12.9141L3.01258 13.5347C3.16555 14.02 3.36441 14.4914 3.60551 14.944L2.48011 16.8196C2.40616 16.9429 2.37553 17.0874 2.39309 17.23C2.41066 17.3727 2.47541 17.5054 2.57705 17.607L4.39987 19.4299C4.60823 19.6382 4.93298 19.6778 5.18727 19.5268C5.18727 19.5268 6.44927 18.7703 7.06737 18.4001C7.51463 18.6386 7.98278 18.8355 8.46596 18.9886L9.08596 21.5115C9.15703 21.7986 9.4151 22 9.71094 22H12.2891C12.4328 22 12.5724 21.9519 12.6856 21.8634C12.7989 21.7749 12.8793 21.651 12.9141 21.5116L13.5341 18.9887C14.0289 18.832 14.5078 18.6286 14.9641 18.3813C15.5992 18.762 16.8738 19.5268 16.8738 19.5268C17.1274 19.6785 17.4522 19.6395 17.6612 19.4299L19.484 17.607C19.5857 17.5054 19.6504 17.3727 19.668 17.23C19.6855 17.0874 19.6549 16.9429 19.5809 16.8196L18.4222 14.8892C18.6506 14.4554 18.84 14.0021 18.988 13.5347L21.5115 12.9141C21.651 12.8793 21.7749 12.7989 21.8634 12.6857C21.9519 12.5724 22 12.4328 22 12.2891V9.71094C22 9.5672 21.9519 9.4276 21.8634 9.31435C21.7749 9.20109 21.651 9.12068 21.5116 9.08591ZM11 15.5117C8.5125 15.5117 6.48828 13.4875 6.48828 11C6.48828 8.5125 8.5125 6.48828 11 6.48828C13.4875 6.48828 15.5117 8.5125 15.5117 11C15.5117 13.4875 13.4875 15.5117 11 15.5117Z" fill="#63768D"/>
</svg>
