<svg width="26" height="26" viewBox="0 0 26 26" fill="none" xmlns="http://www.w3.org/2000/svg">
<path d="M22.1908 3.80619C17.1133 -1.26981 8.88219 -1.26859 3.80619 3.80898C-1.26981 8.88656 -1.26859 17.1176 3.80898 22.1936C8.88656 27.2696 17.1176 27.2684 22.1936 22.1908C23.4006 20.9835 24.3579 19.5502 25.011 17.9729C25.6641 16.3956 26.0001 14.7051 25.9998 12.9979C25.9995 11.2908 25.663 9.60035 25.0095 8.02323C24.3559 6.44611 23.3982 5.01316 22.1908 3.80619ZM19.6879 18.1087L19.6862 18.1104V18.1061L19.0275 18.7604C18.6086 19.1846 18.0875 19.4935 17.5144 19.6575C16.9413 19.8214 16.3356 19.8348 15.7558 19.6964C14.5678 19.3784 13.4384 18.8723 12.4105 18.1971C11.4555 17.5868 10.5706 16.8733 9.77156 16.0694C9.03643 15.3397 8.37594 14.5384 7.7999 13.6775C7.16982 12.7511 6.67108 11.742 6.31791 10.6788C6.1194 10.0664 6.09533 9.41086 6.24841 8.78557C6.40148 8.16028 6.72565 7.58997 7.18459 7.13853L7.9559 6.36722C8.17034 6.15181 8.5188 6.15104 8.73416 6.36549L8.73589 6.36722L11.1712 8.80251C11.3866 9.01696 11.3874 9.36542 11.1729 9.58078L11.1712 9.58251L9.7412 11.0125C9.33089 11.4183 9.27929 12.0632 9.61988 12.5292C10.1371 13.239 10.7094 13.9069 11.3315 14.5268C12.0252 15.2234 12.7792 15.8571 13.5848 16.4205C14.0504 16.7452 14.6815 16.6904 15.0841 16.2905L16.4665 14.8865C16.6809 14.6711 17.0294 14.6703 17.2447 14.8848L17.2464 14.8865L19.6861 17.3305C19.9016 17.5449 19.9023 17.8933 19.6879 18.1087Z" fill="#26BC80"/>
</svg>
