<svg width="18" height="28" viewBox="0 0 18 28" fill="none" xmlns="http://www.w3.org/2000/svg">
<path d="M16.7499 5.39425C15.1612 2.65264 12.3394 0.977687 9.20154 0.913676C9.06759 0.910916 8.93277 0.910916 8.79877 0.913676C5.66093 0.977687 2.83916 2.65264 1.25046 5.39425C-0.373418 8.19659 -0.417847 11.5628 1.13159 14.3988L7.62276 26.2799C7.62567 26.2852 7.62859 26.2904 7.6316 26.2957C7.9172 26.792 8.42882 27.0884 9.00026 27.0884C9.57165 27.0884 10.0833 26.792 10.3688 26.2957C10.3718 26.2904 10.3747 26.2852 10.3777 26.2799L16.8688 14.3988C18.4182 11.5628 18.3737 8.19659 16.7499 5.39425ZM9.00016 12.773C6.97039 12.773 5.31905 11.1216 5.31905 9.09186C5.31905 7.06209 6.97039 5.41076 9.00016 5.41076C11.0299 5.41076 12.6813 7.06209 12.6813 9.09186C12.6813 11.1216 11.03 12.773 9.00016 12.773Z" fill="#26BC80"/>
</svg>
