<svg width="19" height="19" viewBox="0 0 19 19" fill="none" xmlns="http://www.w3.org/2000/svg">
<path d="M18.7874 17.7162L14.2657 13.1945C15.4979 11.6875 16.1038 9.7645 15.9579 7.82331C15.8121 5.88212 14.9257 4.07125 13.4821 2.76527C12.0386 1.45928 10.1482 0.758098 8.2022 0.806755C6.25615 0.855413 4.40324 1.65019 3.02674 3.02668C1.65025 4.40318 0.855474 6.25608 0.806816 8.20214C0.758159 10.1482 1.45934 12.0385 2.76533 13.4821C4.07131 14.9256 5.88218 15.812 7.82337 15.9579C9.76456 16.1037 11.6875 15.4979 13.1946 14.2657L17.7163 18.7873C17.8591 18.9253 18.0505 19.0017 18.2491 19C18.4477 18.9982 18.6377 18.9186 18.7782 18.7781C18.9186 18.6377 18.9983 18.4477 19 18.249C19.0018 18.0504 18.9254 17.8591 18.7874 17.7162ZM8.40397 14.4641C7.20537 14.4641 6.03369 14.1087 5.03709 13.4428C4.04049 12.7769 3.26374 11.8304 2.80505 10.7231C2.34637 9.61569 2.22636 8.39719 2.46019 7.22162C2.69403 6.04605 3.27121 4.96622 4.11875 4.11868C4.96628 3.27115 6.04611 2.69397 7.22168 2.46013C8.39725 2.2263 9.61576 2.34631 10.7231 2.80499C11.8305 3.26368 12.777 4.04043 13.4429 5.03703C14.1088 6.03363 14.4642 7.20531 14.4642 8.40391C14.4624 10.0106 13.8233 11.551 12.6872 12.6871C11.5511 13.8233 10.0107 14.4623 8.40397 14.4641Z" fill="#63768D"/>
</svg>
