<svg width="40" height="40" viewBox="0 0 40 40" fill="none" xmlns="http://www.w3.org/2000/svg">
<path d="M30.5 37.0625H33.125V39.6875H30.5V37.0625Z" fill="#E6B25E"/>
<path d="M31.1562 37.7188C31.1562 38.0668 31.2945 38.4007 31.5407 38.6468C31.7868 38.893 32.1207 39.0312 32.4688 39.0312H33.125V37.0625H31.1562V37.7188Z" fill="#F3D16E"/>
<path d="M1.625 8.84375H38.375V32.4688H1.625V8.84375Z" fill="#EBEBFD"/>
<path d="M2.9375 23.9375C2.9375 24.6337 3.21406 25.3014 3.70634 25.7937C4.19863 26.2859 4.86631 26.5625 5.5625 26.5625H38.375V8.84375H2.9375V23.9375Z" fill="#F6F9FE"/>
<path d="M20 18.0312H35.75V25.9062H20V18.0312Z" fill="white"/>
<path d="M1.625 28.5312H39.0312V32.4688H1.625V28.5312Z" fill="#E6B25E"/>
<path d="M2.9375 29.1875C2.9375 29.7096 3.14492 30.2104 3.51413 30.5796C3.88335 30.9488 4.38411 31.1562 4.90625 31.1562H39.0312V28.5312H2.9375V29.1875Z" fill="#F3D16E"/>
<path d="M8.1875 8.84375V10.1562C8.1875 11.2005 8.60234 12.2021 9.34077 12.9405C10.0792 13.6789 11.0807 14.0938 12.125 14.0938C13.1693 14.0938 14.1708 13.6789 14.9092 12.9405C15.6477 12.2021 16.0625 11.2005 16.0625 10.1562V8.84375H8.1875Z" fill="#58C17E"/>
<path d="M13.1094 13.9625C13.9536 13.7445 14.7015 13.2526 15.236 12.5637C15.7704 11.8749 16.0611 11.0281 16.0625 10.1562V8.84375H10.1562V10.1562C10.1576 11.0281 10.4483 11.8749 10.9828 12.5637C11.5172 13.2526 12.2652 13.7445 13.1094 13.9625Z" fill="#66DD90"/>
<path d="M16.0625 8.84375V10.1562C16.0625 11.2005 16.4773 12.2021 17.2158 12.9405C17.9542 13.6789 18.9557 14.0938 20 14.0938C21.0443 14.0938 22.0458 13.6789 22.7842 12.9405C23.5227 12.2021 23.9375 11.2005 23.9375 10.1562V8.84375H16.0625Z" fill="#F3D16E"/>
<path d="M20.9844 13.9625C21.8286 13.7445 22.5765 13.2526 23.111 12.5637C23.6454 11.8749 23.9361 11.0281 23.9375 10.1562V8.84375H18.0312V10.1562C18.0326 11.0281 18.3233 11.8749 18.8578 12.5637C19.3922 13.2526 20.1402 13.7445 20.9844 13.9625Z" fill="#F9F18F"/>
<path d="M23.9375 8.84375V10.1562C23.9375 11.2005 24.3523 12.2021 25.0908 12.9405C25.8292 13.6789 26.8307 14.0938 27.875 14.0938C28.9193 14.0938 29.9208 13.6789 30.6592 12.9405C31.3977 12.2021 31.8125 11.2005 31.8125 10.1562V8.84375H23.9375Z" fill="#58C17E"/>
<path d="M28.8594 13.9625C29.7036 13.7445 30.4515 13.2526 30.986 12.5637C31.5204 11.8749 31.8111 11.0281 31.8125 10.1562V8.84375H25.9062V10.1562C25.9076 11.0281 26.1983 11.8749 26.7328 12.5637C27.2672 13.2526 28.0152 13.7445 28.8594 13.9625Z" fill="#66DD90"/>
<path d="M31.8125 8.78928V10.1018C31.8125 11.1461 32.2273 12.1476 32.9658 12.886C33.7042 13.6244 34.7057 14.0393 35.75 14.0393C36.7943 14.0393 37.7958 13.6244 38.5342 12.886C39.2727 12.1476 39.6875 11.1461 39.6875 10.1018V8.78928H31.8125Z" fill="#F3D16E"/>
<path d="M36.7344 13.9625C37.5786 13.7445 38.3265 13.2526 38.861 12.5637C39.3954 11.8749 39.6861 11.0281 39.6875 10.1562V8.84375H33.7812V10.1562C33.7826 11.0281 34.0733 11.8749 34.6078 12.5637C35.1422 13.2526 35.8902 13.7445 36.7344 13.9625Z" fill="#F9F18F"/>
<path d="M32.4688 0.3125H7.53125L0.3125 8.84375H39.6875L32.4688 0.3125Z" fill="#E6B25E"/>
<path d="M0.3125 8.84375V10.1562C0.3125 11.2005 0.727343 12.2021 1.46577 12.9405C2.20419 13.6789 3.20571 14.0938 4.25 14.0938C5.29429 14.0938 6.29581 13.6789 7.03423 12.9405C7.77266 12.2021 8.1875 11.2005 8.1875 10.1562V8.84375H0.3125Z" fill="#F3D16E"/>
<path d="M5.23438 13.9625C6.07855 13.7445 6.82652 13.2526 7.36097 12.5637C7.89541 11.8749 8.18612 11.0281 8.1875 10.1562V8.84375H2.28125V10.1562C2.28263 11.0281 2.57334 11.8749 3.10778 12.5637C3.64223 13.2526 4.3902 13.7445 5.23438 13.9625Z" fill="#F9F18F"/>
<path d="M14.0931 0.3125L8.1875 8.84375H16.0625L18.6875 0.3125H14.0931ZM25.9069 0.3125H21.3125L23.9375 8.84375H31.8125L25.9069 0.3125ZM29.1875 23.9375H39.6875V37.0625H29.1875V23.9375Z" fill="#469C65"/>
<path d="M30.5 33.7812C30.5 34.3034 30.7074 34.8042 31.0766 35.1734C31.4458 35.5426 31.9466 35.75 32.4688 35.75H39.6875V23.9375H30.5V33.7812Z" fill="#58C17E"/>
<path d="M4.25 18.0312H17.375V32.4688H4.25V18.0312Z" fill="#469C65"/>
<path d="M5.5625 18.0312V29.1875C5.5625 29.7096 5.76992 30.2104 6.13913 30.5796C6.50835 30.9488 7.00911 31.1562 7.53125 31.1562H10.8125V18.0312H5.5625ZM12.125 18.0312V29.1875C12.125 29.7096 12.3324 30.2104 12.7016 30.5796C13.0708 30.9488 13.5716 31.1562 14.0938 31.1562H17.375V18.0312H12.125Z" fill="#58C17E"/>
<path d="M12.125 23.2812H10.8125V27.2188H12.125C12.4731 27.2188 12.8069 27.0805 13.0531 26.8343C13.2992 26.5882 13.4375 26.2543 13.4375 25.9062V24.5938C13.4375 24.2457 13.2992 23.9118 13.0531 23.6657C12.8069 23.4195 12.4731 23.2812 12.125 23.2812ZM9.5 23.2812C9.1519 23.2812 8.81806 23.4195 8.57192 23.6657C8.32578 23.9118 8.1875 24.2457 8.1875 24.5938V25.9062C8.1875 26.2543 8.32578 26.5882 8.57192 26.8343C8.81806 27.0805 9.1519 27.2188 9.5 27.2188H10.8125V23.2812H9.5Z" fill="#66DD90"/>
<path d="M20 23.5529L25.5217 18.0312H23.6658L20 21.6971V23.5529ZM27.6033 18.0312L25.4423 20.1923L26.3702 21.1202L29.4592 18.0312H27.6033ZM23.4683 22.161L24.7808 20.8485L25.7087 21.7765L24.3962 23.089L23.4683 22.161Z" fill="#EBEBFD"/>
<path d="M31.1562 25.9062H37.7188V27.2188H31.1562V25.9062ZM31.1562 28.5312H32.4688V29.8438H31.1562V28.5312ZM33.7812 28.5312H37.7188V29.8438H33.7812V28.5312ZM31.1562 31.1562H32.4688V32.4688H31.1562V31.1562ZM33.7812 31.1562H37.7188V32.4688H33.7812V31.1562ZM31.1562 33.7812H32.4688V35.0938H31.1562V33.7812ZM33.7812 33.7812H37.7188V35.0938H33.7812V33.7812Z" fill="white"/>
<path d="M11.4688 18.6875C11.4688 18.3251 11.1749 18.0312 10.8125 18.0312C10.4501 18.0312 10.1562 18.3251 10.1562 18.6875V31.8125C10.1562 32.1749 10.4501 32.4688 10.8125 32.4688C11.1749 32.4688 11.4688 32.1749 11.4688 31.8125V18.6875Z" fill="white"/>
<path d="M35.75 37.0625H38.375V39.6875H35.75V37.0625Z" fill="#E6B25E"/>
<path d="M36.4062 37.7188C36.4062 38.0668 36.5445 38.4007 36.7907 38.6468C37.0368 38.893 37.3707 39.0312 37.7188 39.0312H38.375V37.0625H36.4062V37.7188Z" fill="#F3D16E"/>
</svg>
