<svg width="35" height="35" viewBox="0 0 35 35" fill="none" xmlns="http://www.w3.org/2000/svg">
<path d="M1.69887 1.12901C1.24843 1.13182 0.817303 1.3123 0.49919 1.63122C0.181077 1.95013 0.00168459 2.38171 0 2.83216V20.9712C0 21.9032 0.766953 22.6701 1.69887 22.6701H30.0397C30.4898 22.6679 30.9208 22.4882 31.2393 22.1702C31.5577 21.8521 31.7379 21.4213 31.7407 20.9712V2.83216C31.7379 2.38169 31.5579 1.95043 31.2395 1.6317C30.9212 1.31296 30.4902 1.13238 30.0397 1.12901H1.69887Z" fill="#E7EBEF"/>
<path d="M27.771 1.12901C28.2218 1.13181 28.6534 1.31215 28.9722 1.63095C29.291 1.94975 29.4713 2.38132 29.4741 2.83216V19.838C29.4741 20.7699 28.7029 21.5347 27.771 21.5347H1.69887C1.24919 21.533 0.818381 21.3538 0.500208 21.036C0.182036 20.7182 0.00225653 20.2876 0 19.838V20.9712C0 21.9032 0.766953 22.6701 1.69887 22.6701H30.0397C30.4898 22.6679 30.9208 22.4882 31.2393 22.1702C31.5577 21.8521 31.7379 21.4213 31.7407 20.9712V2.83216C31.7379 2.38169 31.5579 1.95043 31.2395 1.6317C30.9212 1.31296 30.4902 1.13238 30.0397 1.12901H27.771Z" fill="#DBE1E7"/>
<path d="M5.10524 23.8034C3.54348 23.8034 2.2688 25.0759 2.2688 26.6356V27.2054C2.2688 28.765 3.54348 30.0376 5.10524 30.0376C6.66486 30.0376 7.9374 28.765 7.9374 27.2054V26.6356C7.9374 25.0759 6.66486 23.8034 5.10524 23.8034ZM28.9044 23.8034C27.3447 23.8034 26.0722 25.0759 26.0722 26.6356V27.2054C26.0722 28.765 27.3447 30.0376 28.9044 30.0376C30.4661 30.0376 31.7408 28.765 31.7408 27.2054V26.6356C31.7408 25.0759 30.4661 23.8034 28.9044 23.8034Z" fill="#FDD5A6"/>
<path d="M5.10516 23.8013C4.70026 23.8013 4.31893 23.8912 3.96973 24.0433C4.96805 24.4825 5.67074 25.4787 5.67074 26.6356V27.2054C5.67074 28.3623 4.96805 29.3585 3.96973 29.7976C4.40068 29.9845 4.87126 30.0614 5.33928 30.0216C5.8073 29.9818 6.25812 29.8265 6.65134 29.5696C7.04456 29.3127 7.36789 28.9622 7.59232 28.5496C7.81676 28.137 7.9353 27.6751 7.93732 27.2054V26.6356C7.93732 25.0759 6.66478 23.8013 5.10516 23.8013ZM28.9086 23.8013C28.5058 23.8013 28.1223 23.8912 27.7731 24.0433C28.7715 24.4825 29.4741 25.4787 29.4741 26.6356V27.2054C29.4741 28.3623 28.7715 29.3585 27.7731 29.7976C28.2041 29.9845 28.6747 30.0614 29.1427 30.0216C29.6107 29.9818 30.0615 29.8265 30.4547 29.5696C30.848 29.3127 31.1713 28.9622 31.3957 28.5496C31.6202 28.137 31.7387 27.6751 31.7407 27.2054V26.6356C31.7407 25.0759 30.4682 23.8013 28.9086 23.8013Z" fill="#FDCC93"/>
<path d="M17.0016 23.8034C15.4398 23.8034 14.1652 25.0759 14.1652 26.6356V27.2054C14.1652 28.765 15.4398 30.0376 17.0016 30.0376C18.5612 30.0376 19.8338 28.765 19.8338 27.2054V26.6356C19.8338 25.0759 18.5612 23.8034 17.0016 23.8034Z" fill="#FDD5A6"/>
<path d="M17.0015 23.8013C16.5966 23.8013 16.2153 23.8912 15.8661 24.0433C16.8644 24.4825 17.5671 25.4787 17.5671 26.6356V27.2054C17.5671 28.3623 16.8644 29.3585 15.8661 29.7976C16.297 29.9845 16.7676 30.0614 17.2356 30.0216C17.7037 29.9818 18.1545 29.8265 18.5477 29.5696C18.9409 29.3127 19.2642 28.9622 19.4887 28.5496C19.7131 28.137 19.8317 27.6751 19.8337 27.2054V26.6356C19.8337 25.0759 18.5611 23.8013 17.0015 23.8013Z" fill="#FDCC93"/>
<path d="M2.83224 3.39773C2.68168 3.39773 2.53727 3.45754 2.43081 3.56401C2.32434 3.67048 2.26453 3.81488 2.26453 3.96545V19.838C2.26509 19.9882 2.32516 20.132 2.43156 20.238C2.53797 20.344 2.68205 20.4035 2.83224 20.4035H28.9044C28.9789 20.4038 29.0528 20.3894 29.1218 20.3611C29.1908 20.3329 29.2535 20.2913 29.3064 20.2388C29.3594 20.1862 29.4014 20.1238 29.4302 20.055C29.459 19.9863 29.4739 19.9125 29.4742 19.838V3.96545C29.4742 3.89071 29.4595 3.81672 29.4308 3.7477C29.4021 3.67868 29.3601 3.616 29.3072 3.56325C29.2542 3.51051 29.1914 3.46873 29.1223 3.44033C29.0532 3.41193 28.9791 3.39745 28.9044 3.39773H2.83224Z" fill="#12964B"/>
<path d="M3.40202 28.9043C2.50009 28.9054 1.63544 29.2642 0.99768 29.902C0.359924 30.5397 0.00113378 31.4044 0 32.3063V33.4417C-5.32093e-07 33.5165 0.0147546 33.5905 0.043419 33.6595C0.0720833 33.7285 0.114093 33.7912 0.167037 33.8439C0.219982 33.8967 0.282819 33.9384 0.351945 33.9669C0.421071 33.9953 0.495126 34.0097 0.569859 34.0094H9.63619C9.7111 34.0097 9.78533 33.9952 9.8546 33.9666C9.92387 33.9381 9.9868 33.8961 10.0398 33.8432C10.0927 33.7902 10.1347 33.7273 10.1632 33.658C10.1918 33.5887 10.2063 33.5145 10.206 33.4396V32.3042C10.2043 31.4026 9.84531 30.5385 9.20761 29.9012C8.56992 29.2639 7.70558 28.9054 6.80403 28.9043H3.40202Z" fill="#FC6067"/>
<path d="M18.7025 28.9043C19.6048 28.9048 20.47 29.2634 21.1082 29.9012C21.7465 30.539 22.1056 31.404 22.1067 32.3063V33.4417C22.1067 33.5165 22.0919 33.5905 22.0633 33.6595C22.0346 33.7285 21.9926 33.7912 21.9397 33.8439C21.8867 33.8967 21.8239 33.9384 21.7547 33.9669C21.6856 33.9953 21.6116 34.0097 21.5368 34.0094H12.4705C12.3956 34.0097 12.3214 33.9952 12.2521 33.9666C12.1828 33.9381 12.1199 33.8961 12.0669 33.8432C12.0139 33.7902 11.972 33.7273 11.9434 33.658C11.9149 33.5887 11.9004 33.5145 11.9006 33.4396V32.3042C11.9023 31.4026 12.2614 30.5385 12.8991 29.9012C13.5368 29.2639 14.4011 28.9054 15.3027 28.9043H18.7025Z" fill="#68B1FC"/>
<path d="M30.6139 28.9043C32.4862 28.9043 34.0094 30.4318 34.0094 32.3063V33.4417C34.0094 33.5919 33.9499 33.736 33.8439 33.8424C33.7379 33.9488 33.5941 34.0089 33.4439 34.0094H24.3797C24.3048 34.0097 24.2305 33.9952 24.1613 33.9666C24.092 33.9381 24.0291 33.8961 23.9761 33.8432C23.9231 33.7902 23.8812 33.7273 23.8526 33.658C23.8241 33.5887 23.8095 33.5145 23.8098 33.4396V32.3042C23.8115 31.4026 24.1706 30.5385 24.8083 29.9012C25.4459 29.2639 26.3103 28.9054 27.2118 28.9043H30.6139Z" fill="#59E78B"/>
<path d="M19.2702 32.8762H12.4683C12.3934 32.8764 12.3192 32.8619 12.2499 32.8334C12.1806 32.8048 12.1177 32.7629 12.0647 32.7099C12.0117 32.6569 11.9698 32.594 11.9412 32.5247C11.9127 32.4554 11.8982 32.3812 11.8984 32.3063V33.4417C11.8984 33.7545 12.1534 34.0094 12.4683 34.0094H21.5346C21.6095 34.0097 21.6838 33.9952 21.753 33.9666C21.8223 33.9381 21.8852 33.8961 21.9382 33.8432C21.9912 33.7902 22.0332 33.7273 22.0617 33.658C22.0902 33.5887 22.1048 33.5145 22.1045 33.4396V32.3042C22.1028 31.4026 21.7437 30.5385 21.1061 29.9012C20.4684 29.2639 19.604 28.9054 18.7025 28.9043H16.4359C17.3378 28.9054 18.2025 29.2642 18.8402 29.902C19.478 30.5397 19.8368 31.4044 19.8379 32.3063C19.8382 32.381 19.8237 32.4551 19.7953 32.5242C19.7669 32.5933 19.7251 32.6562 19.6724 32.7091C19.6196 32.7621 19.557 32.8041 19.4879 32.8327C19.4189 32.8614 19.3449 32.8762 19.2702 32.8762Z" fill="#4FA4FB"/>
<path d="M31.173 32.8762H24.3733C24.2985 32.8762 24.2245 32.8614 24.1555 32.8327C24.0865 32.8041 24.0238 32.7621 23.9711 32.7091C23.9183 32.6562 23.8766 32.5933 23.8482 32.5242C23.8197 32.4551 23.8053 32.381 23.8056 32.3063V33.4417C23.8034 33.7545 24.0583 34.0094 24.3733 34.0094H33.4396C33.5145 34.0097 33.5887 33.9952 33.658 33.9666C33.7273 33.9381 33.7902 33.8961 33.8432 33.8432C33.8962 33.7902 33.9381 33.7273 33.9667 33.658C33.9952 33.5887 34.0097 33.5145 34.0095 33.4396V32.3042C34.0078 31.4026 33.6487 30.5385 33.011 29.9012C32.3733 29.2639 31.509 28.9054 30.6074 28.9043H28.343C29.2449 28.9054 30.1096 29.2642 30.7473 29.902C31.3851 30.5397 31.7439 31.4044 31.745 32.3063C31.7453 32.3812 31.7308 32.4554 31.7022 32.5247C31.6737 32.594 31.6317 32.6569 31.5787 32.7099C31.5258 32.7629 31.4628 32.8048 31.3936 32.8334C31.3243 32.8619 31.2479 32.8764 31.173 32.8762Z" fill="#41E37A"/>
<path d="M7.36961 32.8762H0.569863C0.494949 32.8764 0.420719 32.8619 0.351453 32.8334C0.282187 32.8048 0.219253 32.7629 0.16628 32.7099C0.113308 32.6569 0.071343 32.594 0.0428052 32.5247C0.0142675 32.4554 -0.000279175 32.3812 4.05779e-06 32.3063V33.4417C4.05779e-06 33.7545 0.254941 34.0094 0.569863 34.0094H9.63619C9.71111 34.0097 9.78534 33.9952 9.8546 33.9666C9.92387 33.9381 9.9868 33.8961 10.0398 33.8432C10.0927 33.7902 10.1347 33.7273 10.1633 33.658C10.1918 33.5887 10.2063 33.5145 10.2061 33.4396V32.3042C10.2044 31.4026 9.84531 30.5385 9.20762 29.9012C8.56992 29.2639 7.70559 28.9054 6.80404 28.9043H4.53531C5.43723 28.9054 6.30189 29.2642 6.93965 29.902C7.5774 30.5397 7.93619 31.4044 7.93733 32.3063C7.93761 32.381 7.92313 32.4551 7.89473 32.5242C7.86633 32.5933 7.82455 32.6562 7.77181 32.7091C7.71906 32.7621 7.65638 32.8041 7.58736 32.8327C7.51834 32.8614 7.44435 32.8762 7.36961 32.8762Z" fill="#FB4F56"/>
<path d="M2.83433 3.39773C2.75942 3.39717 2.68513 3.41143 2.61576 3.43971C2.54638 3.46799 2.48329 3.50972 2.43012 3.56249C2.37695 3.61526 2.33475 3.67804 2.30595 3.7472C2.27715 3.81636 2.26233 3.89053 2.26233 3.96545V19.838C2.26447 20.1507 2.51941 20.4035 2.83433 20.4014H5.09877C4.94857 20.402 4.80427 20.343 4.69746 20.2374C4.59065 20.1318 4.53004 19.9881 4.52891 19.838V5.09874C4.52891 4.78596 4.78385 4.52888 5.09877 4.53102H28.9022C29.2171 4.53102 29.4742 4.78596 29.472 5.10088V3.96545C29.472 3.89072 29.4573 3.81672 29.4286 3.7477C29.4 3.67868 29.3579 3.616 29.305 3.56325C29.2521 3.51051 29.1892 3.46874 29.1201 3.44033C29.051 3.41193 28.9769 3.39745 28.9022 3.39773H2.83433Z" fill="#00933F"/>
<path d="M17.5693 0C17.1196 0.00225653 16.689 0.182036 16.3713 0.500208C16.0535 0.818381 15.8742 1.24919 15.8726 1.69887V10.7652C15.8726 11.6971 16.6374 12.4683 17.5693 12.4683H18.1349V15.3005C18.1347 15.409 18.1656 15.5154 18.224 15.6068C18.2824 15.6983 18.3658 15.7712 18.4644 15.8167C18.5629 15.8622 18.6724 15.8786 18.7799 15.8638C18.8875 15.849 18.9885 15.8037 19.0711 15.7333L22.8801 12.4683H32.3064C32.7572 12.4655 33.1888 12.2852 33.5076 11.9664C33.8264 11.6476 34.0067 11.216 34.0095 10.7652V1.69887C34.0067 1.24843 33.8262 0.817303 33.5073 0.49919C33.1884 0.181077 32.7568 0.00168459 32.3064 0H17.5693Z" fill="#F8CA57"/>
<path d="M22.1046 3.39773V9.06633C22.1046 9.51194 22.5931 9.78187 22.9723 9.54836L27.5076 6.7162C27.5895 6.66523 27.6571 6.59422 27.7039 6.50988C27.7508 6.42554 27.7754 6.33066 27.7754 6.23418C27.7754 6.1377 27.7508 6.04281 27.7039 5.95847C27.6571 5.87413 27.5895 5.80312 27.5076 5.75215L22.9723 2.91571C22.6295 2.70148 22.1046 2.90928 22.1046 3.39773Z" fill="#E7EBEF"/>
<path d="M30.0398 0C30.9717 0 31.743 0.764811 31.743 1.69887V9.63191C31.7401 10.0827 31.5598 10.5143 31.241 10.8331C30.9222 11.1519 30.4906 11.3322 30.0398 11.3351H22.8801L19.0711 14.5978C18.9887 14.6682 18.8878 14.7134 18.7805 14.7283C18.6732 14.7432 18.5638 14.727 18.4654 14.6817C18.3669 14.6364 18.2835 14.5639 18.2249 14.4728C18.1664 14.3816 18.1351 14.2756 18.1349 14.1672V15.3026C18.1355 15.4108 18.1671 15.5166 18.2258 15.6074C18.2845 15.6983 18.368 15.7704 18.4663 15.8155C18.5647 15.8605 18.6739 15.8765 18.781 15.8615C18.8882 15.8466 18.9888 15.8013 19.0711 15.7311L22.8801 12.4683H32.3064C32.7572 12.4655 33.1888 12.2852 33.5076 11.9664C33.8264 11.6476 34.0067 11.216 34.0095 10.7652V1.69887C34.0067 1.24843 33.8262 0.817303 33.5073 0.49919C33.1884 0.181077 32.7568 0.00168459 32.3064 0H30.0398Z" fill="#DDA824"/>
<path d="M7.93302 15.8725C6.05849 15.8725 4.53101 17.3936 4.53101 19.2681V20.4014H17.0036V19.2681C17.0036 17.3936 15.4783 15.8725 13.6038 15.8725H7.93302Z" fill="#FCBC60"/>
<path d="M11.3351 15.8725C13.2096 15.8725 14.7371 17.3936 14.7371 19.2681V20.4014H17.0037V19.2681C17.0037 17.3936 15.4783 15.8725 13.6038 15.8725H11.3351Z" fill="#FBB04F"/>
<path d="M8.50293 13.6038V16.4359C8.50293 16.4788 8.50721 16.5216 8.51578 16.5645C8.51578 16.5645 8.61647 16.9865 8.95068 17.3721C9.28488 17.7578 9.90401 18.1348 10.7717 18.1348C11.6372 18.1348 12.2499 17.7599 12.5862 17.3721C12.9204 16.9865 13.0211 16.5666 13.0211 16.5666C13.0303 16.5244 13.0346 16.4813 13.034 16.4381V13.6038H8.50293Z" fill="#FDD5A6"/>
<path d="M8.50293 13.6038V15.8168C9.19017 16.2202 9.97262 16.4329 10.7695 16.4329C11.5664 16.4329 12.3489 16.2202 13.0361 15.8168V13.6038H8.50293Z" fill="#FDCC93"/>
<path d="M7.36963 9.6319V11.9028C7.37133 12.8043 7.73037 13.6684 8.36806 14.3057C9.00576 14.943 9.87009 15.3015 10.7716 15.3026C12.644 15.3026 14.1672 13.7752 14.1672 11.9006V9.6319H7.36963Z" fill="#FDD5A6"/>
<path d="M11.9007 9.6319V11.9028C11.8989 12.6045 11.6804 13.2887 11.2751 13.8615C10.8698 14.4344 10.2974 14.8682 9.63623 15.1034C9.99186 15.2319 10.3732 15.3026 10.7717 15.3026C12.6441 15.3026 14.1673 13.7752 14.1673 11.9006V9.6319H11.9007Z" fill="#FDCC93"/>
<path d="M10.2018 5.66646C9.2999 5.66759 8.43524 6.02638 7.79748 6.66414C7.15973 7.30189 6.80094 8.16655 6.7998 9.06847V10.7652C6.7998 11.0823 7.0526 11.3372 7.36966 11.3372H9.06639C10.5146 11.3372 12.0099 10.596 12.387 10.3517L13.2011 11.168C13.3082 11.2751 13.4517 11.3351 13.6038 11.3372H14.1673C14.2424 11.3375 14.3168 11.3229 14.3862 11.2942C14.4556 11.2655 14.5186 11.2234 14.5716 11.1702C14.6246 11.117 14.6665 11.0538 14.6949 10.9843C14.7234 10.9148 14.7377 10.8403 14.7371 10.7652V9.06847C14.736 8.16655 14.3772 7.30189 13.7394 6.66414C13.1017 6.02638 12.237 5.66759 11.3351 5.66646H10.2018Z" fill="#5A626E"/>
<path d="M10.2019 5.66646C10.0091 5.66646 9.82054 5.68788 9.63416 5.71787C10.4261 5.85226 11.1451 6.2622 11.6641 6.8753C12.1831 7.4884 12.4688 8.26519 12.4706 9.06847V10.4374L13.2011 11.168C13.3082 11.2751 13.4518 11.3351 13.6039 11.3372H14.1673C14.2424 11.3375 14.3168 11.3229 14.3862 11.2942C14.4556 11.2655 14.5187 11.2234 14.5717 11.1702C14.6247 11.117 14.6666 11.0538 14.695 10.9843C14.7234 10.9148 14.7377 10.8403 14.7372 10.7652V9.06847C14.736 8.16655 14.3773 7.30189 13.7395 6.66414C13.1017 6.02638 12.2371 5.66759 11.3352 5.66646H10.2019Z" fill="#515663"/>
</svg>
