<svg width="58" height="58" viewBox="0 0 58 58" fill="none" xmlns="http://www.w3.org/2000/svg">
<g opacity="0.05" filter="url(#filter0_d_0_1)">
<rect x="10" y="10" width="38" height="38" rx="19" fill="#DDA824"/>
</g>
<path d="M25.6157 24.5406C25.6157 24.4409 25.6553 24.3454 25.7257 24.2749C25.7962 24.2044 25.8918 24.1648 25.9914 24.1648H32.1916C32.2913 24.1648 32.3868 24.2044 32.4573 24.2749C32.5278 24.3454 32.5673 24.4409 32.5673 24.5406C32.5673 24.6402 32.5278 24.7358 32.4573 24.8063C32.3868 24.8767 32.2913 24.9163 32.1916 24.9163H25.9914C25.8918 24.9163 25.7962 24.8767 25.7257 24.8063C25.6553 24.7358 25.6157 24.6402 25.6157 24.5406ZM25.9914 22.8504H32.1916C32.2913 22.8504 32.3868 22.8108 32.4573 22.7403C32.5278 22.6699 32.5673 22.5743 32.5673 22.4746C32.5673 22.375 32.5278 22.2794 32.4573 22.2089C32.3868 22.1385 32.2913 22.0989 32.1916 22.0989H25.9914C25.8918 22.0989 25.7962 22.1385 25.7257 22.2089C25.6553 22.2794 25.6157 22.375 25.6157 22.4746C25.6157 22.5743 25.6553 22.6699 25.7257 22.7403C25.7962 22.8108 25.8918 22.8504 25.9914 22.8504ZM25.9914 20.7843H32.1916C32.2913 20.7843 32.3868 20.7447 32.4573 20.6743C32.5278 20.6038 32.5673 20.5082 32.5673 20.4086C32.5673 20.3089 32.5278 20.2134 32.4573 20.1429C32.3868 20.0724 32.2913 20.0329 32.1916 20.0329H25.9914C25.8918 20.0329 25.7962 20.0724 25.7257 20.1429C25.6553 20.2134 25.6157 20.3089 25.6157 20.4086C25.6157 20.5082 25.6553 20.6038 25.7257 20.6743C25.7962 20.7447 25.8918 20.7843 25.9914 20.7843ZM41.0706 40.5739C40.7966 40.8474 40.4252 41.0009 40.0381 41.0009C39.651 41.0009 39.2797 40.8474 39.0056 40.5739L35.3993 36.9677C35.3644 36.9328 35.3367 36.8913 35.3179 36.8458C35.299 36.8002 35.2892 36.7513 35.2892 36.7019C35.2892 36.6526 35.299 36.6037 35.3179 36.5581C35.3367 36.5125 35.3644 36.4711 35.3993 36.4362L35.4669 36.3687L34.9435 35.8453C34.92 35.8615 34.8965 35.8778 34.873 35.8937V36.9215C34.8726 37.2777 34.731 37.6191 34.4792 37.8709C34.2273 38.1228 33.8859 38.2644 33.5297 38.2648H19.8465C19.4903 38.2644 19.1489 38.1228 18.8971 37.8709C18.6452 37.6191 18.5036 37.2777 18.5032 36.9215V22.7927C18.5018 22.6161 18.5358 22.441 18.6034 22.2778C18.671 22.1146 18.7707 21.9667 18.8967 21.8429L23.3461 17.3934C23.4699 17.2675 23.6178 17.1678 23.781 17.1002C23.9442 17.0327 24.1193 16.9986 24.2959 17H33.5296C33.8857 17.0004 34.2272 17.1421 34.479 17.3939C34.7308 17.6457 34.8725 17.9872 34.8729 18.3433V26.7341C35.4808 27.1398 36.0019 27.6625 36.4056 28.2717C36.8094 28.8809 37.0877 29.5645 37.2245 30.2825C37.3612 31.0004 37.3536 31.7384 37.2021 32.4534C37.0506 33.1684 36.7581 33.8461 36.3419 34.4468L36.8652 34.9702L36.9328 34.9026C37.0033 34.8322 37.0989 34.7926 37.1985 34.7926C37.2982 34.7926 37.3937 34.8322 37.4642 34.9026L41.0705 38.5089C41.344 38.7829 41.4975 39.1543 41.4975 39.5414C41.4976 39.9285 41.344 40.2999 41.0706 40.5739ZM31.8106 26.5542C30.8692 26.5542 29.949 26.8334 29.1663 27.3564C28.3835 27.8794 27.7735 28.6228 27.4132 29.4925C27.053 30.3622 26.9587 31.3192 27.1424 32.2425C27.326 33.1658 27.7794 34.0139 28.445 34.6796C29.1107 35.3452 29.9588 35.7985 30.8821 35.9822C31.8054 36.1658 32.7624 36.0716 33.6321 35.7113C34.5018 35.3511 35.2452 34.741 35.7682 33.9583C36.2912 33.1755 36.5703 32.2553 36.5703 31.3139C36.5689 30.052 36.067 28.8422 35.1747 27.9498C34.2824 27.0575 33.0725 26.5556 31.8106 26.5542V26.5542ZM19.7862 22.0161H23.0216C23.1536 22.016 23.2801 21.9635 23.3735 21.8702C23.4668 21.7768 23.5193 21.6503 23.5195 21.5183V18.2829L19.7862 22.0161ZM34.1215 36.3165C33.1065 36.7861 31.9725 36.9353 30.8705 36.7441C29.7686 36.5529 28.7511 36.0304 27.9536 35.2463H25.9914C25.8918 35.2463 25.7962 35.2067 25.7257 35.1363C25.6553 35.0658 25.6157 34.9702 25.6157 34.8706C25.6157 34.7709 25.6553 34.6754 25.7257 34.6049C25.7962 34.5344 25.8918 34.4948 25.9914 34.4948H27.3126C27.0251 34.0897 26.7938 33.6475 26.6251 33.1802H25.9914C25.8918 33.1802 25.7962 33.1406 25.7257 33.0702C25.6553 32.9997 25.6157 32.9041 25.6157 32.8045C25.6157 32.7048 25.6553 32.6093 25.7257 32.5388C25.7962 32.4683 25.8918 32.4288 25.9914 32.4288H26.4129C26.3373 32.0619 26.2993 31.6883 26.2995 31.3138C26.2995 31.247 26.3011 31.1805 26.3034 31.1142H25.9914C25.8918 31.1142 25.7962 31.0747 25.7257 31.0042C25.6553 30.9337 25.6157 30.8382 25.6157 30.7385C25.6157 30.6388 25.6553 30.5433 25.7257 30.4728C25.7962 30.4023 25.8918 30.3628 25.9914 30.3628H26.3818C26.461 29.9093 26.597 29.4676 26.7869 29.0482H25.9914C25.8918 29.0482 25.7962 29.0087 25.7257 28.9382C25.6553 28.8677 25.6157 28.7722 25.6157 28.6725C25.6157 28.5729 25.6553 28.4773 25.7257 28.4068C25.7962 28.3364 25.8918 28.2968 25.9914 28.2968H27.2009C27.5294 27.7965 27.9366 27.3526 28.4068 26.9822H25.9914C25.8918 26.9822 25.7962 26.9426 25.7257 26.8722C25.6553 26.8017 25.6157 26.7061 25.6157 26.6065C25.6157 26.5068 25.6553 26.4112 25.7257 26.3408C25.7962 26.2703 25.8918 26.2307 25.9914 26.2307H29.6813C30.3864 25.9352 31.1454 25.7897 31.9099 25.8035C32.6743 25.8174 33.4275 25.9903 34.1215 26.3112V18.3433C34.1213 18.1864 34.0589 18.036 33.948 17.925C33.837 17.8141 33.6866 17.7517 33.5297 17.7515H24.296C24.2874 17.7515 24.2793 17.7523 24.271 17.7526V21.5183C24.2706 21.8495 24.1389 22.1671 23.9046 22.4013C23.6704 22.6355 23.3529 22.7672 23.0216 22.7676H19.2558C19.2555 22.776 19.2547 22.784 19.2547 22.7926V36.9215C19.2549 37.0784 19.3173 37.2289 19.4282 37.3398C19.5392 37.4508 19.6896 37.5132 19.8465 37.5133H33.5297C33.6867 37.5132 33.8371 37.4508 33.948 37.3398C34.059 37.2289 34.1214 37.0784 34.1215 36.9215L34.1215 36.3165ZM35.9983 35.8374L36.334 35.5017L35.8698 35.0375C35.7628 35.1542 35.6508 35.2661 35.5341 35.3733L35.9983 35.8374ZM36.1964 36.702L36.6526 37.1583L37.6549 36.156L37.1986 35.6998L36.1964 36.702ZM40.5393 39.0404L38.1862 36.6873L37.184 37.6896L39.537 40.0426C39.6702 40.1741 39.85 40.2475 40.0372 40.2469C40.2243 40.2463 40.4036 40.1717 40.536 40.0393C40.6683 39.907 40.7429 39.7277 40.7436 39.5406C40.7442 39.3534 40.6708 39.1736 40.5394 39.0404L40.5393 39.0404ZM31.8106 27.1182C32.6405 27.1182 33.4517 27.3642 34.1417 27.8253C34.8317 28.2863 35.3695 28.9416 35.687 29.7083C36.0046 30.4749 36.0877 31.3186 35.9258 32.1325C35.7639 32.9464 35.3643 33.694 34.7775 34.2808C34.1907 34.8676 33.4431 35.2672 32.6292 35.4291C31.8153 35.591 30.9717 35.5079 30.205 35.1903C29.4383 34.8727 28.783 34.335 28.322 33.645C27.861 32.955 27.6149 32.1437 27.6149 31.3139C27.6161 30.2015 28.0586 29.135 28.8452 28.3485C29.6318 27.5619 30.6982 27.1194 31.8106 27.1182ZM34.9627 29.9278L32.5645 31.3126L34.9678 32.6892C35.1582 32.2537 35.256 31.7833 35.2552 31.308C35.2544 30.8327 35.1549 30.3627 34.9631 29.9278H34.9627ZM34.593 33.3406L31.6239 31.6397C31.5665 31.6068 31.5187 31.5594 31.4856 31.5021C31.4524 31.4449 31.4349 31.3799 31.4349 31.3137V27.8906C30.8649 27.9527 30.3196 28.1562 29.8482 28.4825C29.3768 28.8088 28.9943 29.2476 28.7354 29.7592C28.4766 30.2707 28.3495 30.8388 28.3658 31.4119C28.382 31.9849 28.5411 32.5449 28.8285 33.0409C29.116 33.537 29.5227 33.9534 30.0118 34.2525C30.501 34.5515 31.057 34.7238 31.6295 34.7535C32.2021 34.7833 32.773 34.6697 33.2905 34.4229C33.808 34.1762 34.2557 33.8042 34.593 33.3406ZM32.1863 27.8905V30.6631L34.5864 29.2776C34.3042 28.8928 33.9452 28.5708 33.532 28.332C33.1189 28.0932 32.6606 27.9429 32.1863 27.8905ZM24.0954 24.2761L22.3107 26.0774L21.4359 25.2246C21.3644 25.1558 21.2686 25.1182 21.1694 25.1198C21.0702 25.1214 20.9757 25.1622 20.9065 25.2332C20.8372 25.3042 20.7989 25.3998 20.7998 25.4989C20.8007 25.5981 20.8408 25.6929 20.9114 25.7627L22.0532 26.8758C22.1242 26.945 22.2196 26.9833 22.3187 26.9824C22.4179 26.9815 22.5126 26.9415 22.5824 26.8711L24.6292 24.805C24.6645 24.7701 24.6926 24.7285 24.7117 24.6827C24.7309 24.6368 24.7407 24.5877 24.7407 24.538C24.7408 24.4883 24.7309 24.4392 24.7118 24.3933C24.6927 24.3475 24.6647 24.3059 24.6295 24.2709C24.5942 24.236 24.5523 24.2084 24.5063 24.1897C24.4603 24.171 24.411 24.1617 24.3613 24.1621C24.3117 24.1626 24.2626 24.173 24.217 24.1925C24.1713 24.2121 24.13 24.2405 24.0954 24.2761V24.2761ZM24.0954 28.4082L22.3107 30.2095L21.4359 29.3566C21.3644 29.2879 21.2686 29.2502 21.1694 29.2519C21.0702 29.2535 20.9757 29.2942 20.9065 29.3653C20.8372 29.4363 20.7989 29.5318 20.7998 29.631C20.8007 29.7302 20.8408 29.825 20.9114 29.8947L22.0532 31.0079C22.1242 31.077 22.2196 31.1154 22.3187 31.1145C22.4179 31.1136 22.5126 31.0736 22.5824 31.0032L24.6292 28.937C24.6652 28.9022 24.6938 28.8606 24.7135 28.8146C24.7331 28.7687 24.7434 28.7192 24.7437 28.6692C24.744 28.6192 24.7343 28.5696 24.7152 28.5234C24.696 28.4772 24.6679 28.4352 24.6324 28.4C24.5968 28.3648 24.5546 28.3371 24.5082 28.3184C24.4618 28.2997 24.4121 28.2905 24.3621 28.2913C24.3121 28.2921 24.2628 28.3028 24.217 28.3229C24.1712 28.343 24.1298 28.3721 24.0954 28.4084V28.4082ZM24.0954 32.5401L22.3107 34.3414L21.4359 33.4886C21.3644 33.4198 21.2686 33.3822 21.1694 33.3838C21.0702 33.3854 20.9757 33.4262 20.9065 33.4972C20.8372 33.5682 20.7989 33.6638 20.7998 33.7629C20.8007 33.8621 20.8408 33.9569 20.9114 34.0267L22.0532 35.1398C22.1242 35.209 22.2196 35.2473 22.3187 35.2464C22.4179 35.2455 22.5126 35.2055 22.5824 35.1351L24.6292 33.0691C24.6994 32.9983 24.7385 32.9025 24.7381 32.8029C24.7376 32.7032 24.6976 32.6078 24.6268 32.5376C24.556 32.4675 24.4603 32.4283 24.3606 32.4288C24.261 32.4293 24.1656 32.4693 24.0954 32.5401Z" fill="#DDA824"/>
<defs>
<filter id="filter0_d_0_1" x="0" y="0" width="58" height="58" filterUnits="userSpaceOnUse" color-interpolation-filters="sRGB">
<feFlood flood-opacity="0" result="BackgroundImageFix"/>
<feColorMatrix in="SourceAlpha" type="matrix" values="0 0 0 0 0 0 0 0 0 0 0 0 0 0 0 0 0 0 127 0" result="hardAlpha"/>
<feOffset/>
<feGaussianBlur stdDeviation="5"/>
<feComposite in2="hardAlpha" operator="out"/>
<feColorMatrix type="matrix" values="0 0 0 0 0.14902 0 0 0 0 0.741176 0 0 0 0 0.505882 0 0 0 0.1 0"/>
<feBlend mode="normal" in2="BackgroundImageFix" result="effect1_dropShadow_0_1"/>
<feBlend mode="normal" in="SourceGraphic" in2="effect1_dropShadow_0_1" result="shape"/>
</filter>
</defs>
</svg>
