<svg width="58" height="58" viewBox="0 0 58 58" fill="none" xmlns="http://www.w3.org/2000/svg">
<g opacity="0.05" filter="url(#filter0_d_0_1)">
<rect x="10" y="10" width="38" height="38" rx="19" fill="#26BC80"/>
</g>
<path d="M21.6719 34.6563C21.9049 34.6563 22.0938 34.4674 22.0938 34.2344C22.0938 34.0014 21.9049 33.8125 21.6719 33.8125C21.4389 33.8125 21.25 34.0014 21.25 34.2344C21.25 34.4674 21.4389 34.6563 21.6719 34.6563Z" fill="#00933F"/>
<path d="M34.8906 35.5C35.1236 35.5 35.3125 35.3112 35.3125 35.0782C35.3125 34.8452 35.1236 34.6563 34.8906 34.6563C34.6576 34.6563 34.4688 34.8452 34.4688 35.0782C34.4688 35.3112 34.6576 35.5 34.8906 35.5Z" fill="#00933F"/>
<path d="M34.75 30.1563C35.3465 30.1556 35.9184 29.9183 36.3403 29.4965C36.7621 29.0747 36.9993 28.5028 37 27.9063C37 27.8317 36.9704 27.7602 36.9176 27.7074C36.8649 27.6547 36.7933 27.625 36.7188 27.625H35.875C35.5553 27.6252 35.2394 27.6937 34.9484 27.8259C34.6573 27.9582 34.3979 28.1511 34.1875 28.3917V26.2188H34.75C35.3465 26.2181 35.9184 25.9808 36.3403 25.559C36.7621 25.1372 36.9993 24.5653 37 23.9688C37 23.8942 36.9704 23.8227 36.9176 23.7699C36.8649 23.7172 36.7933 23.6875 36.7188 23.6875H35.875C35.5553 23.6877 35.2394 23.7562 34.9484 23.8884C34.6573 24.0207 34.3979 24.2136 34.1875 24.4542V23.5562C34.4848 23.3492 34.729 23.0749 34.9001 22.7556C35.0712 22.4362 35.1643 22.081 35.1719 21.7188C35.1603 21.3285 35.0513 20.9474 34.8548 20.61C34.6583 20.2727 34.3806 19.9898 34.0469 19.7872C34.0044 19.7629 33.9563 19.7501 33.9074 19.7501C33.8584 19.7501 33.8104 19.7629 33.7679 19.7872C33.4338 19.9895 33.1556 20.2723 32.9587 20.6097C32.7618 20.9471 32.6525 21.3283 32.6406 21.7188C32.6482 22.081 32.7413 22.4362 32.9124 22.7556C33.0835 23.0749 33.3277 23.3492 33.625 23.5562V24.4542C33.4146 24.2136 33.1552 24.0207 32.8641 23.8884C32.5731 23.7562 32.2572 23.6877 31.9375 23.6875H31.0938C31.0192 23.6875 30.9476 23.7172 30.8949 23.7699C30.8421 23.8227 30.8125 23.8942 30.8125 23.9688C30.8132 24.5653 31.0504 25.1372 31.4722 25.559C31.8941 25.9808 32.466 26.2181 33.0625 26.2188H33.625V28.3917C33.4146 28.1511 33.1552 27.9582 32.8641 27.8259C32.5731 27.6937 32.2572 27.6252 31.9375 27.625H31.0938C31.0192 27.625 30.9476 27.6547 30.8949 27.7074C30.8421 27.7602 30.8125 27.8317 30.8125 27.9063C30.8132 28.5028 31.0504 29.0747 31.4722 29.4965C31.8941 29.9183 32.466 30.1556 33.0625 30.1563H33.625V31.8576C32.8291 31.8822 32.0693 32.1956 31.4875 32.7393C31.3786 32.8469 31.2329 32.909 31.0798 32.913C30.9268 32.9169 30.778 32.8625 30.6637 32.7607C29.9995 32.1903 29.1566 31.8705 28.2812 31.8567V29.4532C28.2824 29.267 28.3569 29.0889 28.4885 28.9573C28.6201 28.8257 28.7983 28.7512 28.9844 28.75C29.1709 28.75 29.3497 28.8241 29.4816 28.956C29.6134 29.0878 29.6875 29.2667 29.6875 29.4532V30.1563C29.6875 30.2309 29.7171 30.3024 29.7699 30.3552C29.8226 30.4079 29.8942 30.4375 29.9688 30.4375C30.0433 30.4375 30.1149 30.4079 30.1676 30.3552C30.2204 30.3024 30.25 30.2309 30.25 30.1563V29.4532C30.2496 29.1176 30.1162 28.7959 29.8789 28.5586C29.6416 28.3214 29.3199 28.1879 28.9844 28.1875C28.7339 28.1866 28.4889 28.261 28.2812 28.401V25.5157C28.2824 25.3295 28.3569 25.1514 28.4885 25.0198C28.6201 24.8882 28.7983 24.8137 28.9844 24.8125C29.1709 24.8125 29.3497 24.8866 29.4816 25.0185C29.6134 25.1503 29.6875 25.3292 29.6875 25.5157V26.2188C29.6875 26.2934 29.7171 26.3649 29.7699 26.4177C29.8226 26.4704 29.8942 26.5 29.9688 26.5C30.0433 26.5 30.1149 26.4704 30.1676 26.4177C30.2204 26.3649 30.25 26.2934 30.25 26.2188V25.5157C30.2496 25.1801 30.1162 24.8584 29.8789 24.6211C29.6416 24.3839 29.3199 24.2504 28.9844 24.25C28.7339 24.2491 28.4889 24.3235 28.2812 24.4635V23.5562C28.5786 23.3492 28.8228 23.0749 28.9939 22.7556C29.1649 22.4362 29.2581 22.081 29.2656 21.7188C29.254 21.3285 29.145 20.9474 28.9485 20.61C28.752 20.2727 28.4743 19.9898 28.1406 19.7872C28.0981 19.7629 28.0501 19.7501 28.0011 19.7501C27.9522 19.7501 27.9041 19.7629 27.8616 19.7872C27.5275 19.9895 27.2493 20.2723 27.0525 20.6097C26.8556 20.9471 26.7462 21.3283 26.7344 21.7188C26.7419 22.081 26.8351 22.4362 27.0061 22.7556C27.1772 23.0749 27.4214 23.3492 27.7188 23.5562V24.4638C27.5111 24.3237 27.2661 24.2492 27.0156 24.25C26.6801 24.2504 26.3584 24.3839 26.1211 24.6211C25.8838 24.8584 25.7504 25.1801 25.75 25.5157V26.2188C25.75 26.2934 25.7796 26.3649 25.8324 26.4177C25.8851 26.4704 25.9567 26.5 26.0312 26.5C26.1058 26.5 26.1774 26.4704 26.2301 26.4177C26.2829 26.3649 26.3125 26.2934 26.3125 26.2188V25.5157C26.3125 25.3292 26.3866 25.1503 26.5184 25.0185C26.6503 24.8866 26.8291 24.8125 27.0156 24.8125C27.2017 24.8137 27.3799 24.8882 27.5115 25.0198C27.6431 25.1514 27.7176 25.3295 27.7188 25.5157V28.3917C27.5083 28.1511 27.2489 27.9582 26.9579 27.8259C26.6669 27.6937 26.3509 27.6252 26.0312 27.625H25.1875C25.1129 27.625 25.0414 27.6547 24.9886 27.7074C24.9359 27.7602 24.9062 27.8317 24.9062 27.9063C24.9069 28.5028 25.1442 29.0747 25.566 29.4965C25.9878 29.9183 26.5597 30.1556 27.1562 30.1563H27.7188V31.8567C26.8432 31.8703 26.0001 32.1902 25.3357 32.7607C25.2214 32.8625 25.0726 32.917 24.9196 32.9131C24.7666 32.9091 24.6208 32.8469 24.5119 32.7393C23.9302 32.1958 23.1707 31.8824 22.375 31.8576V29.4532C22.3762 29.267 22.4506 29.0889 22.5822 28.9573C22.7139 28.8257 22.892 28.7512 23.0781 28.75C23.2646 28.75 23.4434 28.8241 23.5753 28.956C23.7072 29.0878 23.7812 29.2667 23.7812 29.4532V30.1563C23.7812 30.2309 23.8109 30.3024 23.8636 30.3552C23.9164 30.4079 23.9879 30.4375 24.0625 30.4375C24.1371 30.4375 24.2086 30.4079 24.2614 30.3552C24.3141 30.3024 24.3438 30.2309 24.3438 30.1563V29.4532C24.3434 29.1176 24.2099 28.7959 23.9726 28.5586C23.7354 28.3214 23.4137 28.1879 23.0781 28.1875C22.8277 28.1866 22.5827 28.261 22.375 28.401V26.0782C22.3762 25.892 22.4506 25.7139 22.5822 25.5823C22.7139 25.4507 22.892 25.3762 23.0781 25.375C23.2646 25.375 23.4434 25.4491 23.5753 25.581C23.7072 25.7128 23.7812 25.8917 23.7812 26.0782V26.7813C23.7812 26.8559 23.8109 26.9274 23.8636 26.9802C23.9164 27.0329 23.9879 27.0625 24.0625 27.0625C24.1371 27.0625 24.2086 27.0329 24.2614 26.9802C24.3141 26.9274 24.3438 26.8559 24.3438 26.7813V26.0782C24.3434 25.7426 24.2099 25.4209 23.9726 25.1836C23.7354 24.9464 23.4137 24.8129 23.0781 24.8125C22.8277 24.8116 22.5827 24.886 22.375 25.026V22.9844C22.3746 22.6489 22.2412 22.3272 22.0039 22.0899C21.7666 21.8526 21.4449 21.7192 21.1094 21.7188C20.7741 21.7199 20.4528 21.8536 20.2157 22.0907C19.9786 22.3278 19.8449 22.6491 19.8438 22.9844V23.6875C19.8438 23.7621 19.8734 23.8337 19.9261 23.8864C19.9789 23.9392 20.0504 23.9688 20.125 23.9688C20.1996 23.9688 20.2711 23.9392 20.3239 23.8864C20.3766 23.8337 20.4063 23.7621 20.4063 23.6875V22.9844C20.4074 22.7983 20.4819 22.6201 20.6135 22.4885C20.7451 22.3569 20.9233 22.2825 21.1094 22.2813C21.2959 22.2813 21.4747 22.3554 21.6066 22.4872C21.7384 22.6191 21.8125 22.7979 21.8125 22.9844V25.0263C21.6048 24.8862 21.3599 24.8117 21.1094 24.8125C20.7738 24.8129 20.4521 24.9464 20.2149 25.1836C19.9776 25.4209 19.8441 25.7426 19.8438 26.0782V26.7813C19.8438 26.8559 19.8734 26.9274 19.9261 26.9802C19.9789 27.0329 20.0504 27.0625 20.125 27.0625C20.1996 27.0625 20.2711 27.0329 20.3239 26.9802C20.3766 26.9274 20.4063 26.8559 20.4063 26.7813V26.0782C20.4063 25.8917 20.4803 25.7128 20.6122 25.581C20.7441 25.4491 20.9229 25.375 21.1094 25.375C21.2955 25.3762 21.4736 25.4507 21.6053 25.5823C21.7369 25.7139 21.8113 25.892 21.8125 26.0782V28.4013C21.6048 28.2612 21.3599 28.1867 21.1094 28.1875C20.7738 28.1879 20.4521 28.3214 20.2149 28.5586C19.9776 28.7959 19.8441 29.1176 19.8438 29.4532V30.1563C19.8438 30.2309 19.8734 30.3024 19.9261 30.3552C19.9789 30.4079 20.0504 30.4375 20.125 30.4375C20.1996 30.4375 20.2711 30.4079 20.3239 30.3552C20.3766 30.3024 20.4063 30.2309 20.4063 30.1563V29.4532C20.4063 29.2667 20.4803 29.0878 20.6122 28.956C20.7441 28.8241 20.9229 28.75 21.1094 28.75C21.2955 28.7512 21.4736 28.8257 21.6053 28.9573C21.7369 29.0889 21.8113 29.267 21.8125 29.4532V31.857C19.6235 31.9914 19.0388 33.65 19.0143 33.7237C19.0048 33.7523 19 33.7823 19 33.8125V35.7813C19.0004 36.1541 19.1487 36.5115 19.4124 36.7752C19.676 37.0388 20.0334 37.1871 20.4063 37.1875H35.5938C35.9666 37.1871 36.324 37.0388 36.5876 36.7752C36.8513 36.5115 36.9996 36.1541 37 35.7813V33.8125C37 33.7823 36.9952 33.7523 36.9857 33.7237C36.9612 33.65 36.3765 31.9914 34.1875 31.857V30.1563H34.75ZM35.875 28.1875H36.4142C36.3472 28.5805 36.1434 28.9372 35.8389 29.1946C35.5344 29.4519 35.1487 29.5933 34.75 29.5938H34.2108C34.2778 29.2008 34.4816 28.8441 34.7861 28.5868C35.0906 28.3294 35.4763 28.188 35.875 28.1875ZM35.875 24.25H36.4142C36.3472 24.643 36.1434 24.9997 35.8389 25.2571C35.5344 25.5144 35.1487 25.6558 34.75 25.6563H34.2108C34.2778 25.2633 34.4816 24.9066 34.7861 24.6493C35.0906 24.3919 35.4763 24.2505 35.875 24.25ZM33.2031 21.7188C33.2097 21.4555 33.2764 21.1973 33.3983 20.9638C33.5202 20.7304 33.694 20.528 33.9062 20.3722C34.1181 20.5284 34.2915 20.7309 34.4133 20.9643C34.5351 21.1976 34.6022 21.4557 34.6094 21.7188C34.6029 21.9821 34.5361 22.2403 34.4142 22.4738C34.2924 22.7072 34.1186 22.9096 33.9062 23.0654C33.6944 22.9092 33.521 22.7067 33.3991 22.4733C33.2773 22.24 33.2103 21.9819 33.2031 21.7188ZM33.0625 25.6563C32.6638 25.6558 32.2781 25.5144 31.9736 25.2571C31.6691 24.9997 31.4653 24.643 31.3983 24.25H31.9375C32.3362 24.2505 32.7219 24.3919 33.0264 24.6493C33.3309 24.9066 33.5347 25.2633 33.6017 25.6563H33.0625ZM33.0625 29.5938C32.6638 29.5933 32.2781 29.4519 31.9736 29.1946C31.6691 28.9372 31.4653 28.5805 31.3983 28.1875H31.9375C32.3362 28.188 32.7219 28.3294 33.0264 28.5868C33.3309 28.8441 33.5347 29.2008 33.6017 29.5938H33.0625ZM27.2969 21.7188C27.3034 21.4555 27.3702 21.1973 27.4921 20.9638C27.614 20.7304 27.7877 20.528 28 20.3722C28.2118 20.5284 28.3852 20.7309 28.5071 20.9643C28.6289 21.1976 28.6959 21.4557 28.7031 21.7188C28.6966 21.9821 28.6299 22.2403 28.508 22.4738C28.3861 22.7072 28.2123 22.9096 28 23.0654C27.7882 22.9092 27.6147 22.7067 27.4929 22.4733C27.371 22.24 27.304 21.9819 27.2969 21.7188ZM27.1562 29.5938C26.7576 29.5933 26.3719 29.4519 26.0674 29.1946C25.7629 28.9372 25.5591 28.5805 25.4921 28.1875H26.0312C26.4299 28.188 26.8156 28.3294 27.1201 28.5868C27.4246 28.8441 27.6284 29.2008 27.6954 29.5938H27.1562ZM36.4375 33.8634V35.7813C36.4375 36.0051 36.3486 36.2197 36.1904 36.3779C36.0321 36.5361 35.8175 36.625 35.5938 36.625H20.4063C20.1825 36.625 19.9679 36.5361 19.8096 36.3779C19.6514 36.2197 19.5625 36.0051 19.5625 35.7813V33.8643C19.6578 33.6325 20.2516 32.4063 22.0938 32.4063C22.4632 32.3886 22.8325 32.4446 23.1801 32.5709C23.5277 32.6972 23.8468 32.8913 24.1188 33.142C24.3303 33.3496 24.613 33.4688 24.9093 33.4752C25.2056 33.4817 25.4933 33.375 25.7137 33.1769C26.3504 32.6392 27.1677 32.3637 28 32.4063C28.8321 32.3638 29.6492 32.6393 30.2857 33.1769C30.5062 33.3749 30.7938 33.4815 31.0901 33.475C31.3864 33.4685 31.6691 33.3495 31.8807 33.142C32.1527 32.8913 32.4719 32.6971 32.8196 32.5708C33.1673 32.4445 33.5367 32.3886 33.9062 32.4063C35.7566 32.4063 36.3413 33.6258 36.4375 33.8634Z" fill="#00933F"/>
<path d="M27.8594 33.8125C27.7848 33.8125 27.7132 33.8422 27.6605 33.8949C27.6078 33.9477 27.5781 34.0192 27.5781 34.0938C27.5781 34.1684 27.6078 34.2399 27.6605 34.2927C27.7132 34.3454 27.7848 34.375 27.8594 34.375C27.9428 34.375 28.0244 34.3998 28.0938 34.4461C28.1631 34.4925 28.2172 34.5584 28.2491 34.6355C28.2811 34.7125 28.2894 34.7974 28.2731 34.8792C28.2569 34.961 28.2167 35.0362 28.1577 35.0952C28.0987 35.1542 28.0235 35.1944 27.9417 35.2107C27.8598 35.227 27.775 35.2186 27.6979 35.1867C27.6208 35.1547 27.555 35.1007 27.5086 35.0313C27.4622 34.9619 27.4375 34.8803 27.4375 34.7969C27.4375 34.7223 27.4079 34.6508 27.3551 34.598C27.3024 34.5453 27.2308 34.5157 27.1562 34.5157C27.0817 34.5157 27.0101 34.5453 26.9574 34.598C26.9046 34.6508 26.875 34.7223 26.875 34.7969C26.875 34.9916 26.9327 35.1819 27.0409 35.3438C27.1491 35.5057 27.3028 35.6318 27.4827 35.7063C27.6625 35.7809 27.8605 35.8003 28.0514 35.7624C28.2424 35.7244 28.4178 35.6306 28.5554 35.493C28.6931 35.3553 28.7869 35.1799 28.8248 34.9889C28.8628 34.798 28.8433 34.6001 28.7688 34.4202C28.6943 34.2403 28.5681 34.0866 28.4063 33.9784C28.2444 33.8703 28.0541 33.8125 27.8594 33.8125Z" fill="#00933F"/>
<path d="M24.625 35.5C24.7803 35.5 24.9062 35.3741 24.9062 35.2188C24.9062 35.0635 24.7803 34.9375 24.625 34.9375C24.4697 34.9375 24.3438 35.0635 24.3438 35.2188C24.3438 35.3741 24.4697 35.5 24.625 35.5Z" fill="#00933F"/>
<path d="M32.2188 34.9375C32.3741 34.9375 32.5 34.8116 32.5 34.6563C32.5 34.501 32.3741 34.375 32.2188 34.375C32.0634 34.375 31.9375 34.501 31.9375 34.6563C31.9375 34.8116 32.0634 34.9375 32.2188 34.9375Z" fill="#00933F"/>
<defs>
<filter id="filter0_d_0_1" x="0" y="0" width="58" height="58" filterUnits="userSpaceOnUse" color-interpolation-filters="sRGB">
<feFlood flood-opacity="0" result="BackgroundImageFix"/>
<feColorMatrix in="SourceAlpha" type="matrix" values="0 0 0 0 0 0 0 0 0 0 0 0 0 0 0 0 0 0 127 0" result="hardAlpha"/>
<feOffset/>
<feGaussianBlur stdDeviation="5"/>
<feComposite in2="hardAlpha" operator="out"/>
<feColorMatrix type="matrix" values="0 0 0 0 0.14902 0 0 0 0 0.741176 0 0 0 0 0.505882 0 0 0 0.1 0"/>
<feBlend mode="normal" in2="BackgroundImageFix" result="effect1_dropShadow_0_1"/>
<feBlend mode="normal" in="SourceGraphic" in2="effect1_dropShadow_0_1" result="shape"/>
</filter>
</defs>
</svg>
