<svg width="30" height="30" viewBox="0 0 30 30" fill="none" xmlns="http://www.w3.org/2000/svg">
<path d="M21.875 0H8.125C7.08947 0 6.25 0.839473 6.25 1.875C6.25 2.91053 7.08947 3.75 8.125 3.75H21.875C22.9105 3.75 23.75 2.91053 23.75 1.875C23.75 0.839473 22.9105 0 21.875 0Z" fill="#7CBC79"/>
<path d="M21.875 27.5H8.12502C7.77984 27.5 7.5 27.2201 7.5 26.875V21.6437C7.49996 20.8418 7.67137 20.0492 8.00273 19.319C8.33408 18.5889 8.81773 17.9379 9.42123 17.41L11.6375 15.47C11.8971 15.2425 11.923 14.8476 11.6955 14.588C11.6774 14.5674 11.6581 14.5481 11.6375 14.53L9.42123 12.59C8.81773 12.0621 8.33408 11.4111 8.00273 10.6809C7.67137 9.95075 7.49996 9.15815 7.5 8.35628V3.12503C7.5 2.77986 7.77984 2.50002 8.12502 2.50002H21.875C22.2202 2.50002 22.5001 2.77986 22.5001 3.12503V8.35628C22.5001 9.15815 22.3287 9.95075 21.9973 10.6809C21.666 11.4111 21.1823 12.0621 20.5788 12.59L18.3626 14.53C18.103 14.7575 18.0771 15.1524 18.3046 15.412C18.3226 15.4325 18.342 15.4519 18.3626 15.47L20.5788 17.41C21.1823 17.9379 21.666 18.5889 21.9973 19.319C22.3287 20.0492 22.5001 20.8418 22.5001 21.6437V26.875C22.5 27.2202 22.2202 27.5 21.875 27.5Z" fill="#7CBC79"/>
<path d="M8.75 26.25H21.25V21.6438C21.2492 21.0197 21.115 20.4031 20.8563 19.8352C20.5976 19.2673 20.2204 18.7614 19.75 18.3513L17.5337 16.4113C16.7543 15.7295 16.6752 14.545 17.357 13.7655C17.4119 13.7028 17.471 13.6437 17.5337 13.5888L19.75 11.6488C20.2204 11.2388 20.5976 10.7328 20.8563 10.1649C21.115 9.59704 21.2492 8.98038 21.25 8.35635V3.75H8.75V8.35623C8.75075 8.98027 8.88499 9.59692 9.14371 10.1648C9.40242 10.7327 9.77963 11.2386 10.25 11.6487L12.4663 13.5887C13.2453 14.2709 13.3238 15.4555 12.6417 16.2346C12.5871 16.2969 12.5285 16.3555 12.4663 16.41L10.25 18.3513C9.77963 18.7614 9.40242 19.2673 9.14371 19.8352C8.88499 20.4031 8.75075 21.0197 8.75 21.6438V26.25Z" fill="#ECEFF1"/>
<path d="M18.7026 10.3863C18.6553 10.272 18.5753 10.1743 18.4725 10.1055C18.3697 10.0368 18.2488 10 18.1251 10H11.8751C11.7514 9.9998 11.6303 10.0363 11.5273 10.105C11.4243 10.1737 11.3441 10.2714 11.2967 10.3857C11.2493 10.5 11.2369 10.6259 11.2611 10.7473C11.2853 10.8687 11.345 10.9801 11.4326 11.0675L14.5576 14.1925C14.8017 14.4365 15.1973 14.4365 15.4414 14.1925L18.5664 11.0675C18.6539 10.9802 18.7136 10.8688 18.7379 10.7476C18.7621 10.6263 18.7498 10.5006 18.7026 10.3863Z" fill="#DDA824"/>
<path d="M21.875 26.25H8.125C7.08947 26.25 6.25 27.0895 6.25 28.125C6.25 29.1605 7.08947 30 8.125 30H21.875C22.9105 30 23.75 29.1605 23.75 28.125C23.75 27.0895 22.9105 26.25 21.875 26.25Z" fill="#7CBC79"/>
<path d="M15.42 19.5375C15.3011 19.4299 15.1454 19.3721 14.9851 19.376C14.8248 19.38 14.6722 19.4454 14.5587 19.5588L8.75 25.3663V26.25H21.25V24.8375L15.42 19.5375Z" fill="#DDA824"/>
</svg>
