<svg width="58" height="58" viewBox="0 0 58 58" fill="none" xmlns="http://www.w3.org/2000/svg">
<g opacity="0.05" filter="url(#filter0_d_0_1)">
<rect x="10" y="10" width="38" height="38" rx="19" fill="#747474"/>
</g>
<path d="M37.5985 20H23.0749C22.2682 20 21.6119 20.6568 21.6119 21.4641V22.6119H20.4641C19.6568 22.6119 19 23.2687 19 24.076V33.0032C19 33.8105 19.6568 34.4674 20.4641 34.4674H21.0741V37.7156C21.0742 37.7695 21.0895 37.8223 21.1185 37.8677C21.1475 37.9132 21.1888 37.9494 21.2376 37.9722C21.2864 37.9949 21.3407 38.0033 21.3941 37.9963C21.4476 37.9893 21.4979 37.9672 21.5392 37.9326L25.6728 34.4673H34.9866C35.1346 34.4673 35.2831 34.4438 35.4245 34.3995L36.5234 35.3207C36.5647 35.3554 36.615 35.3775 36.6685 35.3845C36.7219 35.3915 36.7762 35.3831 36.8251 35.3603C36.8739 35.3375 36.9152 35.3013 36.9442 35.2558C36.9731 35.2104 36.9885 35.1576 36.9885 35.1037V31.8554H37.5985C38.4058 31.8554 39.0626 31.1986 39.0626 30.3913V21.4641C39.0626 20.6568 38.4058 20 37.5985 20ZM25.5698 33.9011C25.5033 33.9011 25.4389 33.9245 25.3879 33.9672L21.6405 37.1088V34.1842C21.6405 34.1091 21.6106 34.0371 21.5575 33.984C21.5044 33.9309 21.4324 33.9011 21.3573 33.9011H20.4641C19.969 33.9011 19.5663 33.4983 19.5663 33.0032V24.076C19.5663 23.5809 19.969 23.1782 20.4641 23.1782H21.6119V30.3914C21.6119 31.1987 22.2682 31.8555 23.0749 31.8555H32.3898L34.83 33.9011H25.5698V33.9011ZM38.4964 30.3913C38.4964 30.8864 38.0936 31.2892 37.5985 31.2892H36.7054C36.6303 31.2892 36.5583 31.319 36.5052 31.3721C36.4521 31.4252 36.4222 31.4972 36.4222 31.5723V34.4969L32.6748 31.3553C32.6238 31.3126 32.5594 31.2892 32.4929 31.2892H23.0749C22.5804 31.2892 22.1782 30.8864 22.1782 30.3913V21.4641C22.1782 20.969 22.5804 20.5662 23.0749 20.5662H37.5985C38.0936 20.5662 38.4964 20.969 38.4964 21.4641V30.3913ZM29.0989 24.7204C29.0989 25.5308 28.6367 26.2568 27.8625 26.6624C27.7226 26.7355 27.2667 27.0113 27.2667 27.4917V27.8425C27.2667 27.9176 27.2369 27.9896 27.1838 28.0427C27.1307 28.0958 27.0587 28.1257 26.9836 28.1257C26.9085 28.1257 26.8365 28.0958 26.7834 28.0427C26.7303 27.9896 26.7005 27.9176 26.7005 27.8425V27.4917C26.7005 26.9528 27.0367 26.4552 27.5999 26.1607C28.1839 25.8547 28.5327 25.3163 28.5327 24.7204C28.5327 23.8511 27.8254 23.1438 26.9561 23.1438C26.0867 23.1438 25.3794 23.851 25.3794 24.7204C25.3794 24.7955 25.3496 24.8675 25.2965 24.9206C25.2434 24.9737 25.1714 25.0035 25.0963 25.0035C25.0212 25.0035 24.9492 24.9737 24.8961 24.9206C24.843 24.8675 24.8132 24.7955 24.8132 24.7204C24.8132 23.5388 25.7745 22.5775 26.9561 22.5775C28.1376 22.5775 29.0989 23.5388 29.0989 24.7204ZM27.2667 28.9352V28.9948C27.2667 29.0699 27.2369 29.1419 27.1838 29.195C27.1307 29.2481 27.0587 29.278 26.9836 29.278C26.9085 29.278 26.8364 29.2481 26.7833 29.195C26.7302 29.1419 26.7004 29.0699 26.7004 28.9948V28.9352C26.7004 28.8601 26.7302 28.7881 26.7833 28.735C26.8364 28.6819 26.9085 28.6521 26.9836 28.6521C27.0587 28.6521 27.1307 28.6819 27.1838 28.735C27.2369 28.7881 27.2667 28.8601 27.2667 28.9352ZM35.8603 22.8606C35.8603 22.9357 35.8304 23.0077 35.7773 23.0608C35.7242 23.1139 35.6522 23.1438 35.5771 23.1438H30.5975C30.5225 23.1438 30.4504 23.1139 30.3973 23.0608C30.3442 23.0077 30.3144 22.9357 30.3144 22.8606C30.3144 22.7855 30.3442 22.7135 30.3973 22.6604C30.4504 22.6073 30.5225 22.5775 30.5975 22.5775H35.5771C35.6522 22.5775 35.7242 22.6073 35.7773 22.6604C35.8304 22.7135 35.8603 22.7855 35.8603 22.8606ZM35.8603 24.8855C35.8603 24.9606 35.8304 25.0326 35.7773 25.0857C35.7242 25.1388 35.6522 25.1686 35.5771 25.1686H30.5975C30.5604 25.1686 30.5235 25.1613 30.4892 25.1471C30.4548 25.1329 30.4236 25.112 30.3973 25.0857C30.371 25.0594 30.3502 25.0282 30.336 24.9939C30.3217 24.9595 30.3144 24.9227 30.3144 24.8855C30.3144 24.8483 30.3217 24.8115 30.336 24.7771C30.3502 24.7428 30.371 24.7116 30.3973 24.6853C30.4236 24.659 30.4548 24.6381 30.4892 24.6239C30.5235 24.6097 30.5604 24.6024 30.5975 24.6024H35.5771C35.6522 24.6024 35.7242 24.6322 35.7773 24.6853C35.8304 24.7384 35.8603 24.8104 35.8603 24.8855ZM35.8603 26.9103C35.8603 26.9854 35.8304 27.0574 35.7773 27.1105C35.7242 27.1636 35.6522 27.1935 35.5771 27.1935H30.5975C30.5225 27.1935 30.4504 27.1636 30.3973 27.1105C30.3442 27.0574 30.3144 26.9854 30.3144 26.9103C30.3144 26.8352 30.3442 26.7632 30.3973 26.7101C30.4504 26.657 30.5225 26.6272 30.5975 26.6272H35.5771C35.6522 26.6272 35.7242 26.657 35.7773 26.7101C35.8304 26.7632 35.8603 26.8352 35.8603 26.9103ZM35.8603 28.9352C35.8603 29.0103 35.8304 29.0823 35.7773 29.1354C35.7242 29.1885 35.6522 29.2183 35.5771 29.2183H30.5975C30.5225 29.2183 30.4504 29.1885 30.3973 29.1354C30.3442 29.0823 30.3144 29.0103 30.3144 28.9352C30.3144 28.8601 30.3442 28.7881 30.3973 28.735C30.4504 28.6819 30.5225 28.6521 30.5975 28.6521H35.5771C35.6522 28.6521 35.7242 28.6819 35.7773 28.735C35.8304 28.7881 35.8603 28.8601 35.8603 28.9352Z" fill="#747474"/>
<defs>
<filter id="filter0_d_0_1" x="0" y="0" width="58" height="58" filterUnits="userSpaceOnUse" color-interpolation-filters="sRGB">
<feFlood flood-opacity="0" result="BackgroundImageFix"/>
<feColorMatrix in="SourceAlpha" type="matrix" values="0 0 0 0 0 0 0 0 0 0 0 0 0 0 0 0 0 0 127 0" result="hardAlpha"/>
<feOffset/>
<feGaussianBlur stdDeviation="5"/>
<feComposite in2="hardAlpha" operator="out"/>
<feColorMatrix type="matrix" values="0 0 0 0 0.14902 0 0 0 0 0.741176 0 0 0 0 0.505882 0 0 0 0.1 0"/>
<feBlend mode="normal" in2="BackgroundImageFix" result="effect1_dropShadow_0_1"/>
<feBlend mode="normal" in="SourceGraphic" in2="effect1_dropShadow_0_1" result="shape"/>
</filter>
</defs>
</svg>
