<svg width="58" height="58" viewBox="0 0 58 58" fill="none" xmlns="http://www.w3.org/2000/svg">
<g opacity="0.05" filter="url(#filter0_d_0_1)">
<rect x="10" y="10" width="38" height="38" rx="19" fill="#18D6D6"/>
</g>
<path d="M36.9692 36.2495C36.7597 35.2711 35.6667 31.4659 31.4687 30.1069C31.9141 29.8212 32.3091 29.461 32.637 29.0414H34.2699C35.2164 29.0414 35.9864 28.2564 35.9864 27.2914V24.9058C35.9864 24.5014 35.8508 24.129 35.6241 23.8323C33.4351 17.3948 24.583 17.3836 22.386 23.8324C22.1593 24.129 22.0237 24.5015 22.0237 24.9058V27.2914C22.0237 28.2564 22.7937 29.0414 23.7402 29.0414H25.3731C25.701 29.461 26.096 29.8213 26.5414 30.1069C22.345 31.465 21.2443 35.2693 21.0327 36.2461C20.8486 37.0719 21.4587 38 22.4257 38C25.2715 38 32.8311 38 35.5844 37.991C36.5273 37.991 37.1484 37.1018 36.9692 36.2495ZM34.8934 24.9058V27.2914C34.8934 27.6419 34.6137 27.927 34.2699 27.927H33.2871C33.765 26.7851 33.765 25.4122 33.2871 24.2702H34.2699C34.6137 24.2702 34.8934 24.5553 34.8934 24.9058ZM24.723 27.927H23.7402C23.3964 27.927 23.1167 27.6419 23.1167 27.2914V24.9058C23.1167 24.5553 23.3964 24.2702 23.7402 24.2702H24.723C24.2451 25.4122 24.2451 26.785 24.723 27.927ZM23.8861 23.1558C26.0797 19.0853 31.9316 19.0881 34.124 23.1558H32.637C30.8509 20.7866 27.1583 20.7875 25.3731 23.1558H23.8861ZM25.4567 26.0986C25.4567 24.1038 27.0484 22.481 29.005 22.481C31.4176 22.433 33.2002 25.0447 32.3414 27.3306H30.175C29.451 27.3579 29.4509 28.4178 30.175 28.445H31.7035C29.6037 30.9788 25.4568 29.4554 25.4567 26.0986ZM35.8344 36.7556C35.773 36.8325 35.6818 36.8767 35.5827 36.8767C32.8294 36.8856 25.2711 36.8856 22.4257 36.8856C22.2241 36.8907 22.056 36.684 22.101 36.4821C23.7873 29.0724 34.131 28.9085 35.9005 36.4834C35.9099 36.5309 35.9089 36.58 35.8974 36.6271C35.886 36.6742 35.8645 36.7181 35.8344 36.7556Z" fill="#18D6D6"/>
<defs>
<filter id="filter0_d_0_1" x="0" y="0" width="58" height="58" filterUnits="userSpaceOnUse" color-interpolation-filters="sRGB">
<feFlood flood-opacity="0" result="BackgroundImageFix"/>
<feColorMatrix in="SourceAlpha" type="matrix" values="0 0 0 0 0 0 0 0 0 0 0 0 0 0 0 0 0 0 127 0" result="hardAlpha"/>
<feOffset/>
<feGaussianBlur stdDeviation="5"/>
<feComposite in2="hardAlpha" operator="out"/>
<feColorMatrix type="matrix" values="0 0 0 0 0.14902 0 0 0 0 0.741176 0 0 0 0 0.505882 0 0 0 0.1 0"/>
<feBlend mode="normal" in2="BackgroundImageFix" result="effect1_dropShadow_0_1"/>
<feBlend mode="normal" in="SourceGraphic" in2="effect1_dropShadow_0_1" result="shape"/>
</filter>
</defs>
</svg>
