<svg width="58" height="58" viewBox="0 0 58 58" fill="none" xmlns="http://www.w3.org/2000/svg">
<g opacity="0.05" filter="url(#filter0_d_0_1)">
<rect x="10" y="10" width="38" height="38" rx="19" fill="#2D85CC"/>
</g>
<path d="M23.5247 23.4066C23.4743 23.3562 23.406 23.3279 23.3347 23.3279C23.2634 23.3279 23.1951 23.3562 23.1447 23.4065L22.4664 24.0848L22.1771 23.7954C22.1267 23.7451 22.0583 23.7168 21.9871 23.7168C21.9158 23.7168 21.8475 23.7451 21.7971 23.7955C21.7467 23.8459 21.7184 23.9142 21.7184 23.9855C21.7184 24.0567 21.7467 24.1251 21.7971 24.1755L22.2764 24.6548C22.3289 24.7073 22.3976 24.7335 22.4664 24.7335C22.5352 24.7335 22.604 24.7073 22.6564 24.6548L23.5247 23.7866C23.5751 23.7362 23.6034 23.6678 23.6034 23.5966C23.6034 23.5253 23.5751 23.457 23.5247 23.4066ZM23.3434 26.1958H21.9783C21.686 26.1958 21.4482 26.4337 21.4482 26.726V28.091C21.4482 28.3833 21.686 28.6211 21.9783 28.6211H23.3434C23.6357 28.6211 23.8735 28.3833 23.8735 28.091V26.726C23.8735 26.4337 23.6357 26.1958 23.3434 26.1958ZM23.3361 28.0837H21.9857V26.7333H23.3361V28.0837ZM23.3434 29.9675H21.9783C21.686 29.9675 21.4482 30.2053 21.4482 30.4976V31.8627C21.4482 32.155 21.686 32.3928 21.9783 32.3928H23.3434C23.6357 32.3928 23.8735 32.155 23.8735 31.8627V30.4976C23.8735 30.2053 23.6357 29.9675 23.3434 29.9675ZM23.3361 31.8553H21.9857V30.5049H23.3361V31.8553ZM23.3434 33.8194H21.9783C21.686 33.8194 21.4482 34.0572 21.4482 34.3495V35.7146C21.4482 36.0069 21.686 36.2447 21.9783 36.2447H23.3434C23.6357 36.2447 23.8735 36.0069 23.8735 35.7146V34.3495C23.8735 34.0572 23.6357 33.8194 23.3434 33.8194ZM23.3361 35.7072H21.9857V34.3568H23.3361V35.7072Z" fill="#2D85CC"/>
<path d="M37.7313 27.0157C37.6601 27.0157 37.5917 27.044 37.5413 27.0944C37.4909 27.1448 37.4626 27.2131 37.4626 27.2844V37.272C37.4626 37.4721 37.2999 37.6348 37.0998 37.6348H27.4784C27.2783 37.6348 27.1156 37.4721 27.1156 37.272V23.8316C27.1156 23.6315 27.2783 23.4688 27.4784 23.4688H37.0997C37.2998 23.4688 37.4625 23.6315 37.4625 23.8316V26.1827C37.4625 26.2539 37.4909 26.3223 37.5413 26.3727C37.5916 26.4231 37.66 26.4514 37.7313 26.4514C37.8025 26.4514 37.8709 26.4231 37.9213 26.3727C37.9717 26.3223 38 26.2539 38 26.1827V23.8316C38 23.3352 37.5962 22.9313 37.0998 22.9313H35.6596V21.4147C35.6596 20.5397 34.9479 19.8278 34.0727 19.8277H21.8115C20.8125 19.8277 19.9998 20.6404 19.9998 21.6394V36.5664C19.9998 37.4415 20.7117 38.1534 21.5867 38.1534H25.8888C26.0372 38.1534 26.1575 38.0331 26.1575 37.8846C26.1575 37.7362 26.0372 37.6159 25.8888 37.6159H21.5868C21.0081 37.6159 20.5373 37.1451 20.5373 36.5664V21.6394C20.5372 20.9368 21.1089 20.3651 21.8115 20.3651H32.8836C32.6361 20.6451 32.4855 21.0125 32.4855 21.4147V22.1563C32.4855 22.2276 32.5138 22.296 32.5642 22.3464C32.6146 22.3968 32.6829 22.4251 32.7542 22.4251C32.8255 22.4251 32.8938 22.3968 32.9442 22.3464C32.9946 22.296 33.0229 22.2276 33.0229 22.1563V21.4147C33.0229 20.836 33.4938 20.3651 34.0727 20.3651C34.6514 20.3651 35.1222 20.836 35.1222 21.4147V22.9313H27.4784C26.982 22.9313 26.5781 23.3352 26.5781 23.8316V24.0176H25.182C25.0336 24.0176 24.9133 24.1379 24.9133 24.2863C24.9133 24.4348 25.0336 24.555 25.182 24.555H26.5781V27.1397H25.182C25.0336 27.1397 24.9133 27.26 24.9133 27.4085C24.9133 27.5569 25.0336 27.6772 25.182 27.6772H26.5781V30.9114H25.182C25.0336 30.9114 24.9133 31.0317 24.9133 31.1801C24.9133 31.3286 25.0336 31.4488 25.182 31.4488H26.5781V34.7633H25.182C25.0336 34.7633 24.9133 34.8836 24.9133 35.032C24.9133 35.1805 25.0336 35.3007 25.182 35.3007H26.5781V37.2721C26.5781 37.7684 26.982 38.1723 27.4784 38.1723H37.0998C37.5962 38.1723 38 37.7685 38 37.2721V27.2844C38 27.2131 37.9717 27.1448 37.9213 27.0944C37.8709 27.044 37.8026 27.0157 37.7313 27.0157Z" fill="#2D85CC"/>
<path d="M36.2754 23.8937H28.2108C27.858 23.8937 27.571 24.1807 27.571 24.5335V26.5415C27.571 26.8943 27.858 27.1812 28.2108 27.1812H36.2753C36.6281 27.1812 36.9151 26.8942 36.9151 26.5415V24.5335H36.9151C36.9151 24.1807 36.6281 23.8937 36.2754 23.8937ZM36.2754 26.6438H28.2108C28.1837 26.6438 28.1577 26.633 28.1385 26.6138C28.1193 26.5946 28.1085 26.5686 28.1085 26.5415V24.5335C28.1085 24.5064 28.1193 24.4804 28.1385 24.4612C28.1577 24.442 28.1837 24.4312 28.2108 24.4312H36.2753C36.3025 24.4312 36.3285 24.442 36.3476 24.4612C36.3668 24.4803 36.3776 24.5063 36.3776 24.5335V26.5415H36.3777C36.3776 26.5686 36.3669 26.5946 36.3477 26.6138C36.3285 26.633 36.3025 26.6437 36.2754 26.6438ZM28.9993 27.7176H28.115C27.815 27.7176 27.571 27.9616 27.571 28.2615V29.1252C27.571 29.4251 27.815 29.6691 28.115 29.6691H28.9993C29.2993 29.6691 29.5433 29.4251 29.5433 29.1252V28.2615C29.5432 27.9616 29.2993 27.7176 28.9993 27.7176ZM29.0058 29.1251C29.0058 29.1287 29.0029 29.1316 28.9993 29.1316H28.1149C28.1132 29.1316 28.1116 29.1309 28.1103 29.1297C28.1091 29.1285 28.1084 29.1269 28.1084 29.1251V28.2615C28.1084 28.258 28.1114 28.2551 28.1149 28.2551H28.9993C29.0029 28.2551 29.0058 28.258 29.0058 28.2615V29.1251ZM31.4566 27.7176H30.5722C30.2723 27.7176 30.0283 27.9616 30.0283 28.2615V29.1252C30.0283 29.4251 30.2723 29.6691 30.5722 29.6691H31.4566C31.7565 29.6691 32.0005 29.4251 32.0005 29.1252V28.2615C32.0006 27.9616 31.7566 27.7176 31.4566 27.7176ZM31.4631 29.1251C31.4631 29.1287 31.4602 29.1316 31.4566 29.1316H30.5722C30.5705 29.1316 30.5688 29.1309 30.5676 29.1297C30.5664 29.1285 30.5657 29.1269 30.5657 29.1251V28.2615C30.5657 28.258 30.5686 28.2551 30.5722 28.2551H31.4566C31.4602 28.2551 31.4631 28.258 31.4631 28.2615V29.1251H31.4631ZM33.9139 27.7176H33.0295C32.7296 27.7176 32.4856 27.9616 32.4856 28.2615V29.1252C32.4856 29.4251 32.7296 29.6691 33.0295 29.6691H33.9139C34.2138 29.6691 34.4578 29.4251 34.4578 29.1252V28.2615C34.4578 27.9616 34.2138 27.7176 33.9139 27.7176ZM33.9204 29.1251C33.9204 29.1287 33.9175 29.1316 33.9139 29.1316H33.0295C33.0278 29.1316 33.0262 29.1309 33.0249 29.1297C33.0237 29.1285 33.023 29.1269 33.023 29.1251V28.2615C33.023 28.258 33.026 28.2551 33.0295 28.2551H33.9139C33.9175 28.2551 33.9204 28.258 33.9204 28.2615V29.1251ZM36.3712 27.7176H35.4869C35.1869 27.7176 34.9429 27.9616 34.9429 28.2615V29.1252C34.9429 29.4251 35.1869 29.6691 35.4869 29.6691H36.3712C36.6712 29.6691 36.9152 29.4251 36.9152 29.1252V28.2615C36.9151 27.9616 36.6712 27.7176 36.3712 27.7176ZM36.3777 29.1251C36.3777 29.1287 36.3748 29.1316 36.3712 29.1316H35.4868C35.4851 29.1316 35.4834 29.1309 35.4822 29.1297C35.481 29.1285 35.4803 29.1269 35.4803 29.1251V28.2615C35.4803 28.258 35.4832 28.2551 35.4868 28.2551H36.3712C36.3748 28.2551 36.3777 28.258 36.3777 28.2615V29.1251ZM28.9993 30.2044H28.115C27.815 30.2044 27.571 30.4484 27.571 30.7483V31.6119C27.571 31.9119 27.815 32.1559 28.115 32.1559H28.9993C29.2993 32.1559 29.5433 31.9119 29.5433 31.6119V30.7483C29.5432 30.4484 29.2993 30.2044 28.9993 30.2044ZM29.0058 31.6119C29.0058 31.6155 29.0029 31.6184 28.9993 31.6184H28.1149C28.1132 31.6184 28.1116 31.6177 28.1103 31.6165C28.1091 31.6153 28.1084 31.6136 28.1084 31.6119V30.7483C28.1084 30.7447 28.1114 30.7418 28.1149 30.7418H28.9993C29.0029 30.7418 29.0058 30.7447 29.0058 30.7483V31.6119ZM31.4566 30.2044H30.5722C30.2723 30.2044 30.0283 30.4484 30.0283 30.7483V31.6119C30.0283 31.9119 30.2723 32.1559 30.5722 32.1559H31.4566C31.7565 32.1559 32.0005 31.9119 32.0005 31.6119V30.7483C32.0006 30.4484 31.7566 30.2044 31.4566 30.2044ZM31.4631 31.6119C31.4631 31.6155 31.4602 31.6184 31.4566 31.6184H30.5722C30.5705 31.6184 30.5688 31.6177 30.5676 31.6165C30.5664 31.6153 30.5657 31.6136 30.5657 31.6119V30.7483C30.5657 30.7447 30.5686 30.7418 30.5722 30.7418H31.4566C31.4602 30.7418 31.4631 30.7447 31.4631 30.7483V31.6119H31.4631ZM33.9139 30.2044H33.0295C32.7296 30.2044 32.4856 30.4484 32.4856 30.7483V31.6119C32.4856 31.9119 32.7296 32.1559 33.0295 32.1559H33.9139C34.2138 32.1559 34.4578 31.9119 34.4578 31.6119V30.7483C34.4578 30.4484 34.2138 30.2044 33.9139 30.2044ZM33.9204 31.6119C33.9204 31.6155 33.9175 31.6184 33.9139 31.6184H33.0295C33.0278 31.6184 33.0262 31.6177 33.0249 31.6165C33.0237 31.6153 33.023 31.6136 33.023 31.6119V30.7483C33.023 30.7447 33.026 30.7418 33.0295 30.7418H33.9139C33.9175 30.7418 33.9204 30.7447 33.9204 30.7483V31.6119ZM36.3712 30.2044H35.4869C35.1869 30.2044 34.9429 30.4484 34.9429 30.7483V31.6119C34.9429 31.9119 35.1869 32.1559 35.4869 32.1559H36.3712C36.6712 32.1559 36.9152 31.9119 36.9152 31.6119V30.7483C36.9151 30.4484 36.6712 30.2044 36.3712 30.2044ZM36.3777 31.6119C36.3777 31.6155 36.3748 31.6184 36.3712 31.6184H35.4868C35.4851 31.6184 35.4834 31.6177 35.4822 31.6165C35.481 31.6153 35.4803 31.6136 35.4803 31.6119V30.7483C35.4803 30.7447 35.4832 30.7418 35.4868 30.7418H36.3712C36.3748 30.7418 36.3777 30.7447 36.3777 30.7483V31.6119ZM28.9993 32.6912H28.115C27.815 32.6912 27.571 32.9352 27.571 33.2351V34.0987C27.571 34.3986 27.815 34.6426 28.115 34.6426H28.9993C29.2993 34.6426 29.5433 34.3986 29.5433 34.0987V33.2351C29.5432 32.9352 29.2993 32.6912 28.9993 32.6912ZM29.0058 34.0987C29.0058 34.1023 29.0029 34.1052 28.9993 34.1052H28.1149C28.1132 34.1052 28.1116 34.1045 28.1103 34.1033C28.1091 34.1021 28.1084 34.1004 28.1084 34.0987V33.2351C28.1084 33.2315 28.1114 33.2286 28.1149 33.2286H28.9993C29.0029 33.2286 29.0058 33.2315 29.0058 33.2351V34.0987ZM31.4566 32.6912H30.5722C30.2723 32.6912 30.0283 32.9352 30.0283 33.2351V34.0987C30.0283 34.3986 30.2723 34.6426 30.5722 34.6426H31.4566C31.7565 34.6426 32.0005 34.3986 32.0005 34.0987V33.2351C32.0006 32.9352 31.7566 32.6912 31.4566 32.6912ZM31.4631 34.0987C31.4631 34.1023 31.4602 34.1052 31.4566 34.1052H30.5722C30.5705 34.1052 30.5688 34.1045 30.5676 34.1033C30.5664 34.1021 30.5657 34.1004 30.5657 34.0987V33.2351C30.5657 33.2315 30.5686 33.2286 30.5722 33.2286H31.4566C31.4602 33.2286 31.4631 33.2315 31.4631 33.2351V34.0987H31.4631ZM33.9139 32.6912H33.0295C32.7296 32.6912 32.4856 32.9352 32.4856 33.2351V34.0987C32.4856 34.3986 32.7296 34.6426 33.0295 34.6426H33.9139C34.2138 34.6426 34.4578 34.3986 34.4578 34.0987V33.2351C34.4578 32.9352 34.2138 32.6912 33.9139 32.6912ZM33.9204 34.0987C33.9204 34.1023 33.9175 34.1052 33.9139 34.1052H33.0295C33.0278 34.1052 33.0262 34.1045 33.0249 34.1033C33.0237 34.1021 33.023 34.1004 33.023 34.0987V33.2351C33.023 33.2315 33.026 33.2286 33.0295 33.2286H33.9139C33.9175 33.2286 33.9204 33.2315 33.9204 33.2351V34.0987ZM36.3712 32.6912H35.4869C35.1869 32.6912 34.9429 32.9352 34.9429 33.2351V36.4357C34.9429 36.7356 35.1869 36.9796 35.4869 36.9796H36.3712C36.6712 36.9796 36.9152 36.7356 36.9152 36.4357V33.2351C36.9151 32.9352 36.6712 32.6912 36.3712 32.6912ZM36.3777 36.4357C36.3777 36.4393 36.3748 36.4422 36.3712 36.4422H35.4868C35.4851 36.4422 35.4834 36.4415 35.4822 36.4403C35.481 36.4391 35.4803 36.4374 35.4803 36.4357V33.2351C35.4803 33.2315 35.4832 33.2286 35.4868 33.2286H36.3712C36.3748 33.2286 36.3777 33.2315 36.3777 33.2351V36.4357ZM28.9994 35.0282H28.115C27.8151 35.0282 27.5711 35.2722 27.5711 35.5721V36.4358C27.5711 36.7357 27.8151 36.9797 28.115 36.9797H28.9994C29.2993 36.9797 29.5433 36.7357 29.5433 36.4358V35.5721C29.5432 35.2722 29.2993 35.0282 28.9994 35.0282ZM29.0058 36.4357C29.0058 36.4393 29.0029 36.4422 28.9993 36.4422H28.1149C28.1132 36.4422 28.1116 36.4415 28.1103 36.4403C28.1091 36.4391 28.1084 36.4374 28.1084 36.4357V35.5721C28.1084 35.5685 28.1114 35.5656 28.1149 35.5656H28.9993C29.0029 35.5656 29.0058 35.5685 29.0058 35.5721V36.4357ZM31.4567 35.0282H30.5723C30.2724 35.0282 30.0284 35.2722 30.0284 35.5721V36.4358C30.0284 36.7357 30.2724 36.9797 30.5723 36.9797H31.4567C31.7566 36.9797 32.0006 36.7357 32.0006 36.4358V35.5721C32.0006 35.2722 31.7566 35.0282 31.4567 35.0282ZM31.4631 36.4357C31.4631 36.4393 31.4602 36.4422 31.4566 36.4422H30.5722C30.5705 36.4422 30.5688 36.4415 30.5676 36.4403C30.5664 36.4391 30.5657 36.4374 30.5657 36.4357V35.5721C30.5657 35.5685 30.5686 35.5656 30.5722 35.5656H31.4566C31.4602 35.5656 31.4631 35.5685 31.4631 35.5721V36.4357H31.4631ZM33.9139 35.0282H33.0296C32.7296 35.0282 32.4856 35.2722 32.4856 35.5721V36.4358C32.4856 36.7357 32.7296 36.9797 33.0296 36.9797H33.9139C34.2139 36.9797 34.4579 36.7357 34.4579 36.4358V35.5721C34.4578 35.2722 34.2138 35.0282 33.9139 35.0282ZM33.9204 36.4357C33.9204 36.4393 33.9175 36.4422 33.9139 36.4422H33.0295C33.0278 36.4422 33.0262 36.4415 33.0249 36.4403C33.0237 36.4391 33.023 36.4374 33.023 36.4357V35.5721C33.023 35.5685 33.026 35.5656 33.0295 35.5656H33.9139C33.9175 35.5656 33.9204 35.5685 33.9204 35.5721V36.4357Z" fill="#2D85CC"/>
<defs>
<filter id="filter0_d_0_1" x="0" y="0" width="58" height="58" filterUnits="userSpaceOnUse" color-interpolation-filters="sRGB">
<feFlood flood-opacity="0" result="BackgroundImageFix"/>
<feColorMatrix in="SourceAlpha" type="matrix" values="0 0 0 0 0 0 0 0 0 0 0 0 0 0 0 0 0 0 127 0" result="hardAlpha"/>
<feOffset/>
<feGaussianBlur stdDeviation="5"/>
<feComposite in2="hardAlpha" operator="out"/>
<feColorMatrix type="matrix" values="0 0 0 0 0.14902 0 0 0 0 0.741176 0 0 0 0 0.505882 0 0 0 0.1 0"/>
<feBlend mode="normal" in2="BackgroundImageFix" result="effect1_dropShadow_0_1"/>
<feBlend mode="normal" in="SourceGraphic" in2="effect1_dropShadow_0_1" result="shape"/>
</filter>
</defs>
</svg>
